{
.appVersion = "3151";
.formatVersion = 3;
customParameters = (
{
name = vendorID;
value = "1BOU";
},
{
name = panose;
value = (
0,
0,
9,
0,
0,
0,
0,
0,
0,
0
);
},
{
name = unicodeRanges;
value = (
0,
1,
2,
3,
5,
13,
31,
33,
35,
38,
45,
60,
63,
67
);
},
{
name = codePageRanges;
value = (
"1252",
"1256"
);
},
{
name = fsType;
value = (
);
},
{
name = glyphOrder;
value = (
.notdef,
uni000D,
space,
exclam,
quotedbl,
numbersign,
dollar,
percent,
ampersand,
quotesingle,
parenleft,
parenright,
asterisk,
plus,
comma,
hyphen,
period,
slash,
zero,
one,
two,
three,
four,
five,
six,
seven,
eight,
nine,
colon,
semicolon,
less,
equal,
greater,
question,
at,
A,
B,
C,
D,
E,
F,
G,
H,
I,
J,
K,
L,
M,
N,
O,
P,
Q,
R,
S,
T,
U,
V,
W,
X,
Y,
Z,
bracketleft,
backslash,
bracketright,
asciicircum,
underscore,
grave,
a,
b,
c,
d,
e,
f,
g,
h,
i,
j,
k,
l,
m,
n,
o,
p,
q,
r,
s,
t,
u,
v,
w,
x,
y,
z,
braceleft,
bar,
braceright,
asciitilde,
exclamdown,
cent,
sterling,
yen,
brokenbar,
section,
dieresis,
copyright,
ordfeminine,
guillemotleft,
uni00AD,
registered,
macron,
degree,
plusminus,
twosuperior,
threesuperior,
acute,
paragraph,
periodcentered,
cedilla,
onesuperior,
ordmasculine,
guillemotright,
onequarter,
onehalf,
threequarters,
questiondown,
Agrave,
Aacute,
Acircumflex,
Atilde,
Adieresis,
Aring,
AE,
Ccedilla,
Egrave,
Eacute,
Ecircumflex,
Edieresis,
Igrave,
Iacute,
Icircumflex,
Idieresis,
Eth,
Ntilde,
Ograve,
Oacute,
Ocircumflex,
Otilde,
Odieresis,
multiply,
Oslash,
Ugrave,
Uacute,
Ucircumflex,
Udieresis,
Yacute,
Thorn,
germandbls,
agrave,
aacute,
acircumflex,
atilde,
adieresis,
aring,
ae,
ccedilla,
egrave,
eacute,
ecircumflex,
edieresis,
igrave,
iacute,
icircumflex,
idieresis,
eth,
ntilde,
ograve,
oacute,
ocircumflex,
otilde,
odieresis,
divide,
oslash,
ugrave,
uacute,
ucircumflex,
udieresis,
yacute,
thorn,
ydieresis,
dotlessi,
Lslash,
lslash,
OE,
oe,
Scaron,
scaron,
Ydieresis,
Zcaron,
zcaron,
florin,
circumflex,
caron,
breve,
dotaccent,
ring,
ogonek,
tilde,
hungarumlaut,
uni03BC,
uni060C,

glyphs = (
{
glyphname = .notdef;
layers = (
{
layerId = m01;
shapes = (
{
closed = 1;
nodes = (
(226,-85,o),
(250,-85,qs),
(273,-85,o),
(304,-53,o),
(304,-29,qs),
(304,-5,o),
(273,27,o),
(250,27,qs),
(226,27,o),
(194,-5,o),
(194,-29,qs),
(194,-53,o)
);
},
{
closed = 1;
nodes = (
(220,54,qs),
(276,54,ls),
(286,54,o),
(286,64,qs),
(286,75,ls),
(286,90,o),
(301,100,qs),
(364,147,o),
(412,216,o),
(412,261,qs),
(412,313,o),
(373,343,qs),
(332,376,o),
(259,376,qs),
(210,376,o),
(162,357,qs),
(112,337,o),
(128,288,qs),
(134,267,l),
(137,260,o),
(142,260,qs),
(146,260,o),
(153,263,qs),
(210,292,o),
(257,292,qs),
(315,292,o),
(315,245,qs),
(315,215,o),
(268,176,qs),
(233,147,o),
(210,111,o),
(210,88,qs),
(210,64,ls),
(210,54,o)
);
},
{
closed = 1;
nodes = (
(506,-266,l),
(506,555,l),
(21,555,l),
(21,-266,l)
);
},
{
closed = 1;
nodes = (
(432,-192,l),
(95,-192,l),
(95,481,l),
(432,481,l)
);
}
);
userData = {
assembly = "NPUSHB[ ]	/* 74 values pushed */
0 3 2 5 2 3 5 128 0 5 0 2 5 0 126 0 6 10 1 9 4 6 9 103 0 4 0 2 3 4 2 105 0 0 0 1 8 0 1 105 0 8 7 7 8 87 0 8 8 7 95 0 7 8 7 79 50 50 50 53 50 53 18 17 17 58 37 34 41 36 34 11 6 31 
CALL[ ]	/* CallFunction */";
};
width = 527;
}
);
note = ".notdef";
},
{
glyphname = exclam;
layers = (
{
layerId = m01;
shapes = (
{
closed = 1;
nodes = (
(64,130,o),
(94,130,qs),
(123,130,o),
(161,90,o),
(161,60,qs),
(161,29,o),
(123,-10,o),
(94,-10,qs),
(64,-10,o),
(24,30,o),
(24,60,qs),
(24,90,o)
);
},
{
closed = 1;
nodes = (
(33,556,o),
(46,556,qs),
(56,556,ls),
(106,556,o),
(152,507,o),
(150,455,qs),
(141,176,ls),
(141,163,o),
(128,163,qs),
(59,163,ls),
(46,163,o),
(46,176,qs),
(33,543,ls)
);
}
);
userData = {
assembly = "NPUSHB[ ]	/* 28 values pushed */
0 2 2 3 97 0 3 3 39 77 0 1 1 0 97 0 0 0 46 0 78 52 51 36 34 4 9 26 
CALL[ ]	/* CallFunction */";
};
width = 189;
}
);
note = exclam;
unicode = 33;
},
{
glyphname = quotedbl;
layers = (
{
layerId = m01;
shapes = (
{
closed = 1;
nodes = (
(23,556,o),
(37,556,qs),
(58,556,ls),
(108,556,o),
(139,517,o),
(133,462,qs),
(123,366,ls),
(122,353,o),
(110,353,qs),
(55,353,ls),
(43,353,o),
(42,366,qs),
(24,543,ls)
);
},
{
closed = 1;
nodes = (
(184,556,o),
(198,556,qs),
(219,556,ls),
(269,556,o),
(300,517,o),
(294,462,qs),
(284,366,ls),
(283,353,o),
(271,353,qs),
(216,353,ls),
(204,353,o),
(203,366,qs),
(185,543,ls)
);
}
);
userData = {
assembly = "NPUSHB[ ]	/* 20 values pushed */
2 1 0 0 1 97 3 1 1 1 39 0 78 52 51 52 49 4 9 26 
CALL[ ]	/* CallFunction */";
};
width = 321;
}
);
note = quotedbl;
unicode = 34;
},
{
glyphname = numbersign;
layers = (
{
layerId = m01;
shapes = (
{
closed = 1;
nodes = (
(368,339,l),
(247,339,l),
(215,212,l),
(336,212,l)
);
},
{
closed = 1;
nodes = (
(19,137,o),
(22,150,qs),
(35,199,ls),
(38,212,o),
(51,212,qs),
(109,212,l),
(141,339,l),
(82,339,ls),
(69,339,o),
(72,352,qs),
(85,401,l),
(87,413,o),
(100,413,qs),
(159,413,l),
(190,543,ls),
(193,556,o),
(207,556,qs),
(235,556,ls),
(299,556,o),
(282,488,qs),
(264,413,l),
(386,413,l),
(417,543,l),
(419,556,o),
(433,556,qs),
(461,556,ls),
(525,556,o),
(509,488,qs),
(491,413,l),
(551,413,ls),
(563,413,o),
(561,401,q),
(548,352,ls),
(545,339,o),
(532,339,qs),
(473,339,l),
(441,212,l),
(501,212,ls),
(514,212,o),
(511,199,qs),
(498,150,ls),
(495,137,o),
(482,137,qs),
(423,137,l),
(395,13,l),
(391,0,o),
(381,0,qs),
(298,0,ls),
(286,0,o),
(289,13,qs),
(318,137,l),
(197,137,l),
(167,13,ls),
(164,0,o),
(153,0,qs),
(71,0,ls),
(58,0,o),
(62,13,qs),
(92,137,l),
(32,137,ls)
);
}
);
userData = {
assembly = "NPUSHB[ ]	/* 81 values pushed */
12 10 2 8 13 7 2 0 1 8 0 104 14 6 16 3 1 17 15 5 3 3 2 1 3 103 11 1 9 9 39 77 4 1 2 2 40 2 78 4 4 0 0 4 63 4 62 59 57 56 54 51 49 47 44 42 41 39 36 34 32 29 27 26 24 21 19 17 14 12 11 9 6 0 3 0 3 17 18 9 23 
CALL[ ]	/* CallFunction */";
};
width = 578;
}
);
note = numbersign;
unicode = 35;
},
{
glyphname = dollar;
layers = (
{
layerId = m01;
shapes = (
{
closed = 1;
nodes = (
(153,456,o),
(153,409,qs),
(153,373,o),
(214,350,q),
(214,463,l)
);
},
{
closed = 1;
nodes = (
(330,112,o),
(330,155,qs),
(330,189,o),
(273,213,q),
(273,97,l)
);
},
{
closed = 1;
nodes = (
(138,258,o),
(104,282,qs),
(41,326,o),
(41,403,qs),
(41,469,o),
(86,512,qs),
(133,558,o),
(214,565,q),
(214,608,ls),
(214,621,o),
(227,621,qs),
(261,621,ls),
(273,621,o),
(273,608,qs),
(273,565,l),
(326,563,o),
(374,547,qs),
(407,535,o),
(427,495,o),
(418,461,qs),
(412,439,ls),
(409,426,o),
(400,426,qs),
(393,426,o),
(383,431,qs),
(329,457,o),
(273,462,q),
(273,330,l),
(348,307,o),
(382,284,qs),
(443,241,o),
(443,166,qs),
(443,103,o),
(403,57,qs),
(357,5,o),
(273,-7,q),
(273,-52,ls),
(273,-65,o),
(261,-65,qs),
(227,-65,ls),
(214,-65,o),
(214,-52,qs),
(214,-10,l),
(127,-7,o),
(75,34,qs),
(22,76,o),
(22,140,qs),
(22,163,o),
(37,163,qs),
(43,163,o),
(47,159,qs),
(119,94,o),
(214,91,q),
(214,234,l)
);
}
);
userData = {
assembly = "NPUSHB[ ]	/* 26 values pushed */
55 1 5 6 36 4 2 4 5 63 35 5 0 4 1 4 9 1 0 1 27 1 2 0 5 76 
MPPEM[ ]	/* MeasurePixelPerEm */
PUSHB[ ]	/* 1 value pushed */
50 
LT[ ]	/* LessThan */
IF[ ]	/* If */
NPUSHB[ ]	/* 38 values pushed */
0 4 5 1 5 4 1 128 0 1 0 5 1 0 126 0 6 0 3 6 3 101 0 5 5 39 77 0 0 0 2 97 0 2 2 46 2 78 
ELSE[ ]	/* Else */
NPUSHB[ ]	/* 40 values pushed */
0 5 6 4 6 5 4 128 0 4 1 6 4 1 126 0 1 0 6 1 0 126 0 6 0 3 6 3 101 0 0 0 2 97 0 2 2 46 2 78 
EIF[ ]	/* EndIf */
NPUSHB[ ]	/* 10 values pushed */
50 22 46 50 20 34 26 7 9 29 
CALL[ ]	/* CallFunction */";
};
width = 469;
}
);
note = dollar;
unicode = 36;
},
{
glyphname = percent;
layers = (
{
layerId = m01;
shapes = (
{
closed = 1;
nodes = (
(210,13,qs),
(501,543,ls),
(509,556,o),
(521,556,qs),
(545,556,ls),
(577,556,o),
(600,514,o),
(584,484,qs),
(324,13,ls),
(317,0,o),
(305,0,qs),
(217,0,ls),
(203,0,o)
);
},
{
closed = 1;
nodes = (
(715,162,qs),
(715,205,o),
(679,254,o),
(647,254,qs),
(616,254,o),
(582,206,o),
(582,162,qs),
(582,72,o),
(647,72,qs),
(715,72,o)
);
},
{
closed = 1;
nodes = (
(248,394,qs),
(248,437,o),
(212,486,o),
(180,486,qs),
(149,486,o),
(114,437,o),
(114,394,qs),
(114,303,o),
(180,303,qs),
(248,303,o)
);
},
{
closed = 1;
nodes = (
(542,33,qs),
(495,81,o),
(495,164,qs),
(495,235,o),
(532,281,qs),
(574,335,o),
(647,335,qs),
(711,335,o),
(753,293,qs),
(801,245,o),
(801,164,qs),
(801,93,o),
(764,45,qs),
(721,-9,o),
(647,-9,qs),
(584,-9,o)
);
},
{
closed = 1;
nodes = (
(75,265,qs),
(28,313,o),
(28,396,qs),
(28,467,o),
(65,513,qs),
(107,566,o),
(180,566,qs),
(244,566,o),
(286,525,qs),
(334,477,o),
(334,396,qs),
(334,324,o),
(297,277,qs),
(253,223,o),
(180,223,qs),
(116,223,o)
);
}
);
userData = {
assembly = "MPPEM[ ]	/* MeasurePixelPerEm */
PUSHB[ ]	/* 1 value pushed */
20 
LT[ ]	/* LessThan */
IF[ ]	/* If */
NPUSHB[ ]	/* 44 values pushed */
0 7 0 3 8 7 3 105 12 1 4 14 1 8 2 4 8 105 0 5 5 1 97 9 1 1 1 39 77 11 1 2 2 0 97 13 6 10 3 0 0 40 0 78 
ELSE[ ]	/* Else */
MPPEM[ ]	/* MeasurePixelPerEm */
PUSHB[ ]	/* 1 value pushed */
22 
LT[ ]	/* LessThan */
IF[ ]	/* If */
NPUSHB[ ]	/* 48 values pushed */
0 7 0 3 8 7 3 105 12 1 4 14 1 8 2 4 8 105 0 1 1 39 77 0 5 5 9 97 0 9 9 39 77 11 1 2 2 0 97 13 6 10 3 0 0 40 0 78 
ELSE[ ]	/* Else */
MPPEM[ ]	/* MeasurePixelPerEm */
PUSHB[ ]	/* 1 value pushed */
40 
LT[ ]	/* LessThan */
IF[ ]	/* If */
NPUSHB[ ]	/* 52 values pushed */
0 7 0 3 8 7 3 105 12 1 4 14 1 8 2 4 8 105 0 1 1 39 77 0 5 5 9 97 0 9 9 39 77 10 1 0 0 40 77 11 1 2 2 6 97 13 1 6 6 46 6 78 
ELSE[ ]	/* Else */
NPUSHB[ ]	/* 50 values pushed */
0 9 0 5 7 9 5 105 0 7 0 3 8 7 3 105 12 1 4 14 1 8 2 4 8 105 0 1 1 39 77 10 1 0 0 40 77 11 1 2 2 6 97 13 1 6 6 46 6 78 
EIF[ ]	/* EndIf */
EIF[ ]	/* EndIf */
EIF[ ]	/* EndIf */
NPUSHB[ ]	/* 43 values pushed */
50 49 34 33 24 23 14 13 2 0 58 56 49 64 50 64 42 40 33 48 34 48 29 27 23 32 24 32 19 17 13 22 14 22 9 6 0 12 2 12 15 9 22 
CALL[ ]	/* CallFunction */";
};
width = 829;
}
);
note = percent;
unicode = 37;
},
{
glyphname = ampersand;
layers = (
{
layerId = m01;
shapes = (
{
closed = 1;
nodes = (
(419,277,ls),
(428,290,o),
(443,290,qs),
(527,290,ls),
(532,290,o),
(536,282,o),
(533,277,qs),
(431,142,l),
(535,13,ls),
(538,9,o),
(534,0,o),
(529,0,qs),
(466,0,ls),
(401,0,o),
(369,42,qs),
(359,55,l),
(308,-8,o),
(212,-8,qs),
(136,-8,o),
(87,33,qs),
(32,78,o),
(32,152,qs),
(32,202,o),
(87,273,o),
(150,303,q),
(93,366,o),
(93,426,qs),
(93,485,o),
(135,523,qs),
(183,566,o),
(267,566,qs),
(344,566,o),
(390,535,qs),
(443,500,o),
(443,431,qs),
(443,352,o),
(314,279,q),
(370,214,l)
);
},
{
closed = 1;
nodes = (
(332,426,qs),
(332,451,o),
(297,481,o),
(270,481,qs),
(244,481,o),
(212,450,o),
(212,425,qs),
(212,390,o),
(259,347,q),
(332,384,o)
);
},
{
closed = 1;
nodes = (
(151,197,o),
(151,153,qs),
(151,124,o),
(192,85,o),
(223,85,qs),
(247,85,o),
(280,102,o),
(302,125,q),
(213,233,l)
);
}
);
userData = {
assembly = "MPPEM[ ]	/* MeasurePixelPerEm */
PUSHB[ ]	/* 1 value pushed */
24 
LT[ ]	/* LessThan */
IF[ ]	/* If */
NPUSHB[ ]	/* 16 values pushed */
12 1 3 4 56 37 29 3 5 3 21 1 1 5 3 76 
ELSE[ ]	/* Else */
NPUSHB[ ]	/* 16 values pushed */
12 1 3 4 56 37 29 3 5 3 21 1 2 5 3 76 
EIF[ ]	/* EndIf */
MPPEM[ ]	/* MeasurePixelPerEm */
PUSHB[ ]	/* 1 value pushed */
24 
LT[ ]	/* LessThan */
IF[ ]	/* If */
NPUSHB[ ]	/* 33 values pushed */
0 4 4 0 97 0 0 0 39 77 0 3 3 1 97 2 1 1 1 46 77 0 5 5 1 97 2 1 1 1 46 1 78 
ELSE[ ]	/* Else */
MPPEM[ ]	/* MeasurePixelPerEm */
PUSHB[ ]	/* 1 value pushed */
40 
LT[ ]	/* LessThan */
IF[ ]	/* If */
NPUSHB[ ]	/* 31 values pushed */
0 4 4 0 97 0 0 0 39 77 0 3 3 2 95 0 2 2 40 77 0 5 5 1 97 0 1 1 46 1 78 
ELSE[ ]	/* Else */
NPUSHB[ ]	/* 29 values pushed */
0 0 0 4 3 0 4 105 0 3 3 2 95 0 2 2 40 77 0 5 5 1 97 0 1 1 46 1 78 
EIF[ ]	/* EndIf */
EIF[ ]	/* EndIf */
NPUSHB[ ]	/* 9 values pushed */
38 39 55 35 43 37 6 9 28 
CALL[ ]	/* CallFunction */";
};
width = 555;
}
);
note = ampersand;
unicode = 38;
},
{
glyphname = quotesingle;
layers = (
{
layerId = m01;
shapes = (
{
closed = 1;
nodes = (
(23,556,o),
(37,556,qs),
(58,556,ls),
(108,556,o),
(139,517,o),
(133,462,qs),
(123,366,ls),
(122,353,o),
(110,353,qs),
(55,353,ls),
(43,353,o),
(42,366,qs),
(24,543,ls)
);
}
);
userData = {
assembly = "NPUSHB[ ]	/* 16 values pushed */
0 0 0 1 97 0 1 1 39 0 78 52 49 2 9 24 
CALL[ ]	/* CallFunction */";
};
width = 160;
}
);
note = quotesingle;
unicode = 39;
},
{
glyphname = parenleft;
layers = (
{
layerId = m01;
shapes = (
{
closed = 1;
nodes = (
(112,569,qs),
(181,680,o),
(281,693,qs),
(286,694,o),
(286,688,qs),
(286,678,ls),
(286,644,o),
(275,608,o),
(259,592,qs),
(251,585,o),
(248,581,qs),
(144,461,o),
(144,274,qs),
(144,87,o),
(248,-32,qs),
(251,-35,o),
(255,-40,q),
(275,-59,o),
(286,-93,o),
(286,-129,qs),
(286,-139,ls),
(286,-145,o),
(281,-144,qs),
(196,-133,o),
(131,-48,qs),
(40,70,o),
(40,274,qs),
(40,454,o)
);
}
);
userData = {
assembly = "PUSHB[ ]	/* 4 values pushed */
23 5 1 50 
CALL[ ]	/* CallFunction */";
};
width = 332;
}
);
note = parenleft;
unicode = 40;
},
{
glyphname = parenright;
layers = (
{
layerId = m01;
shapes = (
{
closed = 1;
nodes = (
(231,-21,qs),
(162,-131,o),
(62,-144,qs),
(57,-145,o),
(57,-139,qs),
(57,-129,ls),
(57,-95,o),
(68,-59,o),
(84,-43,qs),
(92,-36,o),
(96,-32,qs),
(199,87,o),
(199,274,qs),
(199,461,o),
(96,581,qs),
(93,584,o),
(88,589,qs),
(69,608,o),
(57,641,o),
(57,678,qs),
(57,688,ls),
(57,694,o),
(62,693,qs),
(147,682,o),
(212,597,qs),
(303,478,o),
(303,274,qs),
(303,94,o)
);
}
);
userData = {
assembly = "PUSHB[ ]	/* 4 values pushed */
23 5 1 50 
CALL[ ]	/* CallFunction */";
};
width = 348;
}
);
note = parenright;
unicode = 41;
},
{
glyphname = asterisk;
layers = (
{
layerId = m01;
shapes = (
{
closed = 1;
nodes = (
(25,384,o),
(30,399,qs),
(50,459,ls),
(54,471,o),
(66,467,qs),
(155,430,l),
(148,526,ls),
(147,539,o),
(161,539,qs),
(225,539,ls),
(239,539,o),
(238,526,qs),
(231,430,l),
(320,467,ls),
(331,471,o),
(336,459,qs),
(356,399,ls),
(361,384,o),
(348,382,q),
(256,359,l),
(318,284,ls),
(325,276,o),
(315,267,q),
(264,230,ls),
(252,222,o),
(246,233,qs),
(193,316,l),
(142,233,ls),
(135,221,o),
(124,230,qs),
(73,267,ls),
(62,275,o),
(70,284,qs),
(132,359,l),
(38,382,l)
);
}
);
userData = {
assembly = "PUSHB[ ]	/* 7 values pushed */
28 21 14 7 4 0 73 
MPPEM[ ]	/* MeasurePixelPerEm */
PUSHB[ ]	/* 1 value pushed */
24 
LT[ ]	/* LessThan */
IF[ ]	/* If */
PUSHB[ ]	/* 6 values pushed */
0 0 0 39 0 78 
ELSE[ ]	/* Else */
PUSHB[ ]	/* 4 values pushed */
0 0 0 118 
EIF[ ]	/* EndIf */
PUSHB[ ]	/* 5 values pushed */
26 23 1 9 22 
CALL[ ]	/* CallFunction */";
};
width = 380;
}
);
note = asterisk;
unicode = 42;
},
{
glyphname = plus;
layers = (
{
layerId = m01;
shapes = (
{
closed = 1;
nodes = (
(30,223,o),
(30,236,qs),
(30,305,ls),
(30,318,o),
(43,318,qs),
(165,318,l),
(165,449,ls),
(165,462,o),
(178,462,qs),
(226,462,o),
(267,424,o),
(267,379,qs),
(267,318,l),
(389,318,ls),
(402,318,o),
(402,305,qs),
(402,236,ls),
(402,223,o),
(389,223,qs),
(267,223,l),
(267,91,ls),
(267,79,o),
(254,79,qs),
(178,79,ls),
(165,79,o),
(165,91,qs),
(165,223,l),
(43,223,ls)
);
}
);
userData = {
assembly = "NPUSHB[ ]	/* 41 values pushed */
0 3 2 0 3 89 4 1 2 6 5 2 1 0 2 1 103 0 3 3 0 95 0 0 3 0 79 0 0 0 27 0 26 34 35 35 34 50 7 9 27 
CALL[ ]	/* CallFunction */";
};
width = 431;
}
);
note = plus;
unicode = 43;
},
{
glyphname = comma;
layers = (
{
layerId = m01;
shapes = (
{
closed = 1;
nodes = (
(20,34,o),
(20,60,qs),
(20,90,o),
(60,130,o),
(90,130,qs),
(120,130,o),
(157,91,o),
(157,60,qs),
(157,-31,o),
(62,-106,qs),
(54,-113,o),
(48,-106,qs),
(25,-80,o),
(48,-57,qs),
(73,-32,o),
(77,-9,q),
(51,-4,o)
);
}
);
userData = {
assembly = "PUSHB[ ]	/* 8 values pushed */
0 0 0 118 42 1 9 23 
CALL[ ]	/* CallFunction */";
};
width = 177;
}
);
note = comma;
unicode = 44;
},
{
glyphname = hyphen;
layers = (
{
layerId = m01;
shapes = (
{
closed = 1;
nodes = (
(30,162,qs),
(30,244,ls),
(30,257,o),
(43,257,qs),
(252,257,ls),
(265,257,o),
(265,244,qs),
(265,162,ls),
(265,149,o),
(252,149,qs),
(43,149,ls),
(30,149,o)
);
}
);
userData = {
assembly = "NPUSHB[ ]	/* 28 values pushed */
0 1 0 0 1 87 0 1 1 0 95 2 1 0 1 0 79 2 0 8 5 0 11 2 11 3 9 22 
CALL[ ]	/* CallFunction */";
};
width = 294;
}
);
note = hyphen;
unicode = 45;
},
{
glyphname = period;
layers = (
{
layerId = m01;
shapes = (
{
closed = 1;
nodes = (
(28,29,o),
(28,58,qs),
(28,87,o),
(68,127,o),
(96,127,qs),
(124,127,o),
(164,87,o),
(164,58,qs),
(164,29,o),
(124,-12,o),
(96,-12,qs),
(68,-12,o)
);
}
);
userData = {
assembly = "NPUSHB[ ]	/* 23 values pushed */
0 1 1 0 97 2 1 0 0 46 0 78 1 0 7 5 0 11 1 11 3 9 22 
CALL[ ]	/* CallFunction */";
};
width = 198;
}
);
note = period;
unicode = 46;
},
{
glyphname = slash;
layers = (
{
layerId = m01;
shapes = (
{
closed = 1;
nodes = (
(8,13,qs),
(232,543,ls),
(237,556,o),
(252,556,qs),
(266,556,ls),
(300,556,o),
(325,509,o),
(310,474,qs),
(115,13,ls),
(110,0,o),
(95,0,qs),
(16,0,ls),
(2,0,o)
);
}
);
userData = {
assembly = "NPUSHB[ ]	/* 23 values pushed */
0 1 1 39 77 2 1 0 0 40 0 78 2 0 9 6 0 12 2 12 3 9 22 
CALL[ ]	/* CallFunction */";
};
width = 314;
}
);
note = slash;
unicode = 47;
},
{
glyphname = zero;
layers = (
{
layerId = m01;
shapes = (
{
closed = 1;
nodes = (
(315,135,qs),
(338,174,o),
(338,277,qs),
(338,367,o),
(320,408,qs),
(299,457,o),
(244,457,qs),
(195,457,o),
(174,421,qs),
(150,381,o),
(150,277,qs),
(150,186,o),
(167,147,qs),
(188,99,o),
(244,99,qs),
(293,99,o)
);
},
{
closed = 1;
nodes = (
(31,277,qs),
(31,408,o),
(78,481,qs),
(132,566,o),
(244,566,qs),
(341,566,o),
(395,501,qs),
(457,426,o),
(457,277,qs),
(457,147,o),
(410,74,qs),
(356,-10,o),
(244,-10,qs),
(31,-10,o)
);
}
);
userData = {
assembly = "MPPEM[ ]	/* MeasurePixelPerEm */
PUSHB[ ]	/* 1 value pushed */
40 
LT[ ]	/* LessThan */
IF[ ]	/* If */
NPUSHB[ ]	/* 23 values pushed */
0 1 1 3 97 0 3 3 39 77 4 1 0 0 2 97 5 1 2 2 46 2 78 
ELSE[ ]	/* Else */
NPUSHB[ ]	/* 21 values pushed */
0 3 0 1 0 3 1 105 4 1 0 0 2 97 5 1 2 2 46 2 78 
EIF[ ]	/* EndIf */
NPUSHB[ ]	/* 19 values pushed */
17 16 1 0 25 23 16 29 17 29 9 7 0 15 1 15 6 9 22 
CALL[ ]	/* CallFunction */";
};
width = 489;
}
);
note = zero;
unicode = 48;
},
{
glyphname = one;
layers = (
{
layerId = m01;
shapes = (
{
closed = 1;
nodes = (
(43,409,ls),
(28,404,o),
(28,418,qs),
(28,506,ls),
(28,520,o),
(43,526,qs),
(99,546,ls),
(127,556,o),
(151,556,qs),
(176,556,ls),
(246,556,o),
(246,489,qs),
(246,106,l),
(287,106,ls),
(357,106,o),
(357,40,qs),
(357,17,ls),
(357,0,o),
(341,0,qs),
(40,0,ls),
(27,0,o),
(27,13,qs),
(27,93,ls),
(27,106,o),
(40,106,qs),
(130,106,l),
(130,441,l)
);
}
);
userData = {
assembly = "NPUSHB[ ]	/* 30 values pushed */
26 1 0 3 1 76 0 3 3 39 77 2 1 0 0 1 96 0 1 1 40 1 78 50 35 51 32 4 9 26 
CALL[ ]	/* CallFunction */";
};
width = 373;
}
);
note = one;
unicode = 49;
},
{
glyphname = two;
layers = (
{
layerId = m01;
shapes = (
{
closed = 1;
nodes = (
(428,106,o),
(428,42,qs),
(428,17,ls),
(428,0,o),
(412,0,qs),
(41,0,ls),
(28,0,o),
(28,13,qs),
(28,110,o),
(76,175,qs),
(108,219,o),
(178,264,qs),
(241,304,o),
(253,314,qs),
(300,352,o),
(300,400,qs),
(300,429,o),
(258,463,o),
(220,463,qs),
(155,463,o),
(85,427,qs),
(78,423,o),
(72,423,qs),
(65,423,o),
(62,432,qs),
(53,459,ls),
(32,523,o),
(97,545,qs),
(162,566,o),
(229,566,qs),
(309,566,o),
(358,533,qs),
(420,491,o),
(420,406,qs),
(420,341,o),
(379,289,qs),
(347,248,o),
(266,196,qs),
(213,160,o),
(177,126,o),
(173,106,q),
(358,106,ls)
);
}
);
userData = {
assembly = "MPPEM[ ]	/* MeasurePixelPerEm */
PUSHB[ ]	/* 1 value pushed */
40 
LT[ ]	/* LessThan */
IF[ ]	/* If */
NPUSHB[ ]	/* 30 values pushed */
0 1 2 4 2 1 4 128 0 2 2 0 97 0 0 0 39 77 5 1 4 4 3 95 0 3 3 40 3 78 
ELSE[ ]	/* Else */
NPUSHB[ ]	/* 28 values pushed */
0 1 2 4 2 1 4 128 0 0 0 2 1 0 2 105 5 1 4 4 3 95 0 3 3 40 3 78 
EIF[ ]	/* EndIf */
NPUSHB[ ]	/* 13 values pushed */
0 0 0 41 0 40 59 35 21 42 6 9 26 
CALL[ ]	/* CallFunction */";
};
width = 463;
}
);
note = two;
unicode = 50;
},
{
glyphname = three;
layers = (
{
layerId = m01;
shapes = (
{
closed = 1;
nodes = (
(420,166,qs),
(420,94,o),
(372,46,qs),
(314,-10,o),
(212,-10,qs),
(124,-10,o),
(70,34,qs),
(18,76,o),
(18,135,qs),
(18,161,o),
(36,161,qs),
(42,161,o),
(53,152,qs),
(123,92,o),
(203,92,qs),
(250,92,o),
(303,134,o),
(303,171,qs),
(303,230,o),
(225,230,qs),
(162,230,ls),
(127,230,o),
(97,256,o),
(97,287,qs),
(97,317,ls),
(97,336,o),
(112,336,qs),
(208,336,ls),
(284,336,o),
(284,401,qs),
(284,431,o),
(242,465,o),
(205,465,qs),
(141,465,o),
(73,429,qs),
(64,424,o),
(58,424,qs),
(51,424,o),
(48,433,qs),
(39,459,ls),
(18,523,o),
(83,545,qs),
(148,566,o),
(213,566,qs),
(289,566,o),
(339,534,qs),
(402,493,o),
(402,413,qs),
(402,375,o),
(360,310,o),
(323,291,q),
(420,262,o)
);
}
);
userData = {
assembly = "MPPEM[ ]	/* MeasurePixelPerEm */
PUSHB[ ]	/* 1 value pushed */
40 
LT[ ]	/* LessThan */
IF[ ]	/* If */
NPUSHB[ ]	/* 45 values pushed */
0 1 2 3 2 1 3 128 0 6 4 5 4 6 5 128 0 3 0 4 6 3 4 103 0 2 2 0 97 0 0 0 39 77 0 5 5 7 97 0 7 7 46 7 78 
ELSE[ ]	/* Else */
NPUSHB[ ]	/* 43 values pushed */
0 1 2 3 2 1 3 128 0 6 4 5 4 6 5 128 0 0 0 2 1 0 2 105 0 3 0 4 6 3 4 103 0 5 5 7 97 0 7 7 46 7 78 
EIF[ ]	/* EndIf */
NPUSHB[ ]	/* 11 values pushed */
36 34 35 52 51 35 21 38 8 9 30 
CALL[ ]	/* CallFunction */";
};
width = 451;
}
);
note = three;
unicode = 51;
},
{
glyphname = four;
layers = (
{
layerId = m01;
shapes = (
{
closed = 1;
nodes = (
(273,426,l),
(137,216,l),
(273,216,l)
);
},
{
closed = 1;
nodes = (
(11,109,o),
(11,122,qs),
(11,186,ls),
(11,200,o),
(21,217,qs),
(218,531,ls),
(234,556,o),
(262,556,qs),
(319,556,ls),
(389,556,o),
(389,489,qs),
(389,216,l),
(414,216,ls),
(484,216,o),
(484,149,qs),
(484,126,ls),
(484,109,o),
(468,109,qs),
(389,109,l),
(388,13,ls),
(388,0,o),
(376,0,qs),
(286,0,ls),
(273,0,o),
(273,13,qs),
(273,109,l),
(24,109,ls)
);
}
);
userData = {
assembly = "NPUSHB[ ]	/* 52 values pushed */
1 1 0 4 1 76 3 6 2 0 7 5 2 2 1 0 2 104 0 4 4 39 77 0 1 1 40 1 78 3 3 0 0 3 29 3 28 22 19 17 15 12 10 8 5 0 2 0 2 8 9 22 
CALL[ ]	/* CallFunction */";
};
width = 501;
}
);
note = four;
unicode = 52;
},
{
glyphname = five;
layers = (
{
layerId = m01;
shapes = (
{
closed = 1;
nodes = (
(200,368,o),
(238,368,qs),
(322,368,o),
(373,326,qs),
(430,278,o),
(430,190,qs),
(430,105,o),
(375,50,qs),
(314,-10,o),
(219,-10,qs),
(137,-10,o),
(82,28,qs),
(22,70,o),
(22,130,qs),
(22,157,o),
(40,157,qs),
(47,157,o),
(58,148,qs),
(122,92,o),
(206,92,qs),
(314,92,o),
(314,187,qs),
(314,223,o),
(256,266,o),
(207,266,qs),
(135,266,o),
(62,243,qs),
(46,239,o),
(46,254,qs),
(46,543,ls),
(46,556,o),
(59,556,qs),
(330,556,ls),
(400,556,o),
(400,489,qs),
(400,466,ls),
(400,449,o),
(384,449,qs),
(157,449,l),
(157,359,l)
);
}
);
userData = {
assembly = "PUSHB[ ]	/* 6 values pushed */
39 1 2 6 1 76 
MPPEM[ ]	/* MeasurePixelPerEm */
PUSHB[ ]	/* 1 value pushed */
28 
LT[ ]	/* LessThan */
IF[ ]	/* If */
NPUSHB[ ]	/* 39 values pushed */
0 4 2 3 2 4 3 128 0 0 0 1 95 0 1 1 39 77 0 2 2 6 97 0 6 6 42 77 0 3 3 5 97 0 5 5 46 5 78 
ELSE[ ]	/* Else */
NPUSHB[ ]	/* 37 values pushed */
0 4 2 3 2 4 3 128 0 6 0 2 4 6 2 105 0 0 0 1 95 0 1 1 39 77 0 3 3 5 97 0 5 5 46 5 78 
EIF[ ]	/* EndIf */
NPUSHB[ ]	/* 10 values pushed */
38 36 34 35 37 51 32 7 9 29 
CALL[ ]	/* CallFunction */";
};
width = 462;
}
);
note = five;
unicode = 53;
},
{
glyphname = six;
layers = (
{
layerId = m01;
shapes = (
{
closed = 1;
nodes = (
(205,93,o),
(249,93,qs),
(290,93,o),
(344,147,o),
(344,189,qs),
(344,232,o),
(289,288,o),
(247,288,qs),
(205,288,o),
(149,232,o),
(149,189,qs),
(149,147,o)
);
},
{
closed = 1;
nodes = (
(269,386,qs),
(349,386,o),
(402,334,qs),
(459,279,o),
(459,199,qs),
(459,115,o),
(410,58,qs),
(351,-10,o),
(250,-10,qs),
(161,-10,o),
(101,38,qs),
(32,94,o),
(32,186,qs),
(32,225,o),
(64,308,o),
(105,374,qs),
(216,555,ls),
(223,566,o),
(236,566,qs),
(274,566,o),
(289,535,qs),
(307,497,o),
(278,449,qs),
(238,383,l),
(254,386,o)
);
}
);
userData = {
assembly = "MPPEM[ ]	/* MeasurePixelPerEm */
PUSHB[ ]	/* 1 value pushed */
40 
LT[ ]	/* LessThan */
IF[ ]	/* If */
NPUSHB[ ]	/* 26 values pushed */
0 2 2 39 77 0 0 0 4 97 0 4 4 42 77 0 1 1 3 97 0 3 3 46 3 78 
ELSE[ ]	/* Else */
NPUSHB[ ]	/* 26 values pushed */
0 2 4 2 133 0 0 0 4 97 0 4 4 42 77 0 1 1 3 97 0 3 3 46 3 78 
EIF[ ]	/* EndIf */
PUSHB[ ]	/* 8 values pushed */
38 40 38 36 34 5 9 27 
CALL[ ]	/* CallFunction */";
};
width = 486;
}
);
note = six;
unicode = 54;
},
{
glyphname = seven;
layers = (
{
layerId = m01;
shapes = (
{
closed = 1;
nodes = (
(20,449,o),
(20,462,qs),
(20,543,ls),
(20,556,o),
(33,556,qs),
(319,556,ls),
(389,556,o),
(389,489,qs),
(389,476,ls),
(389,448,o),
(376,419,qs),
(195,13,ls),
(189,0,o),
(176,0,qs),
(79,0,ls),
(73,0,o),
(68,8,o),
(71,13,q),
(266,449,l),
(33,449,ls)
);
}
);
userData = {
assembly = "NPUSHB[ ]	/* 28 values pushed */
3 1 2 2 1 95 0 1 1 39 77 0 0 0 40 0 78 0 0 0 19 0 18 54 51 4 9 24 
CALL[ ]	/* CallFunction */";
};
width = 418;
}
);
note = seven;
unicode = 55;
},
{
glyphname = eight;
layers = (
{
layerId = m01;
shapes = (
{
closed = 1;
nodes = (
(200,83,o),
(245,83,qs),
(289,83,o),
(345,126,o),
(345,160,qs),
(345,240,o),
(245,240,qs),
(144,240,o),
(144,160,qs),
(144,126,o)
);
},
{
closed = 1;
nodes = (
(203,333,o),
(245,333,qs),
(287,333,o),
(335,371,o),
(335,403,qs),
(335,436,o),
(286,474,o),
(245,474,qs),
(203,474,o),
(154,436,o),
(154,403,qs),
(154,371,o)
);
},
{
closed = 1;
nodes = (
(40,417,qs),
(40,481,o),
(90,521,qs),
(146,566,o),
(245,566,qs),
(330,566,o),
(385,532,qs),
(449,491,o),
(449,417,qs),
(449,329,o),
(366,290,q),
(462,256,o),
(462,159,qs),
(462,90,o),
(413,45,qs),
(354,-10,o),
(245,-10,qs),
(149,-10,o),
(91,33,qs),
(27,80,o),
(27,159,qs),
(27,256,o),
(123,290,q),
(40,329,o)
);
}
);
userData = {
assembly = "PUSHB[ ]	/* 6 values pushed */
34 1 0 3 1 76 
MPPEM[ ]	/* MeasurePixelPerEm */
PUSHB[ ]	/* 1 value pushed */
40 
LT[ ]	/* LessThan */
IF[ ]	/* If */
NPUSHB[ ]	/* 29 values pushed */
0 3 0 0 1 3 0 105 0 2 2 5 97 0 5 5 39 77 0 1 1 4 97 0 4 4 46 4 78 
ELSE[ ]	/* Else */
NPUSHB[ ]	/* 27 values pushed */
0 5 0 2 3 5 2 105 0 3 0 0 1 3 0 105 0 1 1 4 97 0 4 4 46 4 78 
EIF[ ]	/* EndIf */
NPUSHB[ ]	/* 9 values pushed */
42 39 36 36 35 33 6 9 28 
CALL[ ]	/* CallFunction */";
};
width = 489;
}
);
note = eight;
unicode = 56;
},
{
glyphname = nine;
layers = (
{
layerId = m01;
shapes = (
{
closed = 1;
nodes = (
(337,324,o),
(337,367,qs),
(337,409,o),
(281,462,o),
(238,462,qs),
(196,462,o),
(142,408,o),
(142,367,qs),
(142,322,o),
(195,267,o),
(240,267,qs),
(282,267,o)
);
},
{
closed = 1;
nodes = (
(213,170,qs),
(134,170,o),
(82,221,qs),
(27,275,o),
(27,353,qs),
(27,440,o),
(79,498,qs),
(139,565,o),
(240,565,qs),
(329,565,o),
(387,518,qs),
(454,463,o),
(454,370,qs),
(454,331,o),
(423,248,o),
(383,183,qs),
(272,3,ls),
(264,-10,o),
(251,-10,qs),
(212,-10,o),
(198,23,qs),
(180,61,o),
(209,107,qs),
(250,174,l),
(230,170,o)
);
}
);
userData = {
assembly = "MPPEM[ ]	/* MeasurePixelPerEm */
PUSHB[ ]	/* 1 value pushed */
44 
LT[ ]	/* LessThan */
IF[ ]	/* If */
NPUSHB[ ]	/* 25 values pushed */
5 1 0 0 4 2 0 4 105 0 1 1 3 97 0 3 3 39 77 0 2 2 46 2 78 
ELSE[ ]	/* Else */
NPUSHB[ ]	/* 23 values pushed */
0 3 0 1 0 3 1 105 5 1 0 0 4 2 0 4 105 0 2 2 46 2 78 
EIF[ ]	/* EndIf */
NPUSHB[ ]	/* 17 values pushed */
1 0 36 34 28 26 18 16 7 5 0 11 1 11 6 9 22 
CALL[ ]	/* CallFunction */";
};
width = 486;
}
);
note = nine;
unicode = 57;
},
{
glyphname = colon;
layers = (
{
layerId = m01;
shapes = (
{
closed = 1;
nodes = (
(130,211,o),
(101,211,qs),
(72,211,o),
(34,251,o),
(34,280,qs),
(34,311,o),
(71,349,o),
(101,349,qs),
(130,349,o),
(169,311,o),
(169,280,qs),
(169,251,o)
);
},
{
closed = 1;
nodes = (
(33,29,o),
(33,58,qs),
(33,87,o),
(73,127,o),
(101,127,qs),
(129,127,o),
(169,87,o),
(169,58,qs),
(169,29,o),
(129,-12,o),
(101,-12,qs),
(73,-12,o)
);
}
);
userData = {
assembly = "NPUSHB[ ]	/* 33 values pushed */
0 0 0 1 3 0 1 105 0 3 3 2 97 4 1 2 2 46 2 78 13 12 19 17 12 23 13 23 36 34 5 9 24 
CALL[ ]	/* CallFunction */";
};
width = 209;
}
);
note = colon;
unicode = 58;
},
{
glyphname = semicolon;
layers = (
{
layerId = m01;
shapes = (
{
closed = 1;
nodes = (
(70,359,o),
(100,359,qs),
(129,359,o),
(167,319,o),
(167,288,qs),
(167,258,o),
(129,219,o),
(100,219,qs),
(70,219,o),
(30,258,o),
(30,288,qs),
(30,318,o)
);
},
{
closed = 1;
nodes = (
(30,34,o),
(30,60,qs),
(30,90,o),
(70,130,o),
(100,130,qs),
(130,130,o),
(167,91,o),
(167,60,qs),
(167,-31,o),
(72,-106,qs),
(64,-113,o),
(58,-106,qs),
(35,-80,o),
(58,-57,qs),
(83,-32,o),
(87,-9,q),
(61,-4,o)
);
}
);
userData = {
assembly = "NPUSHB[ ]	/* 27 values pushed */
0 2 0 2 134 0 1 0 0 1 89 0 1 1 0 97 0 0 1 0 81 44 36 34 3 9 25 
CALL[ ]	/* CallFunction */";
};
width = 198;
}
);
note = semicolon;
unicode = 59;
},
{
glyphname = less;
layers = (
{
layerId = m01;
shapes = (
{
closed = 1;
nodes = (
(383,179,o),
(418,125,o),
(418,74,qs),
(418,72,ls),
(418,59,o),
(406,65,qs),
(43,224,ls),
(30,229,o),
(30,244,qs),
(30,296,ls),
(30,309,o),
(43,315,qs),
(403,473,l),
(408,476,o),
(418,472,o),
(418,466,qs),
(418,393,ls),
(418,376,o),
(403,370,qs),
(167,269,l),
(337,198,ls)
);
}
);
userData = {
assembly = "PUSHB[ ]	/* 4 values pushed */
15 6 1 50 
CALL[ ]	/* CallFunction */";
};
width = 452;
}
);
note = less;
unicode = 60;
},
{
glyphname = equal;
layers = (
{
layerId = m01;
shapes = (
{
closed = 1;
nodes = (
(30,408,o),
(43,408,qs),
(332,408,ls),
(402,408,o),
(402,342,qs),
(402,326,ls),
(402,313,o),
(389,313,qs),
(43,313,ls),
(30,313,o),
(30,326,qs),
(30,396,ls)
);
},
{
closed = 1;
nodes = (
(30,228,o),
(43,228,qs),
(332,228,ls),
(402,228,o),
(402,161,qs),
(402,145,ls),
(402,132,o),
(389,132,qs),
(43,132,ls),
(30,132,o),
(30,145,qs),
(30,215,ls)
);
}
);
userData = {
assembly = "NPUSHB[ ]	/* 31 values pushed */
0 1 0 0 3 1 0 103 0 3 2 2 3 87 0 3 3 2 95 0 2 3 2 79 51 51 51 49 4 9 26 
CALL[ ]	/* CallFunction */";
};
width = 431;
}
);
note = equal;
unicode = 61;
},
{
glyphname = greater;
layers = (
{
layerId = m01;
shapes = (
{
closed = 1;
nodes = (
(35,376,o),
(35,393,qs),
(35,466,ls),
(35,472,o),
(44,476,o),
(50,473,qs),
(410,315,ls),
(423,309,o),
(423,296,qs),
(423,244,ls),
(423,229,o),
(410,224,qs),
(47,65,ls),
(35,59,o),
(35,72,qs),
(35,74,ls),
(35,125,o),
(70,179,o),
(115,198,qs),
(285,269,l),
(50,370,ls)
);
}
);
userData = {
assembly = "PUSHB[ ]	/* 4 values pushed */
15 6 1 50 
CALL[ ]	/* CallFunction */";
};
width = 452;
}
);
note = greater;
unicode = 62;
},
{
glyphname = question;
layers = (
{
layerId = m01;
shapes = (
{
closed = 1;
nodes = (
(146,130,o),
(176,130,qs),
(205,130,o),
(244,90,o),
(244,60,qs),
(244,29,o),
(205,-10,o),
(176,-10,qs),
(146,-10,o),
(106,30,o),
(106,60,qs),
(106,90,o)
);
},
{
closed = 1;
nodes = (
(126,255,o),
(185,305,qs),
(234,346,o),
(257,378,o),
(257,402,qs),
(257,461,o),
(185,461,qs),
(126,461,o),
(55,425,qs),
(47,421,o),
(42,421,qs),
(35,421,o),
(32,430,qs),
(24,456,ls),
(13,489,o),
(33,529,o),
(67,543,qs),
(125,566,o),
(188,566,qs),
(266,566,o),
(317,535,qs),
(379,496,o),
(379,422,qs),
(379,365,o),
(346,319,qs),
(317,279,o),
(240,222,qs),
(222,208,o),
(222,190,qs),
(222,176,ls),
(222,163,o),
(209,163,qs),
(139,163,ls),
(126,163,o),
(126,176,qs),
(126,206,ls)
);
}
);
userData = {
assembly = "MPPEM[ ]	/* MeasurePixelPerEm */
PUSHB[ ]	/* 1 value pushed */
40 
LT[ ]	/* LessThan */
IF[ ]	/* If */
NPUSHB[ ]	/* 36 values pushed */
0 4 5 2 5 4 2 128 0 2 1 5 2 1 126 0 5 5 3 97 0 3 3 39 77 0 1 1 0 97 0 0 0 46 0 78 
ELSE[ ]	/* Else */
NPUSHB[ ]	/* 34 values pushed */
0 4 5 2 5 4 2 128 0 2 1 5 2 1 126 0 3 0 5 4 3 5 105 0 1 1 0 97 0 0 0 46 0 78 
EIF[ ]	/* EndIf */
NPUSHB[ ]	/* 9 values pushed */
35 22 43 51 36 34 6 9 28 
CALL[ ]	/* CallFunction */";
};
width = 402;
}
);
note = question;
unicode = 63;
},
{
glyphname = at;
layers = (
{
layerId = m01;
shapes = (
{
closed = 1;
nodes = (
(335,29,qs),
(276,29,o),
(236,72,qs),
(187,124,o),
(187,214,qs),
(187,287,o),
(230,341,qs),
(281,405,o),
(360,405,qs),
(395,405,o),
(452,373,o),
(463,347,q),
(482,400,o),
(550,400,qs),
(551,400,ls),
(563,400,o),
(562,386,qs),
(540,164,ls),
(538,148,o),
(538,138,qs),
(538,117,o),
(555,117,qs),
(583,117,o),
(603,147,qs),
(630,186,o),
(630,256,qs),
(630,358,o),
(572,417,qs),
(509,482,o),
(392,482,qs),
(288,482,o),
(216,416,qs),
(134,340,o),
(134,221,qs),
(134,98,o),
(202,25,qs),
(276,-56,o),
(408,-56,qs),
(535,-56,o),
(624,9,qs),
(635,17,o),
(642,17,qs),
(651,17,o),
(651,5,qs),
(651,-36,o),
(597,-80,qs),
(521,-142,o),
(399,-142,qs),
(245,-142,o),
(147,-56,qs),
(35,43,o),
(35,218,qs),
(35,355,o),
(128,455,qs),
(234,568,o),
(394,568,qs),
(520,568,o),
(611,499,qs),
(725,413,o),
(725,261,qs),
(725,174,o),
(675,107,qs),
(616,29,o),
(530,29,qs),
(499,29,o),
(453,67,o),
(450,94,q),
(411,29,o)
);
},
{
closed = 1;
nodes = (
(443,186,o),
(443,236,qs),
(443,269,o),
(408,307,o),
(377,307,qs),
(342,307,o),
(297,252,o),
(297,209,qs),
(297,172,o),
(335,127,o),
(365,127,qs),
(401,127,o)
);
}
);
userData = {
assembly = "PUSHB[ ]	/* 6 values pushed */
55 1 11 7 1 76 
MPPEM[ ]	/* MeasurePixelPerEm */
PUSHB[ ]	/* 1 value pushed */
20 
LT[ ]	/* LessThan */
IF[ ]	/* If */
NPUSHB[ ]	/* 51 values pushed */
0 3 0 4 0 3 4 128 12 10 2 6 9 1 0 3 6 0 106 0 5 5 1 97 0 1 1 39 77 0 11 11 7 97 8 1 7 7 48 77 0 4 4 2 97 0 2 2 44 2 78 
ELSE[ ]	/* Else */
MPPEM[ ]	/* MeasurePixelPerEm */
PUSHB[ ]	/* 1 value pushed */
22 
LT[ ]	/* LessThan */
IF[ ]	/* If */
NPUSHB[ ]	/* 56 values pushed */
0 3 0 4 0 3 4 128 12 1 10 6 0 10 89 0 6 9 1 0 3 6 0 106 0 5 5 1 97 0 1 1 39 77 0 11 11 7 97 8 1 7 7 48 77 0 4 4 2 97 0 2 2 44 2 78 
ELSE[ ]	/* Else */
MPPEM[ ]	/* MeasurePixelPerEm */
PUSHB[ ]	/* 1 value pushed */
34 
LT[ ]	/* LessThan */
IF[ ]	/* If */
NPUSHB[ ]	/* 53 values pushed */
0 3 0 4 0 3 4 128 12 1 10 6 0 10 89 0 6 9 1 0 3 6 0 106 0 4 0 2 4 2 101 0 5 5 1 97 0 1 1 39 77 0 11 11 7 97 8 1 7 7 48 11 78 
ELSE[ ]	/* Else */
MPPEM[ ]	/* MeasurePixelPerEm */
PUSHB[ ]	/* 1 value pushed */
36 
LT[ ]	/* LessThan */
IF[ ]	/* If */
NPUSHB[ ]	/* 51 values pushed */
0 3 0 4 0 3 4 128 0 1 0 5 7 1 5 105 12 1 10 6 0 10 89 0 6 9 1 0 3 6 0 106 0 4 0 2 4 2 101 0 11 11 7 97 8 1 7 7 48 11 78 
ELSE[ ]	/* Else */
NPUSHB[ ]	/* 53 values pushed */
0 3 0 4 0 3 4 128 0 1 0 5 8 1 5 105 0 8 0 11 10 8 11 105 12 1 10 6 0 10 89 0 6 9 1 0 3 6 0 106 0 4 0 2 4 2 101 0 7 7 48 7 78 
EIF[ ]	/* EndIf */
EIF[ ]	/* EndIf */
EIF[ ]	/* EndIf */
EIF[ ]	/* EndIf */
NPUSHB[ ]	/* 22 values pushed */
69 68 75 73 68 79 69 79 67 65 35 53 38 38 34 36 38 38 34 13 9 31 
CALL[ ]	/* CallFunction */";
};
width = 759;
}
);
note = at;
unicode = 64;
},
{
glyphname = A;
kernLeft = A;
kernRight = A;
layers = (
{
layerId = m01;
shapes = (
{
closed = 1;
nodes = (
(264,415,l),
(202,228,l),
(327,228,l)
);
},
{
closed = 1;
nodes = (
(124,0,o),
(113,0,qs),
(19,0,ls),
(6,0,o),
(10,13,qs),
(196,545,ls),
(200,556,o),
(211,556,qs),
(255,556,ls),
(299,556,o),
(344,518,o),
(363,466,qs),
(525,13,ls),
(529,0,o),
(515,0,qs),
(419,0,ls),
(404,0,o),
(400,13,qs),
(361,128,l),
(167,128,l),
(128,13,ls)
);
}
);
userData = {
assembly = "NPUSHB[ ]	/* 44 values pushed */
1 1 0 3 1 76 5 1 0 0 1 2 0 1 104 0 3 3 39 77 4 1 2 2 40 2 78 0 0 22 19 16 13 9 6 4 3 0 2 0 2 6 9 22 
CALL[ ]	/* CallFunction */";
};
width = 530;
}
);
note = A;
unicode = 65;
},
{
glyphname = B;
layers = (
{
layerId = m01;
shapes = (
{
closed = 1;
nodes = (
(305,101,o),
(341,133,o),
(341,170,qs),
(341,202,o),
(299,240,o),
(263,240,qs),
(168,240,l),
(168,101,l),
(262,101,ls)
);
},
{
closed = 1;
nodes = (
(325,338,o),
(325,398,qs),
(325,454,o),
(261,454,qs),
(168,454,l),
(168,338,l),
(265,338,ls)
);
},
{
closed = 1;
nodes = (
(462,203,o),
(462,157,qs),
(462,0,o),
(276,0,qs),
(64,0,ls),
(51,0,o),
(51,13,qs),
(51,543,ls),
(51,556,o),
(64,556,qs),
(257,556,ls),
(341,556,o),
(388,522,qs),
(443,484,o),
(443,407,qs),
(443,323,o),
(358,287,q),
(406,273,o)
);
}
);
userData = {
assembly = "NPUSHB[ ]	/* 53 values pushed */
7 1 3 0 0 1 3 0 103 0 2 2 4 95 0 4 4 39 77 6 1 1 1 5 95 0 5 5 40 5 78 9 9 0 0 30 27 24 21 9 15 9 14 12 10 0 8 0 7 33 8 9 23 
CALL[ ]	/* CallFunction */";
};
width = 486;
}
);
note = B;
unicode = 66;
},
{
glyphname = C;
kernLeft = C;
kernRight = C;
layers = (
{
layerId = m01;
shapes = (
{
closed = 1;
nodes = (
(120,57,qs),
(39,135,o),
(39,275,qs),
(39,400,o),
(106,478,qs),
(180,566,o),
(307,566,qs),
(377,566,o),
(434,544,qs),
(465,531,o),
(484,492,o),
(476,457,qs),
(469,428,ls),
(466,415,o),
(456,415,qs),
(450,415,o),
(440,420,qs),
(399,440,o),
(347,454,o),
(311,454,qs),
(247,454,o),
(208,417,qs),
(160,370,o),
(160,275,qs),
(160,196,o),
(199,150,qs),
(241,101,o),
(316,101,qs),
(395,101,o),
(459,160,qs),
(468,169,o),
(477,169,qs),
(495,169,o),
(495,142,qs),
(495,96,o),
(458,53,qs),
(404,-10,o),
(301,-10,qs),
(190,-10,o)
);
}
);
userData = {
assembly = "MPPEM[ ]	/* MeasurePixelPerEm */
PUSHB[ ]	/* 1 value pushed */
40 
LT[ ]	/* LessThan */
IF[ ]	/* If */
NPUSHB[ ]	/* 37 values pushed */
0 4 3 1 3 4 1 128 0 1 2 3 1 2 126 0 3 3 5 97 0 5 5 39 77 0 2 2 0 97 6 1 0 0 46 0 78 
ELSE[ ]	/* Else */
NPUSHB[ ]	/* 35 values pushed */
0 4 3 1 3 4 1 128 0 1 2 3 1 2 126 0 5 0 3 4 5 3 105 0 2 2 0 97 6 1 0 0 46 0 78 
EIF[ ]	/* EndIf */
NPUSHB[ ]	/* 19 values pushed */
1 0 32 30 24 22 19 17 11 9 7 5 0 38 1 38 7 9 22 
CALL[ ]	/* CallFunction */";
};
width = 510;
}
);
note = C;
unicode = 67;
},
{
glyphname = D;
layers = (
{
layerId = m01;
shapes = (
{
closed = 1;
nodes = (
(307,108,o),
(349,146,qs),
(399,191,o),
(399,282,qs),
(399,447,o),
(231,447,qs),
(168,447,l),
(168,108,l),
(235,108,ls)
);
},
{
closed = 1;
nodes = (
(51,13,qs),
(51,543,ls),
(51,556,o),
(64,556,qs),
(231,556,ls),
(346,556,o),
(418,508,qs),
(521,441,o),
(521,286,qs),
(521,0,o),
(223,0,qs),
(64,0,ls),
(51,0,o)
);
}
);
userData = {
assembly = "NPUSHB[ ]	/* 41 values pushed */
0 0 0 3 95 0 3 3 39 77 4 1 1 1 2 95 5 1 2 2 40 2 78 11 9 0 0 18 15 9 21 11 21 0 8 0 7 33 6 9 23 
CALL[ ]	/* CallFunction */";
};
width = 560;
}
);
note = D;
unicode = 68;
},
{
glyphname = E;
kernRight = E;
layers = (
{
layerId = m01;
shapes = (
{
closed = 1;
nodes = (
(401,108,o),
(401,42,qs),
(401,17,ls),
(401,0,o),
(385,0,qs),
(64,0,ls),
(51,0,o),
(51,13,qs),
(51,543,ls),
(51,556,o),
(64,556,qs),
(323,556,ls),
(393,556,o),
(393,489,qs),
(393,464,ls),
(393,447,o),
(377,447,qs),
(168,447,l),
(168,334,l),
(303,334,ls),
(373,334,o),
(373,267,qs),
(373,242,ls),
(373,226,o),
(357,226,qs),
(168,226,l),
(168,108,l),
(331,108,ls)
);
}
);
userData = {
assembly = "NPUSHB[ ]	/* 44 values pushed */
0 1 0 0 5 1 0 103 0 2 2 3 95 0 3 3 39 77 6 1 5 5 4 95 0 4 4 40 4 78 0 0 0 27 0 26 51 51 33 35 33 7 9 27 
CALL[ ]	/* CallFunction */";
};
width = 423;
}
);
note = E;
unicode = 69;
},
{
glyphname = F;
layers = (
{
layerId = m01;
shapes = (
{
closed = 1;
nodes = (
(168,0,o),
(155,0,qs),
(64,0,ls),
(51,0,o),
(51,13,qs),
(51,543,ls),
(51,556,o),
(64,556,qs),
(323,556,ls),
(393,556,o),
(393,489,qs),
(393,464,ls),
(393,447,o),
(377,447,qs),
(168,447,l),
(168,329,l),
(299,329,ls),
(369,329,o),
(369,262,qs),
(369,238,ls),
(369,221,o),
(353,221,qs),
(168,221,l),
(168,13,ls)
);
}
);
userData = {
assembly = "NPUSHB[ ]	/* 32 values pushed */
0 1 0 0 4 1 0 103 0 2 2 3 95 0 3 3 39 77 0 4 4 40 4 78 51 51 33 35 32 5 9 27 
CALL[ ]	/* CallFunction */";
};
width = 410;
}
);
note = F;
unicode = 70;
},
{
glyphname = G;
layers = (
{
layerId = m01;
shapes = (
{
closed = 1;
nodes = (
(356,205,ls),
(286,205,o),
(286,271,qs),
(286,296,ls),
(286,313,o),
(302,313,qs),
(506,313,ls),
(522,313,o),
(522,296,qs),
(522,91,ls),
(522,64,o),
(499,48,qs),
(454,16,o),
(371,-10,o),
(315,-10,qs),
(203,-10,o),
(132,46,qs),
(39,120,o),
(39,280,qs),
(39,404,o),
(105,480,qs),
(181,566,o),
(320,566,qs),
(392,566,o),
(451,547,qs),
(484,536,o),
(504,496,o),
(495,461,qs),
(488,433,ls),
(485,420,o),
(475,420,qs),
(469,420,o),
(459,425,qs),
(393,455,o),
(330,455,qs),
(163,455,o),
(163,272,qs),
(163,196,o),
(197,151,qs),
(237,100,o),
(313,100,qs),
(366,100,o),
(410,126,q),
(410,205,l)
);
}
);
userData = {
assembly = "PUSHB[ ]	/* 6 values pushed */
0 1 0 6 1 76 
MPPEM[ ]	/* MeasurePixelPerEm */
PUSHB[ ]	/* 1 value pushed */
40 
LT[ ]	/* LessThan */
IF[ ]	/* If */
NPUSHB[ ]	/* 37 values pushed */
0 2 1 5 1 2 5 128 0 5 0 6 0 5 6 105 0 1 1 3 97 0 3 3 39 77 0 0 0 4 97 0 4 4 46 4 78 
ELSE[ ]	/* Else */
NPUSHB[ ]	/* 35 values pushed */
0 2 1 5 1 2 5 128 0 3 0 1 2 3 1 105 0 5 0 6 0 5 6 105 0 0 0 4 97 0 4 4 46 4 78 
EIF[ ]	/* EndIf */
NPUSHB[ ]	/* 10 values pushed */
35 54 38 38 34 36 33 7 9 29 
CALL[ ]	/* CallFunction */";
};
width = 560;
}
);
note = G;
unicode = 71;
},
{
glyphname = H;
layers = (
{
layerId = m01;
shapes = (
{
closed = 1;
nodes = (
(168,0,o),
(155,0,qs),
(64,0,ls),
(51,0,o),
(51,13,qs),
(51,543,ls),
(51,556,o),
(64,556,qs),
(74,556,ls),
(124,556,o),
(168,508,o),
(168,455,qs),
(168,329,l),
(365,329,l),
(365,543,ls),
(365,556,o),
(378,556,qs),
(388,556,ls),
(438,556,o),
(482,508,o),
(482,455,qs),
(482,13,ls),
(482,0,o),
(469,0,qs),
(378,0,ls),
(365,0,o),
(365,13,qs),
(365,221,l),
(168,221,l),
(168,13,ls)
);
}
);
userData = {
assembly = "NPUSHB[ ]	/* 30 values pushed */
0 3 0 0 1 3 0 103 4 1 2 2 39 77 5 1 1 1 40 1 78 51 51 18 52 50 16 6 9 28 
CALL[ ]	/* CallFunction */";
};
width = 533;
}
);
note = H;
unicode = 72;
},
{
glyphname = I;
kernRight = I;
layers = (
{
layerId = m01;
shapes = (
{
closed = 1;
nodes = (
(51,556,o),
(64,556,qs),
(74,556,ls),
(124,556,o),
(168,508,o),
(168,455,qs),
(168,13,ls),
(168,0,o),
(155,0,qs),
(64,0,ls),
(51,0,o),
(51,13,qs),
(51,543,ls)
);
}
);
userData = {
assembly = "NPUSHB[ ]	/* 16 values pushed */
0 1 1 39 77 0 0 0 40 0 78 52 49 2 9 24 
CALL[ ]	/* CallFunction */";
};
width = 219;
}
);
note = I;
unicode = 73;
},
{
glyphname = J;
layers = (
{
layerId = m01;
shapes = (
{
closed = 1;
nodes = (
(18,112,qs),
(22,112,o),
(27,109,qs),
(59,87,o),
(87,87,qs),
(151,87,o),
(151,151,qs),
(151,543,ls),
(151,556,o),
(164,556,qs),
(174,556,ls),
(224,556,o),
(268,508,o),
(268,455,qs),
(268,147,ls),
(268,76,o),
(235,36,qs),
(197,-10,o),
(122,-10,qs),
(75,-10,o),
(42,15,qs),
(4,44,o),
(4,91,qs),
(4,112,o)
);
}
);
userData = {
assembly = "NPUSHB[ ]	/* 31 values pushed */
0 3 1 2 1 3 2 128 0 1 1 39 77 0 2 2 0 98 0 0 0 46 0 78 34 35 54 35 4 9 26 
CALL[ ]	/* CallFunction */";
};
width = 317;
}
);
note = J;
unicode = 74;
},
{
glyphname = K;
layers = (
{
layerId = m01;
shapes = (
{
closed = 1;
nodes = (
(168,0,o),
(155,0,qs),
(64,0,ls),
(51,0,o),
(51,13,qs),
(51,543,ls),
(51,556,o),
(64,556,qs),
(74,556,ls),
(124,556,o),
(168,508,o),
(168,455,qs),
(168,329,l),
(346,543,ls),
(358,556,o),
(369,556,qs),
(468,556,ls),
(474,556,o),
(478,547,o),
(474,543,qs),
(307,344,l),
(503,13,ls),
(510,0,o),
(496,0,qs),
(389,0,ls),
(374,0,o),
(367,13,qs),
(227,248,l),
(168,179,l),
(168,13,ls)
);
}
);
userData = {
assembly = "NPUSHB[ ]	/* 29 values pushed */
16 8 1 0 4 0 1 1 76 2 1 1 1 39 77 3 1 0 0 40 0 78 51 53 53 51 4 9 26 
CALL[ ]	/* CallFunction */";
};
width = 514;
}
);
note = K;
unicode = 75;
},
{
glyphname = L;
layers = (
{
layerId = m01;
shapes = (
{
closed = 1;
nodes = (
(370,108,o),
(370,42,qs),
(370,17,ls),
(370,0,o),
(354,0,qs),
(64,0,ls),
(51,0,o),
(51,13,qs),
(51,543,ls),
(51,556,o),
(64,556,qs),
(74,556,ls),
(124,556,o),
(168,508,o),
(168,455,qs),
(168,108,l),
(300,108,ls)
);
}
);
userData = {
assembly = "NPUSHB[ ]	/* 28 values pushed */
0 0 0 39 77 3 1 2 2 1 96 0 1 1 40 1 78 0 0 0 16 0 15 51 51 4 9 24 
CALL[ ]	/* CallFunction */";
};
width = 384;
}
);
note = L;
unicode = 76;
},
{
glyphname = M;
layers = (
{
layerId = m01;
shapes = (
{
closed = 1;
nodes = (
(428,556,o),
(440,556,qs),
(521,556,ls),
(554,556,o),
(598,518,o),
(599,488,qs),
(625,13,ls),
(625,0,o),
(615,0,qs),
(522,0,ls),
(510,0,o),
(510,13,qs),
(490,387,l),
(389,13,ls),
(386,0,o),
(373,0,qs),
(283,0,ls),
(272,0,o),
(269,13,qs),
(170,388,l),
(150,13,ls),
(150,0,o),
(139,0,qs),
(45,0,ls),
(34,0,o),
(34,13,qs),
(65,543,ls),
(65,556,o),
(77,556,qs),
(156,556,ls),
(197,556,o),
(238,532,o),
(245,504,qs),
(329,179,l),
(425,543,ls)
);
}
);
userData = {
assembly = "NPUSHB[ ]	/* 29 values pushed */
21 14 2 1 0 1 76 4 1 0 0 39 77 3 2 2 1 1 40 1 78 52 52 52 51 51 5 9 27 
CALL[ ]	/* CallFunction */";
};
width = 659;
}
);
note = M;
unicode = 77;
},
{
glyphname = N;
kernRight = N;
layers = (
{
layerId = m01;
shapes = (
{
closed = 1;
nodes = (
(168,0,o),
(155,0,qs),
(64,0,ls),
(51,0,o),
(51,13,qs),
(51,543,ls),
(51,556,o),
(64,556,qs),
(104,556,ls),
(137,556,o),
(177,533,o),
(195,504,qs),
(371,218,l),
(371,543,ls),
(371,556,o),
(384,556,qs),
(394,556,ls),
(444,556,o),
(488,508,o),
(488,455,qs),
(488,13,ls),
(488,0,o),
(475,0,qs),
(389,0,ls),
(375,0,o),
(367,13,qs),
(168,336,l),
(168,13,ls)
);
}
);
userData = {
assembly = "NPUSHB[ ]	/* 27 values pushed */
14 0 2 0 1 1 76 2 1 1 1 39 77 3 1 0 0 40 0 78 51 53 52 50 4 9 26 
CALL[ ]	/* CallFunction */";
};
width = 539;
}
);
note = N;
unicode = 78;
},
{
glyphname = O;
kernLeft = O;
kernRight = O;
layers = (
{
layerId = m01;
shapes = (
{
closed = 1;
nodes = (
(452,277,qs),
(452,454,o),
(306,454,qs),
(160,454,o),
(160,277,qs),
(160,102,o),
(306,102,qs),
(452,102,o)
);
},
{
closed = 1;
nodes = (
(118,58,qs),
(39,134,o),
(39,277,qs),
(39,401,o),
(101,477,qs),
(173,566,o),
(306,566,qs),
(423,566,o),
(494,498,qs),
(574,420,o),
(574,277,qs),
(574,153,o),
(513,78,qs),
(441,-10,o),
(306,-10,qs),
(188,-10,o)
);
}
);
userData = {
assembly = "MPPEM[ ]	/* MeasurePixelPerEm */
PUSHB[ ]	/* 1 value pushed */
40 
LT[ ]	/* LessThan */
IF[ ]	/* If */
NPUSHB[ ]	/* 23 values pushed */
0 1 1 3 97 0 3 3 39 77 4 1 0 0 2 97 5 1 2 2 46 2 78 
ELSE[ ]	/* Else */
NPUSHB[ ]	/* 21 values pushed */
0 3 0 1 0 3 1 105 4 1 0 0 2 97 5 1 2 2 46 2 78 
EIF[ ]	/* EndIf */
NPUSHB[ ]	/* 19 values pushed */
9 8 1 0 17 15 8 23 9 23 5 3 0 7 1 7 6 9 22 
CALL[ ]	/* CallFunction */";
};
width = 612;
}
);
note = O;
unicode = 79;
},
{
glyphname = P;
layers = (
{
layerId = m01;
shapes = (
{
closed = 1;
nodes = (
(352,292,o),
(352,372,qs),
(352,407,o),
(308,447,o),
(268,447,qs),
(168,447,l),
(168,292,l),
(268,292,ls)
);
},
{
closed = 1;
nodes = (
(168,0,o),
(155,0,qs),
(64,0,ls),
(51,0,o),
(51,13,qs),
(51,543,ls),
(51,556,o),
(64,556,qs),
(258,556,ls),
(359,556,o),
(413,511,qs),
(469,464,o),
(469,373,qs),
(469,295,o),
(424,244,qs),
(369,184,o),
(274,184,qs),
(168,184,l),
(168,13,ls)
);
}
);
userData = {
assembly = "NPUSHB[ ]	/* 41 values pushed */
5 1 1 0 2 4 1 2 103 0 0 0 3 95 0 3 3 39 77 0 4 4 40 4 78 0 0 25 22 19 16 10 8 0 7 0 6 33 6 9 23 
CALL[ ]	/* CallFunction */";
};
width = 496;
}
);
note = P;
unicode = 80;
},
{
glyphname = Q;
layers = (
{
layerId = m01;
shapes = (
{
closed = 1;
nodes = (
(107,69,qs),
(39,145,o),
(39,277,qs),
(39,401,o),
(101,477,qs),
(173,566,o),
(306,566,qs),
(423,566,o),
(494,498,qs),
(574,420,o),
(574,277,qs),
(574,183,o),
(538,115,qs),
(496,38,o),
(414,8,q),
(440,-20,o),
(477,-20,qs),
(509,-20,o),
(538,-1,qs),
(542,2,o),
(547,2,qs),
(560,2,o),
(560,-19,qs),
(560,-52,o),
(532,-81,qs),
(497,-117,o),
(440,-117,qs),
(327,-117,o),
(271,-8,q),
(168,2,o)
);
},
{
closed = 1;
nodes = (
(452,277,qs),
(452,364,o),
(415,409,qs),
(378,455,o),
(306,455,qs),
(244,455,o),
(208,420,qs),
(160,376,o),
(160,277,qs),
(160,101,o),
(306,101,qs),
(452,101,o)
);
}
);
userData = {
assembly = "PUSHB[ ]	/* 6 values pushed */
14 1 1 4 1 76 
MPPEM[ ]	/* MeasurePixelPerEm */
PUSHB[ ]	/* 1 value pushed */
9 
LT[ ]	/* LessThan */
IF[ ]	/* If */
NPUSHB[ ]	/* 33 values pushed */
6 1 4 5 1 2 4 114 0 1 2 5 1 2 126 0 2 0 0 2 0 102 0 5 5 3 97 0 3 3 39 5 78 
ELSE[ ]	/* Else */
MPPEM[ ]	/* MeasurePixelPerEm */
PUSHB[ ]	/* 1 value pushed */
40 
LT[ ]	/* LessThan */
IF[ ]	/* If */
NPUSHB[ ]	/* 34 values pushed */
6 1 4 5 1 5 4 1 128 0 1 2 5 1 2 126 0 2 0 0 2 0 102 0 5 5 3 97 0 3 3 39 5 78 
ELSE[ ]	/* Else */
NPUSHB[ ]	/* 40 values pushed */
6 1 4 5 1 5 4 1 128 0 1 2 5 1 2 126 0 3 0 5 4 3 5 105 0 2 0 0 2 89 0 2 2 0 98 0 0 2 0 82 
EIF[ ]	/* EndIf */
EIF[ ]	/* EndIf */
NPUSHB[ ]	/* 15 values pushed */
31 30 37 35 30 41 31 41 40 35 20 33 7 9 26 
CALL[ ]	/* CallFunction */";
};
width = 612;
}
);
note = Q;
unicode = 81;
},
{
glyphname = R;
layers = (
{
layerId = m01;
shapes = (
{
closed = 1;
nodes = (
(352,292,o),
(352,372,qs),
(352,407,o),
(308,447,o),
(268,447,qs),
(168,447,l),
(168,292,l),
(268,292,ls)
);
},
{
closed = 1;
nodes = (
(168,0,o),
(155,0,qs),
(64,0,ls),
(51,0,o),
(51,13,qs),
(51,543,ls),
(51,556,o),
(64,556,qs),
(257,556,ls),
(358,556,o),
(412,511,qs),
(469,464,o),
(469,373,qs),
(469,312,o),
(411,221,o),
(359,200,q),
(472,13,l),
(476,8,o),
(471,0,o),
(465,0,qs),
(362,0,ls),
(344,0,o),
(337,13,qs),
(244,184,l),
(168,184,l),
(168,13,ls)
);
}
);
userData = {
assembly = "NPUSHB[ ]	/* 50 values pushed */
17 1 2 1 1 76 6 1 1 0 2 3 1 2 103 0 0 0 4 95 0 4 4 39 77 5 1 3 3 40 3 78 0 0 32 29 26 23 13 11 9 8 0 7 0 6 33 7 9 23 
CALL[ ]	/* CallFunction */";
};
width = 502;
}
);
note = R;
unicode = 82;
},
{
glyphname = S;
kernLeft = S;
kernRight = S;
layers = (
{
layerId = m01;
shapes = (
{
closed = 1;
nodes = (
(30,170,qs),
(36,170,o),
(40,166,qs),
(116,98,o),
(215,98,qs),
(315,98,o),
(315,157,qs),
(315,179,o),
(275,206,o),
(216,225,qs),
(139,249,o),
(106,270,qs),
(33,316,o),
(33,403,qs),
(33,476,o),
(85,520,qs),
(141,566,o),
(234,566,qs),
(307,566,o),
(367,547,qs),
(399,536,o),
(419,496,o),
(411,461,qs),
(405,437,ls),
(402,424,o),
(393,424,qs),
(386,424,o),
(376,429,qs),
(309,461,o),
(237,461,qs),
(154,461,o),
(154,409,qs),
(154,386,o),
(195,357,o),
(254,339,qs),
(332,315,o),
(364,296,qs),
(437,252,o),
(437,166,qs),
(437,91,o),
(389,44,qs),
(333,-10,o),
(228,-10,qs),
(132,-10,o),
(74,34,qs),
(15,79,o),
(15,147,qs),
(15,170,o)
);
}
);
userData = {
assembly = "MPPEM[ ]	/* MeasurePixelPerEm */
PUSHB[ ]	/* 1 value pushed */
40 
LT[ ]	/* LessThan */
IF[ ]	/* If */
NPUSHB[ ]	/* 36 values pushed */
0 2 1 5 1 2 5 128 0 5 4 1 5 4 126 0 1 1 3 97 0 3 3 39 77 0 4 4 0 97 0 0 0 46 0 78 
ELSE[ ]	/* Else */
NPUSHB[ ]	/* 34 values pushed */
0 2 1 5 1 2 5 128 0 5 4 1 5 4 126 0 3 0 1 2 3 1 105 0 4 4 0 97 0 0 0 46 0 78 
EIF[ ]	/* EndIf */
NPUSHB[ ]	/* 9 values pushed */
34 43 38 34 43 35 6 9 28 
CALL[ ]	/* CallFunction */";
};
width = 458;
}
);
note = S;
unicode = 83;
},
{
glyphname = T;
layers = (
{
layerId = m01;
shapes = (
{
closed = 1;
nodes = (
(10,447,o),
(10,460,qs),
(10,543,ls),
(10,556,o),
(23,556,qs),
(384,556,ls),
(453,556,o),
(453,489,qs),
(453,464,ls),
(453,447,o),
(437,447,qs),
(288,447,l),
(288,13,ls),
(288,0,o),
(275,0,qs),
(184,0,ls),
(171,0,o),
(171,13,qs),
(171,447,l),
(23,447,ls)
);
}
);
userData = {
assembly = "NPUSHB[ ]	/* 30 values pushed */
4 3 2 1 1 2 95 0 2 2 39 77 0 0 0 40 0 78 0 0 0 19 0 18 51 34 50 5 9 25 
CALL[ ]	/* CallFunction */";
};
width = 463;
}
);
note = T;
unicode = 84;
},
{
glyphname = U;
kernLeft = U;
kernRight = U;
layers = (
{
layerId = m01;
shapes = (
{
closed = 1;
nodes = (
(91,63,qs),
(48,119,o),
(48,207,qs),
(48,543,ls),
(48,556,o),
(61,556,qs),
(71,556,ls),
(121,556,o),
(165,508,o),
(165,455,qs),
(165,231,ls),
(165,100,o),
(264,100,qs),
(365,100,o),
(365,230,qs),
(365,543,ls),
(365,556,o),
(378,556,qs),
(388,556,ls),
(438,556,o),
(482,508,o),
(482,455,qs),
(482,207,ls),
(482,134,o),
(451,81,qs),
(397,-10,o),
(264,-10,qs),
(146,-10,o)
);
}
);
userData = {
assembly = "NPUSHB[ ]	/* 33 values pushed */
3 1 1 1 39 77 0 2 2 0 98 4 1 0 0 46 0 78 1 0 22 19 15 13 10 7 0 27 1 27 5 9 22 
CALL[ ]	/* CallFunction */";
};
width = 530;
}
);
note = U;
unicode = 85;
},
{
glyphname = V;
layers = (
{
layerId = m01;
shapes = (
{
closed = 1;
nodes = (
(394,556,o),
(409,556,qs),
(498,556,ls),
(512,556,o),
(508,543,qs),
(332,13,ls),
(328,0,o),
(316,0,qs),
(204,0,ls),
(191,0,o),
(186,13,qs),
(10,543,ls),
(6,556,o),
(18,556,qs),
(57,556,ls),
(103,556,o),
(148,518,o),
(164,466,qs),
(263,140,l),
(390,543,ls)
);
}
);
userData = {
assembly = "NPUSHB[ ]	/* 18 values pushed */
2 1 0 0 39 77 0 1 1 40 1 78 51 51 51 3 9 25 
CALL[ ]	/* CallFunction */";
};
width = 511;
}
);
note = V;
unicode = 86;
},
{
glyphname = W;
layers = (
{
layerId = m01;
shapes = (
{
closed = 1;
nodes = (
(314,556,o),
(326,556,qs),
(363,556,ls),
(412,556,o),
(459,516,o),
(470,466,qs),
(539,148,l),
(623,543,ls),
(626,556,o),
(639,556,qs),
(736,556,ls),
(748,556,o),
(744,543,qs),
(614,13,ls),
(611,0,o),
(598,0,qs),
(491,0,ls),
(478,0,o),
(475,13,qs),
(379,394,l),
(283,13,ls),
(280,0,o),
(267,0,qs),
(159,0,ls),
(145,0,o),
(142,13,qs),
(19,543,l),
(17,556,o),
(29,556,qs),
(52,556,ls),
(102,556,o),
(149,516,o),
(159,466,qs),
(221,148,l),
(311,543,ls)
);
}
);
userData = {
assembly = "NPUSHB[ ]	/* 29 values pushed */
27 14 2 1 0 1 76 4 3 2 0 0 39 77 2 1 1 1 40 1 78 53 51 52 51 51 5 9 27 
CALL[ ]	/* CallFunction */";
};
width = 761;
}
);
note = W;
unicode = 87;
},
{
glyphname = X;
layers = (
{
layerId = m01;
shapes = (
{
closed = 1;
nodes = (
(131,0,o),
(119,0,qs),
(18,0,ls),
(12,0,o),
(7,8,o),
(10,13,qs),
(170,289,l),
(21,543,ls),
(18,547,o),
(23,556,o),
(28,556,qs),
(75,556,ls),
(121,556,o),
(159,531,o),
(187,484,qs),
(251,373,l),
(351,543,ls),
(359,556,o),
(372,556,qs),
(471,556,ls),
(485,556,o),
(478,543,qs),
(336,298,l),
(505,13,ls),
(508,8,o),
(503,0,o),
(497,0,qs),
(396,0,ls),
(381,0,o),
(374,13,qs),
(255,214,l),
(138,13,ls)
);
}
);
userData = {
assembly = "NPUSHB[ ]	/* 28 values pushed */
24 15 8 3 0 1 1 76 2 1 1 1 39 77 3 1 0 0 40 0 78 55 37 54 34 4 9 26 
CALL[ ]	/* CallFunction */";
};
width = 512;
}
);
note = X;
unicode = 88;
},
{
glyphname = Y;
kernLeft = Y;
kernRight = Y;
layers = (
{
layerId = m01;
shapes = (
{
closed = 1;
nodes = (
(1,556,o),
(15,556,qs),
(64,556,ls),
(100,556,o),
(146,528,o),
(163,495,qs),
(250,322,l),
(362,543,l),
(367,556,o),
(382,556,qs),
(478,556,ls),
(492,556,o),
(486,543,qs),
(304,200,l),
(304,13,ls),
(304,0,o),
(291,0,qs),
(200,0,ls),
(187,0,o),
(187,13,qs),
(187,203,l),
(7,543,ls)
);
}
);
userData = {
assembly = "NPUSHB[ ]	/* 26 values pushed */
14 7 0 3 0 1 1 76 2 1 1 1 39 77 0 0 0 40 0 78 53 52 50 3 9 25 
CALL[ ]	/* CallFunction */";
};
width = 485;
}
);
note = Y;
unicode = 89;
},
{
glyphname = Z;
kernLeft = Z;
kernRight = Z;
layers = (
{
layerId = m01;
shapes = (
{
closed = 1;
nodes = (
(426,108,o),
(426,42,qs),
(426,17,ls),
(426,0,o),
(410,0,qs),
(39,0,ls),
(26,0,o),
(26,13,qs),
(26,85,ls),
(26,107,o),
(41,127,qs),
(276,447,l),
(45,447,ls),
(32,447,o),
(32,460,qs),
(32,543,ls),
(32,556,o),
(45,556,qs),
(356,556,ls),
(426,556,o),
(426,489,qs),
(426,473,ls),
(426,455,o),
(411,435,qs),
(170,108,l),
(356,108,ls)
);
}
);
userData = {
assembly = "NPUSHB[ ]	/* 34 values pushed */
0 1 1 0 95 0 0 0 39 77 4 1 3 3 2 95 0 2 2 40 2 78 0 0 0 25 0 24 53 35 53 5 9 25 
CALL[ ]	/* CallFunction */";
};
width = 453;
}
);
note = Z;
unicode = 90;
},
{
glyphname = bracketleft;
layers = (
{
layerId = m01;
shapes = (
{
closed = 1;
nodes = (
(145,-51,o),
(151,-51,qs),
(180,-51,ls),
(250,-51,o),
(250,-118,qs),
(250,-126,ls),
(250,-144,o),
(234,-144,qs),
(115,-144,ls),
(46,-144,o),
(46,-77,qs),
(46,626,ls),
(46,692,o),
(115,692,qs),
(234,692,ls),
(250,692,o),
(250,675,qs),
(250,666,ls),
(250,600,o),
(180,600,qs),
(151,600,ls),
(145,600,o),
(145,594,qs),
(145,-45,ls)
);
}
);
userData = {
assembly = "PUSHB[ ]	/* 7 values pushed */
23 0 2 3 0 1 76 
MPPEM[ ]	/* MeasurePixelPerEm */
PUSHB[ ]	/* 1 value pushed */
26 
LT[ ]	/* LessThan */
IF[ ]	/* If */
NPUSHB[ ]	/* 19 values pushed */
0 1 0 0 3 1 0 105 0 3 3 2 95 0 2 2 44 2 78 
ELSE[ ]	/* Else */
NPUSHB[ ]	/* 24 values pushed */
0 1 0 0 3 1 0 105 0 3 2 2 3 89 0 3 3 2 95 0 2 3 2 79 
EIF[ ]	/* EndIf */
PUSHB[ ]	/* 7 values pushed */
35 51 51 34 4 9 26 
CALL[ ]	/* CallFunction */";
};
width = 299;
}
);
note = bracketleft;
unicode = 91;
},
{
glyphname = backslash;
layers = (
{
layerId = m01;
shapes = (
{
closed = 1;
nodes = (
(3,556,o),
(15,556,qs),
(37,556,ls),
(79,556,o),
(121,527,o),
(138,485,qs),
(338,13,l),
(342,0,o),
(330,0,qs),
(250,0,ls),
(236,0,o),
(231,13,qs),
(7,543,l)
);
}
);
userData = {
assembly = "NPUSHB[ ]	/* 16 values pushed */
0 1 1 39 77 0 0 0 40 0 78 52 49 2 9 24 
CALL[ ]	/* CallFunction */";
};
width = 339;
}
);
note = backslash;
unicode = 92;
},
{
glyphname = bracketright;
layers = (
{
layerId = m01;
shapes = (
{
closed = 1;
nodes = (
(152,600,o),
(146,600,qs),
(117,600,ls),
(47,600,o),
(47,666,qs),
(47,675,ls),
(47,692,o),
(63,692,qs),
(182,692,ls),
(251,692,o),
(251,626,qs),
(251,-77,ls),
(251,-144,o),
(182,-144,qs),
(63,-144,ls),
(47,-144,o),
(47,-126,qs),
(47,-118,ls),
(47,-51,o),
(117,-51,qs),
(146,-51,ls),
(152,-51,o),
(152,-45,qs),
(152,594,ls)
);
}
);
userData = {
assembly = "PUSHB[ ]	/* 7 values pushed */
23 0 2 0 3 1 76 
MPPEM[ ]	/* MeasurePixelPerEm */
PUSHB[ ]	/* 1 value pushed */
26 
LT[ ]	/* LessThan */
IF[ ]	/* If */
NPUSHB[ ]	/* 19 values pushed */
0 2 0 3 0 2 3 105 0 0 0 1 95 0 1 1 44 1 78 
ELSE[ ]	/* Else */
NPUSHB[ ]	/* 24 values pushed */
0 2 0 3 0 2 3 105 0 0 1 1 0 89 0 0 0 1 95 0 1 0 1 79 
EIF[ ]	/* EndIf */
PUSHB[ ]	/* 7 values pushed */
35 51 51 34 4 9 26 
CALL[ ]	/* CallFunction */";
};
width = 300;
}
);
note = bracketright;
unicode = 93;
},
{
glyphname = asciicircum;
layers = (
{
layerId = m01;
shapes = (
{
closed = 1;
nodes = (
(124,266,o),
(110,266,qs),
(32,266,ls),
(26,266,o),
(21,275,o),
(23,279,qs),
(163,543,ls),
(170,556,o),
(186,556,qs),
(219,556,o),
(258,532,o),
(273,505,qs),
(394,279,ls),
(396,275,o),
(390,266,o),
(385,266,qs),
(306,266,ls),
(292,266,o),
(285,280,qs),
(209,432,l),
(131,280,ls)
);
}
);
userData = {
assembly = "PUSHB[ ]	/* 2 values pushed */
6 100 
WCVTP[ ]	/* WriteCVTInPixels */
NPUSHB[ ]	/* 16 values pushed */
0 1 0 1 133 2 1 0 0 118 52 38 34 3 9 25 
CALL[ ]	/* CallFunction */
PUSHB[ ]	/* 2 values pushed */
6 0 
WCVTP[ ]	/* WriteCVTInPixels */";
};
width = 414;
}
);
note = asciicircum;
unicode = 94;
},
{
glyphname = underscore;
layers = (
{
layerId = m01;
shapes = (
{
closed = 1;
nodes = (
(-6,-192,qs),
(-6,-117,ls),
(-6,-104,o),
(7,-104,qs),
(460,-104,ls),
(473,-104,o),
(473,-117,qs),
(473,-192,ls),
(473,-205,o),
(460,-205,qs),
(7,-205,ls),
(-6,-205,o)
);
}
);
userData = {
assembly = "PUSHB[ ]	/* 2 values pushed */
6 100 
WCVTP[ ]	/* WriteCVTInPixels */
NPUSHB[ ]	/* 28 values pushed */
0 1 0 0 1 87 0 1 1 0 95 2 1 0 1 0 79 2 0 8 5 0 11 2 11 3 9 22 
CALL[ ]	/* CallFunction */
PUSHB[ ]	/* 2 values pushed */
6 0 
WCVTP[ ]	/* WriteCVTInPixels */";
};
width = 467;
}
);
note = underscore;
unicode = 95;
},
{
glyphname = grave;
layers = (
{
layerId = m01;
shapes = (
{
closed = 1;
nodes = (
(3,540,o),
(10,540,qs),
(101,540,ls),
(118,540,o),
(131,528,qs),
(223,445,ls),
(227,441,o),
(223,430,o),
(217,430,qs),
(138,430,ls),
(116,430,o),
(102,442,qs),
(5,524,ls),
(0,528,o)
);
}
);
userData = {
assembly = "PUSHB[ ]	/* 2 values pushed */
6 100 
WCVTP[ ]	/* WriteCVTInPixels */
NPUSHB[ ]	/* 14 values pushed */
0 1 0 1 133 0 0 0 118 53 34 2 9 24 
CALL[ ]	/* CallFunction */
PUSHB[ ]	/* 2 values pushed */
6 0 
WCVTP[ ]	/* WriteCVTInPixels */";
};
width = 225;
}
);
note = grave;
unicode = 96;
},
{
glyphname = a;
kernLeft = a;
kernRight = a;
layers = (
{
layerId = m01;
shapes = (
{
closed = 1;
nodes = (
(279,113,qs),
(313,136,o),
(313,193,qs),
(313,283,o),
(232,283,qs),
(147,283,o),
(147,193,qs),
(147,149,o),
(193,98,o),
(232,98,qs),
(258,98,o)
);
},
{
closed = 1;
nodes = (
(201,-9,qs),
(124,-9,o),
(78,44,qs),
(29,99,o),
(29,194,qs),
(29,274,o),
(70,328,qs),
(118,394,o),
(203,394,qs),
(279,394,o),
(325,343,q),
(345,382,o),
(410,382,qs),
(415,382,ls),
(428,382,o),
(428,369,qs),
(428,13,ls),
(428,0,o),
(415,0,qs),
(326,0,ls),
(313,0,o),
(313,13,qs),
(313,43,l),
(271,-9,o)
);
}
);
userData = {
assembly = "NPUSHB[ ]	/* 10 values pushed */
23 1 1 3 11 1 2 0 2 76 
MPPEM[ ]	/* MeasurePixelPerEm */
PUSHB[ ]	/* 1 value pushed */
15 
LT[ ]	/* LessThan */
IF[ ]	/* If */
NPUSHB[ ]	/* 24 values pushed */
0 1 1 3 97 4 1 3 3 42 77 6 1 0 0 2 97 5 1 2 2 40 2 78 
ELSE[ ]	/* Else */
MPPEM[ ]	/* MeasurePixelPerEm */
PUSHB[ ]	/* 1 value pushed */
22 
LT[ ]	/* LessThan */
IF[ ]	/* If */
NPUSHB[ ]	/* 28 values pushed */
0 3 3 42 77 0 1 1 4 97 0 4 4 48 77 6 1 0 0 2 97 5 1 2 2 40 2 78 
ELSE[ ]	/* Else */
NPUSHB[ ]	/* 32 values pushed */
0 3 3 42 77 0 1 1 4 97 0 4 4 48 77 0 2 2 40 77 6 1 0 0 5 97 0 5 5 46 5 78 
EIF[ ]	/* EndIf */
EIF[ ]	/* EndIf */
NPUSHB[ ]	/* 19 values pushed */
1 0 34 32 26 24 22 19 16 13 6 4 0 10 1 10 7 9 22 
CALL[ ]	/* CallFunction */";
};
width = 468;
}
);
note = a;
unicode = 97;
},
{
glyphname = b;
layers = (
{
layerId = m01;
shapes = (
{
closed = 1;
nodes = (
(285,113,qs),
(321,136,o),
(321,193,qs),
(321,283,o),
(237,283,qs),
(155,283,o),
(155,193,qs),
(155,149,o),
(199,98,o),
(237,98,qs),
(264,98,o)
);
},
{
closed = 1;
nodes = (
(155,0,o),
(142,0,qs),
(54,0,ls),
(41,0,o),
(41,13,qs),
(41,543,ls),
(41,556,o),
(54,556,qs),
(59,556,ls),
(109,556,o),
(155,509,o),
(155,458,qs),
(155,339,l),
(192,394,o),
(267,394,qs),
(341,394,o),
(387,347,qs),
(440,293,o),
(440,194,qs),
(440,112,o),
(402,58,qs),
(355,-9,o),
(268,-9,qs),
(197,-9,o),
(155,43,q),
(155,13,ls)
);
}
);
userData = {
assembly = "MPPEM[ ]	/* MeasurePixelPerEm */
PUSHB[ ]	/* 1 value pushed */
22 
LT[ ]	/* LessThan */
IF[ ]	/* If */
NPUSHB[ ]	/* 10 values pushed */
23 1 1 3 11 1 2 0 2 76 
ELSE[ ]	/* Else */
NPUSHB[ ]	/* 10 values pushed */
23 1 1 3 11 1 5 0 2 76 
EIF[ ]	/* EndIf */
MPPEM[ ]	/* MeasurePixelPerEm */
PUSHB[ ]	/* 1 value pushed */
22 
LT[ ]	/* LessThan */
IF[ ]	/* If */
NPUSHB[ ]	/* 28 values pushed */
0 4 4 39 77 0 1 1 3 97 0 3 3 48 77 6 1 0 0 2 97 5 1 2 2 46 2 78 
ELSE[ ]	/* Else */
NPUSHB[ ]	/* 32 values pushed */
0 4 4 39 77 0 1 1 3 97 0 3 3 48 77 0 5 5 40 77 6 1 0 0 2 97 0 2 2 46 2 78 
EIF[ ]	/* EndIf */
NPUSHB[ ]	/* 19 values pushed */
1 0 35 32 29 26 22 20 14 12 6 4 0 10 1 10 7 9 22 
CALL[ ]	/* CallFunction */";
};
width = 468;
}
);
note = b;
unicode = 98;
},
{
glyphname = c;
kernLeft = c;
kernRight = c;
layers = (
{
layerId = m01;
shapes = (
{
closed = 1;
nodes = (
(86,37,qs),
(29,91,o),
(29,192,qs),
(29,280,o),
(76,333,qs),
(129,393,o),
(225,393,qs),
(265,393,o),
(299,381,qs),
(328,370,o),
(346,331,o),
(338,296,qs),
(332,271,ls),
(329,261,o),
(323,261,qs),
(318,261,o),
(312,264,qs),
(269,285,o),
(232,285,qs),
(193,285,o),
(147,233,o),
(147,189,qs),
(147,88,o),
(245,88,qs),
(284,88,o),
(327,114,qs),
(336,120,o),
(341,120,qs),
(352,120,o),
(352,104,qs),
(352,66,o),
(328,36,qs),
(291,-10,o),
(212,-10,qs),
(135,-10,o)
);
}
);
userData = {
assembly = "NPUSHB[ ]	/* 56 values pushed */
0 4 3 1 3 4 1 128 0 1 2 3 1 2 126 0 3 3 5 97 0 5 5 48 77 0 2 2 0 97 6 1 0 0 46 0 78 1 0 28 26 20 18 16 14 11 9 6 5 0 34 1 34 7 9 22 
CALL[ ]	/* CallFunction */";
};
width = 365;
}
);
note = c;
unicode = 99;
},
{
glyphname = d;
layers = (
{
layerId = m01;
shapes = (
{
closed = 1;
nodes = (
(279,113,qs),
(313,136,o),
(313,193,qs),
(313,283,o),
(232,283,qs),
(147,283,o),
(147,193,qs),
(147,149,o),
(193,98,o),
(232,98,qs),
(258,98,o)
);
},
{
closed = 1;
nodes = (
(313,556,o),
(326,556,qs),
(331,556,ls),
(382,556,o),
(428,509,o),
(428,458,qs),
(428,13,ls),
(428,0,o),
(415,0,qs),
(326,0,ls),
(313,0,o),
(313,13,qs),
(313,43,l),
(271,-9,o),
(201,-9,qs),
(124,-9,o),
(78,44,qs),
(29,99,o),
(29,194,qs),
(29,275,o),
(69,328,qs),
(117,394,o),
(208,394,qs),
(280,394,o),
(313,344,q),
(313,543,ls)
);
}
);
userData = {
assembly = "MPPEM[ ]	/* MeasurePixelPerEm */
PUSHB[ ]	/* 1 value pushed */
22 
LT[ ]	/* LessThan */
IF[ ]	/* If */
NPUSHB[ ]	/* 10 values pushed */
11 1 1 2 23 1 3 0 2 76 
ELSE[ ]	/* Else */
NPUSHB[ ]	/* 10 values pushed */
11 1 1 2 23 1 4 0 2 76 
EIF[ ]	/* EndIf */
MPPEM[ ]	/* MeasurePixelPerEm */
PUSHB[ ]	/* 1 value pushed */
22 
LT[ ]	/* LessThan */
IF[ ]	/* If */
NPUSHB[ ]	/* 28 values pushed */
0 5 5 39 77 0 1 1 2 97 0 2 2 48 77 6 1 0 0 3 97 4 1 3 3 46 3 78 
ELSE[ ]	/* Else */
NPUSHB[ ]	/* 32 values pushed */
0 5 5 39 77 0 1 1 2 97 0 2 2 48 77 0 4 4 40 77 6 1 0 0 3 97 0 3 3 46 3 78 
EIF[ ]	/* EndIf */
NPUSHB[ ]	/* 19 values pushed */
1 0 35 32 28 25 22 20 14 12 6 4 0 10 1 10 7 9 22 
CALL[ ]	/* CallFunction */";
};
width = 468;
}
);
note = d;
unicode = 100;
},
{
glyphname = e;
kernLeft = e;
kernRight = e;
layers = (
{
layerId = m01;
shapes = (
{
closed = 1;
nodes = (
(287,258,o),
(251,295,o),
(221,295,qs),
(152,295,o),
(148,231,q),
(282,231,l)
);
},
{
closed = 1;
nodes = (
(246,86,qs),
(304,86,o),
(359,110,qs),
(371,115,o),
(376,115,qs),
(388,115,o),
(388,100,qs),
(388,64,o),
(359,34,qs),
(316,-10,o),
(230,-10,qs),
(145,-10,o),
(91,38,qs),
(29,93,o),
(29,193,qs),
(29,275,o),
(73,329,qs),
(126,393,o),
(221,393,qs),
(301,393,o),
(348,345,qs),
(396,297,o),
(396,220,qs),
(396,190,o),
(394,166,qs),
(392,151,o),
(375,151,qs),
(147,151,l),
(159,86,o)
);
}
);
userData = {
assembly = "NPUSHB[ ]	/* 58 values pushed */
0 5 2 6 2 5 6 128 7 1 1 0 2 5 1 2 103 0 0 0 3 97 0 3 3 48 77 0 6 6 4 97 0 4 4 46 4 78 0 0 34 32 29 28 24 22 16 14 8 6 0 5 0 5 33 8 9 23 
CALL[ ]	/* CallFunction */";
};
width = 422;
}
);
note = e;
unicode = 101;
},
{
glyphname = f;
kernLeft = f;
layers = (
{
layerId = m01;
shapes = (
{
closed = 1;
nodes = (
(10,280,o),
(10,293,qs),
(10,369,ls),
(10,382,o),
(23,382,qs),
(77,382,l),
(77,407,ls),
(77,479,o),
(106,519,qs),
(138,561,o),
(199,561,qs),
(247,561,o),
(309,509,o),
(309,468,qs),
(309,448,o),
(296,448,qs),
(293,448,o),
(287,450,qs),
(255,464,o),
(236,464,qs),
(211,464,o),
(191,435,o),
(191,401,qs),
(191,382,l),
(285,382,ls),
(298,382,o),
(298,369,qs),
(298,293,ls),
(298,280,o),
(285,280,qs),
(191,280,l),
(191,13,ls),
(191,0,o),
(178,0,qs),
(90,0,ls),
(77,0,o),
(77,13,qs),
(77,280,l),
(23,280,ls)
);
}
);
userData = {
assembly = "MPPEM[ ]	/* MeasurePixelPerEm */
PUSHB[ ]	/* 1 value pushed */
11 
LT[ ]	/* LessThan */
IF[ ]	/* If */
NPUSHB[ ]	/* 30 values pushed */
4 1 3 3 5 97 0 5 5 39 77 8 7 2 1 1 2 97 6 1 2 2 42 77 0 0 0 40 0 78 
ELSE[ ]	/* Else */
NPUSHB[ ]	/* 37 values pushed */
0 4 3 2 3 4 2 128 0 3 3 5 97 0 5 5 39 77 8 7 2 1 1 2 97 6 1 2 2 42 77 0 0 0 40 0 78 
EIF[ ]	/* EndIf */
NPUSHB[ ]	/* 16 values pushed */
0 0 0 38 0 37 36 35 34 35 35 34 50 9 9 29 
CALL[ ]	/* CallFunction */";
};
width = 324;
}
);
note = f;
unicode = 102;
},
{
glyphname = g;
layers = (
{
layerId = m01;
shapes = (
{
closed = 1;
nodes = (
(279,113,qs),
(313,136,o),
(313,193,qs),
(313,283,o),
(232,283,qs),
(147,283,o),
(147,193,qs),
(147,149,o),
(193,98,o),
(232,98,qs),
(258,98,o)
);
},
{
closed = 1;
nodes = (
(201,0,qs),
(123,0,o),
(78,48,qs),
(29,101,o),
(29,194,qs),
(29,274,o),
(70,328,qs),
(118,394,o),
(203,394,qs),
(280,394,o),
(325,343,q),
(346,382,o),
(410,382,qs),
(415,382,ls),
(428,382,o),
(428,369,qs),
(428,20,ls),
(428,-63,o),
(384,-112,qs),
(333,-171,o),
(229,-171,qs),
(154,-171,o),
(103,-137,qs),
(49,-100,o),
(49,-47,qs),
(49,-24,o),
(63,-24,qs),
(68,-24,o),
(77,-31,qs),
(127,-67,o),
(201,-67,qs),
(313,-67,o),
(313,19,qs),
(313,52,l),
(271,0,o)
);
}
);
userData = {
assembly = "NPUSHB[ ]	/* 10 values pushed */
34 1 1 5 11 1 7 0 2 76 
MPPEM[ ]	/* MeasurePixelPerEm */
PUSHB[ ]	/* 1 value pushed */
15 
LT[ ]	/* LessThan */
IF[ ]	/* If */
NPUSHB[ ]	/* 41 values pushed */
0 3 7 2 7 3 2 128 0 1 1 5 97 6 1 5 5 42 77 8 1 0 0 7 97 0 7 7 40 77 0 2 2 4 97 0 4 4 50 4 78 
ELSE[ ]	/* Else */
NPUSHB[ ]	/* 45 values pushed */
0 3 7 2 7 3 2 128 0 5 5 42 77 0 1 1 6 97 0 6 6 48 77 8 1 0 0 7 97 0 7 7 40 77 0 2 2 4 97 0 4 4 50 4 78 
EIF[ ]	/* EndIf */
NPUSHB[ ]	/* 23 values pushed */
1 0 45 43 37 35 33 30 25 23 19 17 15 13 6 4 0 10 1 10 9 9 22 
CALL[ ]	/* CallFunction */";
};
width = 468;
}
);
note = g;
unicode = 103;
},
{
glyphname = h;
layers = (
{
layerId = m01;
shapes = (
{
closed = 1;
nodes = (
(255,394,qs),
(320,394,o),
(360,357,qs),
(409,311,o),
(409,220,qs),
(409,13,ls),
(409,0,o),
(396,0,qs),
(307,0,ls),
(294,0,o),
(294,13,qs),
(294,210,ls),
(294,288,o),
(224,288,qs),
(155,288,o),
(155,209,qs),
(155,13,ls),
(155,0,o),
(142,0,qs),
(54,0,ls),
(41,0,o),
(41,13,qs),
(41,543,ls),
(41,556,o),
(54,556,qs),
(59,556,ls),
(109,556,o),
(155,509,o),
(155,458,qs),
(155,348,l),
(190,394,o)
);
}
);
userData = {
assembly = "NPUSHB[ ]	/* 36 values pushed */
0 1 2 4 1 76 0 0 0 39 77 0 2 2 4 97 0 4 4 48 77 3 1 1 1 40 1 78 37 51 35 51 51 5 9 27 
CALL[ ]	/* CallFunction */";
};
width = 447;
}
);
note = h;
unicode = 104;
},
{
glyphname = i;
kernLeft = i;
kernRight = i;
layers = (
{
layerId = m01;
shapes = (
{
closed = 1;
nodes = (
(72,546,o),
(99,546,qs),
(125,546,o),
(160,509,o),
(160,481,qs),
(160,454,o),
(125,417,o),
(99,417,qs),
(71,417,o),
(35,454,o),
(35,481,qs),
(35,508,o)
);
},
{
closed = 1;
nodes = (
(41,382,o),
(54,382,qs),
(59,382,ls),
(109,382,o),
(155,335,o),
(155,284,qs),
(155,13,ls),
(155,0,o),
(142,0,qs),
(54,0,ls),
(41,0,o),
(41,13,qs),
(41,369,ls)
);
}
);
userData = {
assembly = "MPPEM[ ]	/* MeasurePixelPerEm */
PUSHB[ ]	/* 1 value pushed */
40 
LT[ ]	/* LessThan */
IF[ ]	/* If */
NPUSHB[ ]	/* 21 values pushed */
0 0 0 1 97 0 1 1 39 77 0 3 3 42 77 0 2 2 40 2 78 
ELSE[ ]	/* Else */
NPUSHB[ ]	/* 19 values pushed */
0 1 0 0 3 1 0 105 0 3 3 42 77 0 2 2 40 2 78 
EIF[ ]	/* EndIf */
PUSHB[ ]	/* 7 values pushed */
52 51 36 34 4 9 26 
CALL[ ]	/* CallFunction */";
};
width = 196;
}
);
note = i;
unicode = 105;
},
{
glyphname = j;
layers = (
{
layerId = m01;
shapes = (
{
closed = 1;
nodes = (
(-65,-58,qs),
(-62,-58,o),
(-56,-60,qs),
(-24,-74,o),
(-4,-74,qs),
(20,-74,o),
(40,-45,o),
(40,-10,qs),
(40,369,ls),
(40,382,o),
(53,382,qs),
(58,382,ls),
(109,382,o),
(155,335,o),
(155,284,qs),
(155,-17,ls),
(155,-171,o),
(34,-171,qs),
(-14,-171,o),
(-78,-118,o),
(-78,-78,qs),
(-78,-58,o)
);
},
{
closed = 1;
nodes = (
(71,546,o),
(98,546,qs),
(124,546,o),
(160,508,o),
(160,481,qs),
(160,454,o),
(124,417,o),
(98,417,qs),
(71,417,o),
(34,454,o),
(34,481,qs),
(34,508,o)
);
}
);
userData = {
assembly = "MPPEM[ ]	/* MeasurePixelPerEm */
PUSHB[ ]	/* 1 value pushed */
11 
LT[ ]	/* LessThan */
IF[ ]	/* If */
NPUSHB[ ]	/* 27 values pushed */
0 4 4 5 97 0 5 5 39 77 0 1 1 42 77 3 1 2 2 0 98 0 0 0 50 0 78 
ELSE[ ]	/* Else */
MPPEM[ ]	/* MeasurePixelPerEm */
PUSHB[ ]	/* 1 value pushed */
40 
LT[ ]	/* LessThan */
IF[ ]	/* If */
NPUSHB[ ]	/* 34 values pushed */
0 3 1 2 1 3 2 128 0 4 4 5 97 0 5 5 39 77 0 1 1 42 77 0 2 2 0 98 0 0 0 50 0 78 
ELSE[ ]	/* Else */
NPUSHB[ ]	/* 32 values pushed */
0 3 1 2 1 3 2 128 0 5 0 4 1 5 4 105 0 1 1 42 77 0 2 2 0 98 0 0 0 50 0 78 
EIF[ ]	/* EndIf */
EIF[ ]	/* EndIf */
NPUSHB[ ]	/* 9 values pushed */
36 35 34 36 52 34 6 9 28 
CALL[ ]	/* CallFunction */";
};
width = 196;
}
);
note = j;
unicode = 106;
},
{
glyphname = k;
layers = (
{
layerId = m01;
shapes = (
{
closed = 1;
nodes = (
(155,0,o),
(142,0,qs),
(54,0,ls),
(41,0,o),
(41,13,qs),
(41,543,ls),
(41,556,o),
(54,556,qs),
(59,556,ls),
(109,556,o),
(155,509,o),
(155,458,qs),
(155,253,l),
(257,369,ls),
(268,382,o),
(281,382,qs),
(382,382,ls),
(387,382,o),
(391,373,o),
(387,369,qs),
(273,242,l),
(401,13,l),
(403,8,o),
(399,0,o),
(394,0,qs),
(294,0,ls),
(277,0,o),
(271,13,qs),
(195,157,l),
(155,113,l),
(155,13,ls)
);
}
);
userData = {
assembly = "NPUSHB[ ]	/* 33 values pushed */
17 9 1 0 4 0 1 1 76 0 2 2 39 77 0 1 1 42 77 3 1 0 0 40 0 78 51 53 55 35 4 9 26 
CALL[ ]	/* CallFunction */";
};
width = 410;
}
);
note = k;
unicode = 107;
},
{
glyphname = l;
kernRight = l;
layers = (
{
layerId = m01;
shapes = (
{
closed = 1;
nodes = (
(41,131,qs),
(41,543,ls),
(41,556,o),
(54,556,qs),
(59,556,ls),
(109,556,o),
(155,509,o),
(155,458,qs),
(155,144,ls),
(155,90,o),
(193,90,qs),
(212,90,o),
(234,105,qs),
(241,110,o),
(246,110,qs),
(257,110,o),
(257,95,qs),
(257,48,o),
(201,-8,o),
(153,-8,qs),
(41,-8,o)
);
}
);
userData = {
assembly = "MPPEM[ ]	/* MeasurePixelPerEm */
PUSHB[ ]	/* 1 value pushed */
9 
LT[ ]	/* LessThan */
IF[ ]	/* If */
NPUSHB[ ]	/* 18 values pushed */
0 3 3 39 77 2 1 1 1 0 98 4 1 0 0 46 0 78 
ELSE[ ]	/* Else */
NPUSHB[ ]	/* 25 values pushed */
0 1 3 2 3 1 2 128 0 3 3 39 77 0 2 2 0 98 4 1 0 0 46 0 78 
EIF[ ]	/* EndIf */
NPUSHB[ ]	/* 15 values pushed */
1 0 17 14 10 8 5 4 0 20 1 20 5 9 22 
CALL[ ]	/* CallFunction */";
};
width = 256;
}
);
note = l;
unicode = 108;
},
{
glyphname = m;
layers = (
{
layerId = m01;
shapes = (
{
closed = 1;
nodes = (
(250,391,qs),
(338,391,o),
(376,326,q),
(424,391,o),
(495,391,qs),
(646,391,o),
(646,217,qs),
(646,13,ls),
(646,0,o),
(633,0,qs),
(545,0,ls),
(532,0,o),
(532,13,qs),
(532,207,ls),
(532,287,o),
(468,287,qs),
(437,287,o),
(401,244,o),
(401,208,qs),
(401,13,ls),
(401,0,o),
(388,0,qs),
(299,0,ls),
(286,0,o),
(286,13,qs),
(286,207,ls),
(286,287,o),
(223,287,qs),
(192,287,o),
(155,244,o),
(155,208,qs),
(155,13,ls),
(155,0,o),
(142,0,qs),
(54,0,ls),
(41,0,o),
(41,13,qs),
(41,369,ls),
(41,382,o),
(54,382,qs),
(59,382,ls),
(127,382,o),
(146,338,q),
(189,391,o)
);
}
);
userData = {
assembly = "PUSHB[ ]	/* 6 values pushed */
40 1 2 0 1 76 
MPPEM[ ]	/* MeasurePixelPerEm */
PUSHB[ ]	/* 1 value pushed */
22 
LT[ ]	/* LessThan */
IF[ ]	/* If */
NPUSHB[ ]	/* 21 values pushed */
4 1 2 2 0 97 7 6 2 0 0 42 77 5 3 2 1 1 40 1 78 
ELSE[ ]	/* Else */
NPUSHB[ ]	/* 25 values pushed */
0 0 0 42 77 4 1 2 2 6 97 7 1 6 6 48 77 5 3 2 1 1 40 1 78 
EIF[ ]	/* EndIf */
NPUSHB[ ]	/* 11 values pushed */
34 35 51 36 51 36 51 49 8 9 30 
CALL[ ]	/* CallFunction */";
};
width = 685;
}
);
note = m;
unicode = 109;
},
{
glyphname = n;
kernLeft = n;
kernRight = n;
layers = (
{
layerId = m01;
shapes = (
{
closed = 1;
nodes = (
(256,391,qs),
(409,391,o),
(409,217,qs),
(409,13,ls),
(409,0,o),
(396,0,qs),
(307,0,ls),
(294,0,o),
(294,13,qs),
(294,205,ls),
(294,285,o),
(224,285,qs),
(155,285,o),
(155,206,qs),
(155,13,ls),
(155,0,o),
(142,0,qs),
(54,0,ls),
(41,0,o),
(41,13,qs),
(41,369,ls),
(41,382,o),
(54,382,qs),
(59,382,ls),
(129,382,o),
(147,335,q),
(189,391,o)
);
}
);
userData = {
assembly = "MPPEM[ ]	/* MeasurePixelPerEm */
PUSHB[ ]	/* 1 value pushed */
22 
LT[ ]	/* LessThan */
IF[ ]	/* If */
NPUSHB[ ]	/* 18 values pushed */
0 2 2 0 97 4 1 0 0 42 77 3 1 1 1 40 1 78 
ELSE[ ]	/* Else */
NPUSHB[ ]	/* 22 values pushed */
0 0 0 42 77 0 2 2 4 97 0 4 4 48 77 3 1 1 1 40 1 78 
EIF[ ]	/* EndIf */
PUSHB[ ]	/* 8 values pushed */
35 51 35 51 49 5 9 27 
CALL[ ]	/* CallFunction */";
};
width = 447;
}
);
note = n;
unicode = 110;
},
{
glyphname = o;
kernLeft = o;
kernRight = o;
layers = (
{
layerId = m01;
shapes = (
{
closed = 1;
nodes = (
(308,190,qs),
(308,235,o),
(266,284,o),
(228,284,qs),
(190,284,o),
(147,235,o),
(147,190,qs),
(147,98,o),
(227,98,qs),
(308,98,o)
);
},
{
closed = 1;
nodes = (
(90,39,qs),
(29,94,o),
(29,192,qs),
(29,277,o),
(75,330,qs),
(129,393,o),
(227,393,qs),
(312,393,o),
(365,344,qs),
(427,289,o),
(427,192,qs),
(427,107,o),
(380,53,qs),
(326,-10,o),
(229,-10,qs),
(144,-10,o)
);
}
);
userData = {
assembly = "NPUSHB[ ]	/* 42 values pushed */
0 1 1 3 97 0 3 3 48 77 4 1 0 0 2 97 5 1 2 2 46 2 78 11 10 1 0 19 17 10 25 11 25 6 4 0 9 1 9 6 9 22 
CALL[ ]	/* CallFunction */";
};
width = 455;
}
);
note = o;
unicode = 111;
},
{
glyphname = p;
layers = (
{
layerId = m01;
shapes = (
{
closed = 1;
nodes = (
(285,113,qs),
(321,136,o),
(321,193,qs),
(321,283,o),
(237,283,qs),
(155,283,o),
(155,193,qs),
(155,149,o),
(199,98,o),
(237,98,qs),
(264,98,o)
);
},
{
closed = 1;
nodes = (
(155,-160,o),
(142,-160,qs),
(54,-160,ls),
(41,-160,o),
(41,-147,qs),
(41,369,ls),
(41,382,o),
(54,382,qs),
(59,382,ls),
(127,382,o),
(146,338,q),
(188,393,o),
(258,393,qs),
(340,393,o),
(388,342,qs),
(440,288,o),
(440,194,qs),
(440,112,o),
(402,58,qs),
(355,-9,o),
(268,-9,qs),
(195,-9,o),
(155,40,q),
(155,-147,ls)
);
}
);
userData = {
assembly = "MPPEM[ ]	/* MeasurePixelPerEm */
PUSHB[ ]	/* 1 value pushed */
18 
LT[ ]	/* LessThan */
IF[ ]	/* If */
NPUSHB[ ]	/* 10 values pushed */
23 1 1 3 11 1 2 0 2 76 
ELSE[ ]	/* Else */
NPUSHB[ ]	/* 10 values pushed */
23 1 1 4 11 1 2 0 2 76 
EIF[ ]	/* EndIf */
MPPEM[ ]	/* MeasurePixelPerEm */
PUSHB[ ]	/* 1 value pushed */
18 
LT[ ]	/* LessThan */
IF[ ]	/* If */
NPUSHB[ ]	/* 28 values pushed */
0 1 1 3 97 4 1 3 3 48 77 6 1 0 0 2 97 0 2 2 46 77 0 5 5 44 5 78 
ELSE[ ]	/* Else */
NPUSHB[ ]	/* 32 values pushed */
0 4 4 42 77 0 1 1 3 97 0 3 3 48 77 6 1 0 0 2 97 0 2 2 46 77 0 5 5 44 5 78 
EIF[ ]	/* EndIf */
NPUSHB[ ]	/* 19 values pushed */
1 0 33 30 27 24 22 20 14 12 6 4 0 10 1 10 7 9 22 
CALL[ ]	/* CallFunction */";
};
width = 468;
}
);
note = p;
unicode = 112;
},
{
glyphname = q;
layers = (
{
layerId = m01;
shapes = (
{
closed = 1;
nodes = (
(279,113,qs),
(313,136,o),
(313,193,qs),
(313,283,o),
(232,283,qs),
(147,283,o),
(147,193,qs),
(147,149,o),
(193,98,o),
(232,98,qs),
(258,98,o)
);
},
{
closed = 1;
nodes = (
(201,-9,qs),
(124,-9,o),
(78,44,qs),
(29,99,o),
(29,194,qs),
(29,274,o),
(70,328,qs),
(118,394,o),
(203,394,qs),
(279,394,o),
(325,343,q),
(345,382,o),
(410,382,qs),
(415,382,ls),
(428,382,o),
(428,369,qs),
(428,-147,ls),
(428,-160,o),
(415,-160,qs),
(326,-160,ls),
(313,-160,o),
(313,-147,qs),
(313,43,l),
(271,-9,o)
);
}
);
userData = {
assembly = "NPUSHB[ ]	/* 10 values pushed */
23 1 1 3 11 1 5 0 2 76 
MPPEM[ ]	/* MeasurePixelPerEm */
PUSHB[ ]	/* 1 value pushed */
15 
LT[ ]	/* LessThan */
IF[ ]	/* If */
NPUSHB[ ]	/* 28 values pushed */
0 1 1 3 97 4 1 3 3 42 77 6 1 0 0 5 97 0 5 5 46 77 0 2 2 44 2 78 
ELSE[ ]	/* Else */
NPUSHB[ ]	/* 32 values pushed */
0 3 3 42 77 0 1 1 4 97 0 4 4 48 77 6 1 0 0 5 97 0 5 5 46 77 0 2 2 44 2 78 
EIF[ ]	/* EndIf */
NPUSHB[ ]	/* 19 values pushed */
1 0 34 32 26 24 22 19 16 13 6 4 0 10 1 10 7 9 22 
CALL[ ]	/* CallFunction */";
};
width = 468;
}
);
note = q;
unicode = 113;
},
{
glyphname = r;
kernLeft = r;
layers = (
{
layerId = m01;
shapes = (
{
closed = 1;
nodes = (
(212,382,o),
(254,382,qs),
(266,382,ls),
(279,382,o),
(279,369,qs),
(279,288,ls),
(279,275,o),
(266,275,qs),
(237,275,ls),
(189,275,o),
(171,250,qs),
(155,229,o),
(155,170,qs),
(155,13,ls),
(155,0,o),
(142,0,qs),
(54,0,ls),
(41,0,o),
(41,13,qs),
(41,369,ls),
(41,382,o),
(54,382,qs),
(59,382,ls),
(134,382,o),
(150,327,q),
(169,359,o)
);
}
);
userData = {
assembly = "NPUSHB[ ]	/* 24 values pushed */
0 2 2 0 97 3 1 0 0 42 77 0 1 1 40 1 78 51 53 51 49 4 9 26 
CALL[ ]	/* CallFunction */";
};
width = 298;
}
);
note = r;
unicode = 114;
},
{
glyphname = s;
kernLeft = s;
layers = (
{
layerId = m01;
shapes = (
{
closed = 1;
nodes = (
(150,81,qs),
(200,81,o),
(200,112,qs),
(200,130,o),
(155,146,qs),
(92,169,o),
(73,183,qs),
(28,214,o),
(28,268,qs),
(28,328,o),
(71,361,qs),
(113,393,o),
(183,393,qs),
(225,393,o),
(257,379,qs),
(288,365,o),
(306,327,o),
(296,294,qs),
(293,284,ls),
(291,276,o),
(284,276,qs),
(280,276,o),
(273,279,qs),
(271,280,o),
(270,280,q),
(222,302,o),
(180,302,qs),
(143,302,o),
(143,275,qs),
(143,256,o),
(188,239,qs),
(253,214,o),
(271,202,qs),
(315,172,o),
(315,122,qs),
(315,67,o),
(279,31,qs),
(238,-10,o),
(165,-10,qs),
(105,-10,o),
(64,18,qs),
(16,51,o),
(16,102,qs),
(16,123,o),
(29,123,qs),
(31,123,o),
(36,121,q),
(37,120,o),
(37,120,q),
(93,81,o)
);
}
);
userData = {
assembly = "NPUSHB[ ]	/* 45 values pushed */
0 3 2 0 2 3 0 128 0 0 5 2 0 5 126 0 2 2 4 97 0 4 4 48 77 0 5 5 1 97 0 1 1 46 1 78 42 38 36 42 36 35 6 9 28 
CALL[ ]	/* CallFunction */";
};
width = 331;
}
);
note = s;
unicode = 115;
},
{
glyphname = t;
layers = (
{
layerId = m01;
shapes = (
{
closed = 1;
nodes = (
(12,280,o),
(12,293,qs),
(12,369,ls),
(12,382,o),
(25,382,qs),
(91,382,l),
(91,503,ls),
(91,516,o),
(103,516,qs),
(108,516,ls),
(159,516,o),
(205,469,o),
(205,418,qs),
(205,382,l),
(287,382,ls),
(300,382,o),
(300,369,qs),
(300,293,ls),
(300,280,o),
(287,280,qs),
(205,280,l),
(205,13,ls),
(205,0,o),
(192,0,qs),
(103,0,ls),
(91,0,o),
(91,13,qs),
(91,280,l),
(25,280,ls)
);
}
);
userData = {
assembly = "NPUSHB[ ]	/* 38 values pushed */
6 5 2 1 1 2 95 4 1 2 2 42 77 0 3 3 0 95 0 0 0 40 0 78 0 0 0 28 0 27 34 51 35 34 50 7 9 27 
CALL[ ]	/* CallFunction */";
};
width = 318;
}
);
note = t;
unicode = 116;
},
{
glyphname = u;
kernLeft = u;
kernRight = u;
layers = (
{
layerId = m01;
shapes = (
{
closed = 1;
nodes = (
(40,192,qs),
(40,369,ls),
(40,382,o),
(53,382,qs),
(58,382,ls),
(108,382,o),
(154,335,o),
(154,284,qs),
(154,176,ls),
(154,96,o),
(223,96,qs),
(293,96,o),
(293,175,qs),
(293,369,ls),
(293,382,o),
(306,382,qs),
(311,382,ls),
(362,382,o),
(408,335,o),
(408,284,qs),
(408,185,ls),
(408,-10,o),
(223,-10,qs),
(40,-10,o)
);
}
);
userData = {
assembly = "NPUSHB[ ]	/* 33 values pushed */
3 1 1 1 42 77 0 2 2 0 98 4 1 0 0 46 0 78 1 0 20 17 13 11 8 5 0 23 1 23 5 9 22 
CALL[ ]	/* CallFunction */";
};
width = 447;
}
);
note = u;
unicode = 117;
},
{
glyphname = v;
layers = (
{
layerId = m01;
shapes = (
{
closed = 1;
nodes = (
(289,382,o),
(301,382,qs),
(393,382,ls),
(405,382,o),
(402,369,q),
(279,13,ls),
(275,0,o),
(262,0,qs),
(150,0,ls),
(136,0,o),
(132,13,qs),
(11,369,ls),
(6,382,o),
(18,382,qs),
(37,382,ls),
(90,382,o),
(137,342,o),
(154,284,qs),
(207,104,l),
(285,369,ls)
);
}
);
userData = {
assembly = "NPUSHB[ ]	/* 18 values pushed */
2 1 0 0 42 77 0 1 1 40 1 78 51 51 51 3 9 25 
CALL[ ]	/* CallFunction */";
};
width = 406;
}
);
note = v;
unicode = 118;
},
{
glyphname = w;
layers = (
{
layerId = m01;
shapes = (
{
closed = 1;
nodes = (
(257,382,o),
(272,382,qs),
(284,382,ls),
(338,382,o),
(385,342,o),
(400,284,qs),
(436,133,l),
(502,369,ls),
(506,382,o),
(520,382,qs),
(596,382,ls),
(609,382,o),
(605,369,qs),
(501,13,ls),
(497,0,o),
(484,0,qs),
(392,0,ls),
(379,0,o),
(375,13,qs),
(312,236,l),
(251,13,l),
(249,0,o),
(236,0,qs),
(141,0,ls),
(128,0,o),
(123,13,qs),
(13,369,ls),
(9,382,o),
(22,382,qs),
(39,382,ls),
(92,382,o),
(139,342,o),
(154,284,qs),
(193,135,l),
(254,369,ls)
);
}
);
userData = {
assembly = "NPUSHB[ ]	/* 29 values pushed */
27 14 2 1 0 1 76 4 3 2 0 0 42 77 2 1 1 1 40 1 78 53 51 52 51 51 5 9 27 
CALL[ ]	/* CallFunction */";
};
width = 612;
}
);
note = w;
unicode = 119;
},
{
glyphname = x;
layers = (
{
layerId = m01;
shapes = (
{
closed = 1;
nodes = (
(121,0,o),
(108,0,qs),
(19,0,ls),
(14,0,o),
(10,8,o),
(13,13,qs),
(129,200,l),
(25,369,ls),
(22,374,o),
(25,382,o),
(31,382,qs),
(73,382,ls),
(116,382,o),
(155,357,o),
(183,310,qs),
(203,277,l),
(260,369,ls),
(269,382,o),
(283,382,qs),
(367,382,ls),
(381,382,o),
(374,369,qs),
(276,207,l),
(395,13,ls),
(398,9,o),
(393,0,o),
(388,0,qs),
(295,0,ls),
(279,0,o),
(271,13,qs),
(200,132,l),
(129,13,ls)
);
}
);
userData = {
assembly = "NPUSHB[ ]	/* 28 values pushed */
24 15 8 3 0 1 1 76 2 1 1 1 42 77 3 1 0 0 40 0 78 55 37 54 34 4 9 26 
CALL[ ]	/* CallFunction */";
};
width = 406;
}
);
note = x;
unicode = 120;
},
{
glyphname = y;
kernLeft = y;
kernRight = y;
layers = (
{
layerId = m01;
shapes = (
{
closed = 1;
nodes = (
(3,382,o),
(16,382,qs),
(40,382,ls),
(90,382,o),
(136,344,o),
(157,284,qs),
(211,128,l),
(292,369,ls),
(296,382,o),
(308,382,qs),
(398,382,ls),
(410,382,o),
(404,369,q),
(276,7,ls),
(242,-91,o),
(166,-171,o),
(106,-171,qs),
(60,-171,o),
(-2,-115,o),
(-2,-73,qs),
(-2,-52,o),
(11,-52,qs),
(15,-52,o),
(20,-55,qs),
(49,-74,o),
(76,-74,qs),
(124,-74,o),
(148,-10,q),
(9,369,l)
);
}
);
userData = {
assembly = "NPUSHB[ ]	/* 39 values pushed */
21 1 1 3 1 76 0 1 3 0 3 1 0 128 4 1 3 3 42 77 0 0 0 2 98 0 2 2 50 2 78 53 52 35 34 33 5 9 27 
CALL[ ]	/* CallFunction */";
};
width = 412;
}
);
note = y;
unicode = 121;
},
{
glyphname = z;
kernLeft = z;
kernRight = z;
layers = (
{
layerId = m01;
shapes = (
{
closed = 1;
nodes = (
(337,101,o),
(337,88,qs),
(337,13,ls),
(337,0,o),
(324,0,qs),
(37,0,ls),
(24,0,o),
(24,13,qs),
(24,62,ls),
(24,81,o),
(37,97,qs),
(186,280,l),
(45,280,ls),
(32,280,o),
(32,293,qs),
(32,369,ls),
(32,382,o),
(45,382,qs),
(265,382,ls),
(303,382,o),
(331,351,o),
(331,309,qs),
(331,293,o),
(318,276,qs),
(173,101,l),
(324,101,ls)
);
}
);
userData = {
assembly = "NPUSHB[ ]	/* 34 values pushed */
0 1 1 0 95 0 0 0 42 77 4 1 3 3 2 95 0 2 2 40 2 78 0 0 0 25 0 24 53 35 53 5 9 25 
CALL[ ]	/* CallFunction */";
};
width = 361;
}
);
note = z;
unicode = 122;
},
{
glyphname = braceleft;
layers = (
{
layerId = m01;
shapes = (
{
closed = 1;
nodes = (
(197,157,qs),
(197,-45,ls),
(197,-51,o),
(203,-51,qs),
(233,-51,ls),
(302,-51,o),
(302,-118,qs),
(302,-126,ls),
(302,-144,o),
(286,-144,qs),
(168,-144,ls),
(99,-144,o),
(99,-77,qs),
(99,149,ls),
(99,222,o),
(50,232,q),
(40,233,o),
(40,243,qs),
(40,305,ls),
(40,316,o),
(50,317,q),
(99,327,o),
(99,399,qs),
(99,626,ls),
(99,692,o),
(168,692,qs),
(286,692,ls),
(302,692,o),
(302,675,qs),
(302,666,ls),
(302,600,o),
(233,600,qs),
(203,600,ls),
(197,600,o),
(197,594,qs),
(197,393,ls),
(197,304,o),
(151,275,q),
(197,243,o)
);
}
);
userData = {
assembly = "PUSHB[ ]	/* 7 values pushed */
36 3 2 3 0 1 76 
MPPEM[ ]	/* MeasurePixelPerEm */
PUSHB[ ]	/* 1 value pushed */
26 
LT[ ]	/* LessThan */
IF[ ]	/* If */
NPUSHB[ ]	/* 19 values pushed */
0 1 0 0 3 1 0 105 0 3 3 2 95 0 2 2 44 2 78 
ELSE[ ]	/* Else */
NPUSHB[ ]	/* 24 values pushed */
0 1 0 0 3 1 0 105 0 3 2 2 3 89 0 3 3 2 95 0 2 3 2 79 
EIF[ ]	/* EndIf */
PUSHB[ ]	/* 7 values pushed */
35 61 51 37 4 9 26 
CALL[ ]	/* CallFunction */";
};
width = 352;
}
);
note = braceleft;
unicode = 123;
},
{
glyphname = bar;
layers = (
{
layerId = m01;
shapes = (
{
closed = 1;
nodes = (
(50,566,o),
(63,566,qs),
(150,566,o),
(150,469,qs),
(150,-136,ls),
(150,-149,o),
(137,-149,qs),
(63,-149,ls),
(50,-149,o),
(50,-136,qs),
(50,554,ls)
);
}
);
userData = {
assembly = "MPPEM[ ]	/* MeasurePixelPerEm */
PUSHB[ ]	/* 1 value pushed */
36 
LT[ ]	/* LessThan */
IF[ ]	/* If */
NPUSHB[ ]	/* 11 values pushed */
0 1 1 39 77 0 0 0 44 0 78 
ELSE[ ]	/* Else */
MPPEM[ ]	/* MeasurePixelPerEm */
PUSHB[ ]	/* 1 value pushed */
40 
LT[ ]	/* LessThan */
IF[ ]	/* If */
NPUSHB[ ]	/* 11 values pushed */
0 0 0 1 97 0 1 1 39 0 78 
ELSE[ ]	/* Else */
NPUSHB[ ]	/* 16 values pushed */
0 1 0 0 1 89 0 1 1 0 95 0 0 1 0 79 
EIF[ ]	/* EndIf */
EIF[ ]	/* EndIf */
PUSHB[ ]	/* 5 values pushed */
35 49 2 9 24 
CALL[ ]	/* CallFunction */";
};
width = 200;
}
);
note = bar;
unicode = 124;
},
{
glyphname = braceright;
layers = (
{
layerId = m01;
shapes = (
{
closed = 1;
nodes = (
(152,393,qs),
(152,594,ls),
(152,600,o),
(146,600,qs),
(117,600,ls),
(47,600,o),
(47,666,qs),
(47,675,ls),
(47,692,o),
(63,692,qs),
(182,692,ls),
(251,692,o),
(251,626,qs),
(251,399,ls),
(251,327,o),
(299,317,q),
(309,316,o),
(309,305,qs),
(309,243,ls),
(309,233,o),
(299,232,q),
(251,222,o),
(251,149,qs),
(251,-77,ls),
(251,-144,o),
(182,-144,qs),
(63,-144,ls),
(47,-144,o),
(47,-126,qs),
(47,-118,ls),
(47,-51,o),
(117,-51,qs),
(146,-51,ls),
(152,-51,o),
(152,-45,qs),
(152,157,ls),
(152,243,o),
(198,275,q),
(152,304,o)
);
}
);
userData = {
assembly = "PUSHB[ ]	/* 7 values pushed */
36 3 2 0 3 1 76 
MPPEM[ ]	/* MeasurePixelPerEm */
PUSHB[ ]	/* 1 value pushed */
26 
LT[ ]	/* LessThan */
IF[ ]	/* If */
NPUSHB[ ]	/* 19 values pushed */
0 2 0 3 0 2 3 105 0 0 0 1 95 0 1 1 44 1 78 
ELSE[ ]	/* Else */
NPUSHB[ ]	/* 24 values pushed */
0 2 0 3 0 2 3 105 0 0 1 1 0 89 0 0 0 1 95 0 1 0 1 79 
EIF[ ]	/* EndIf */
PUSHB[ ]	/* 7 values pushed */
35 61 51 37 4 9 26 
CALL[ ]	/* CallFunction */";
};
width = 353;
}
);
note = braceright;
unicode = 125;
},
{
glyphname = asciitilde;
layers = (
{
layerId = m01;
shapes = (
{
closed = 1;
nodes = (
(35,222,o),
(35,228,qs),
(35,298,ls),
(35,317,o),
(45,327,qs),
(83,361,o),
(131,361,qs),
(169,361,o),
(223,340,qs),
(288,314,o),
(316,314,qs),
(369,314,o),
(402,351,qs),
(406,355,o),
(413,352,o),
(413,347,qs),
(413,276,ls),
(413,256,o),
(403,247,qs),
(366,214,o),
(316,214,qs),
(277,214,o),
(224,235,qs),
(159,260,o),
(131,260,qs),
(80,260,o),
(46,224,q),
(43,219,o)
);
}
);
userData = {
assembly = "PUSHB[ ]	/* 2 values pushed */
6 100 
WCVTP[ ]	/* WriteCVTInPixels */
NPUSHB[ ]	/* 41 values pushed */
11 1 2 3 25 1 1 0 2 76 0 2 0 1 2 89 0 3 0 0 1 3 0 105 0 2 2 1 97 0 1 2 1 81 34 40 34 33 4 9 26 
CALL[ ]	/* CallFunction */
PUSHB[ ]	/* 2 values pushed */
6 0 
WCVTP[ ]	/* WriteCVTInPixels */";
};
width = 447;
}
);
note = asciitilde;
unicode = 126;
},
{
glyphname = exclamdown;
layers = (
{
layerId = m01;
shapes = (
{
closed = 1;
nodes = (
(28,293,o),
(28,323,qs),
(28,353,o),
(66,393,o),
(96,393,qs),
(125,393,o),
(165,353,o),
(165,323,qs),
(165,293,o),
(125,252,o),
(96,252,qs),
(66,252,o)
);
},
{
closed = 1;
nodes = (
(48,220,o),
(61,220,qs),
(142,220,o),
(146,119,qs),
(156,-160,ls),
(156,-173,o),
(143,-173,qs),
(49,-173,ls),
(36,-173,o),
(36,-160,qs),
(48,207,ls)
);
}
);
userData = {
assembly = "MPPEM[ ]	/* MeasurePixelPerEm */
PUSHB[ ]	/* 1 value pushed */
30 
LT[ ]	/* LessThan */
IF[ ]	/* If */
NPUSHB[ ]	/* 22 values pushed */
4 1 0 0 1 97 0 1 1 48 77 0 3 3 2 95 0 2 2 44 2 78 
ELSE[ ]	/* Else */
NPUSHB[ ]	/* 19 values pushed */
0 3 0 2 3 2 99 4 1 0 0 1 97 0 1 1 48 0 78 
EIF[ ]	/* EndIf */
NPUSHB[ ]	/* 15 values pushed */
1 0 21 19 16 13 7 5 0 11 1 11 5 9 22 
CALL[ ]	/* CallFunction */";
};
width = 200;
}
);
note = exclamdown;
unicode = 161;
},
{
glyphname = cent;
layers = (
{
layerId = m01;
shapes = (
{
closed = 1;
nodes = (
(144,264,o),
(144,189,qs),
(144,113,o),
(202,92,q),
(202,283,l)
);
},
{
closed = 1;
nodes = (
(262,-65,o),
(249,-65,qs),
(215,-65,ls),
(202,-65,o),
(202,-52,qs),
(202,-10,l),
(129,-6,o),
(83,41,qs),
(29,96,o),
(29,192,qs),
(29,273,o),
(71,325,qs),
(118,384,o),
(202,392,q),
(202,444,ls),
(202,457,o),
(215,457,qs),
(249,457,ls),
(262,457,o),
(262,444,qs),
(262,390,l),
(282,386,o),
(299,381,qs),
(355,361,o),
(338,296,qs),
(333,275,ls),
(331,265,o),
(324,265,qs),
(319,265,o),
(313,268,qs),
(283,283,o),
(262,287,q),
(262,86,l),
(294,91,o),
(327,111,qs),
(336,117,o),
(341,117,qs),
(352,117,o),
(352,101,qs),
(352,65,o),
(302,6,o),
(262,-4,q),
(262,-52,ls)
);
}
);
userData = {
assembly = "NPUSHB[ ]	/* 51 values pushed */
33 26 15 4 4 1 2 14 5 0 3 3 0 2 76 0 1 2 0 2 1 0 128 0 0 3 2 0 3 126 0 2 0 4 2 4 101 0 3 3 46 3 78 50 25 56 40 25 5 9 27 
CALL[ ]	/* CallFunction */";
};
width = 369;
}
);
note = cent;
unicode = 162;
},
{
glyphname = sterling;
layers = (
{
layerId = m01;
shapes = (
{
closed = 1;
nodes = (
(435,106,o),
(435,40,qs),
(435,17,ls),
(435,0,o),
(419,0,qs),
(50,0,ls),
(37,0,o),
(37,13,qs),
(37,93,ls),
(37,106,o),
(50,106,qs),
(134,106,l),
(152,156,o),
(152,193,qs),
(152,210,o),
(147,230,q),
(50,230,ls),
(37,230,o),
(37,242,qs),
(37,323,ls),
(37,336,o),
(50,336,qs),
(104,336,l),
(87,375,o),
(87,406,qs),
(87,480,o),
(134,522,qs),
(184,566,o),
(277,566,qs),
(332,566,o),
(384,547,qs),
(418,533,o),
(438,494,o),
(428,461,qs),
(420,436,ls),
(417,427,o),
(410,427,qs),
(405,427,o),
(395,432,qs),
(336,463,o),
(278,463,qs),
(244,463,o),
(206,429,o),
(206,400,qs),
(206,377,o),
(223,336,q),
(316,336,ls),
(386,336,o),
(386,269,qs),
(386,246,ls),
(386,230,o),
(370,230,qs),
(261,230,l),
(265,214,o),
(265,193,qs),
(265,151,o),
(247,106,q),
(365,106,ls)
);
}
);
userData = {
assembly = "MPPEM[ ]	/* MeasurePixelPerEm */
PUSHB[ ]	/* 1 value pushed */
40 
LT[ ]	/* LessThan */
IF[ ]	/* If */
NPUSHB[ ]	/* 41 values pushed */
0 3 2 1 2 3 1 128 5 1 1 6 1 0 7 1 0 103 0 2 2 4 97 0 4 4 39 77 10 9 2 7 7 8 95 0 8 8 40 8 78 
ELSE[ ]	/* Else */
NPUSHB[ ]	/* 39 values pushed */
0 3 2 1 2 3 1 128 0 4 0 2 3 4 2 105 5 1 1 6 1 0 7 1 0 103 10 9 2 7 7 8 95 0 8 8 40 8 78 
EIF[ ]	/* EndIf */
NPUSHB[ ]	/* 18 values pushed */
0 0 0 57 0 56 51 36 35 37 38 34 36 35 36 11 9 31 
CALL[ ]	/* CallFunction */";
};
width = 467;
}
);
note = sterling;
unicode = 163;
},
{
glyphname = yen;
layers = (
{
layerId = m01;
shapes = (
{
closed = 1;
nodes = (
(54,120,o),
(54,133,qs),
(54,189,ls),
(54,202,o),
(67,202,qs),
(199,202,l),
(199,203,l),
(173,251,l),
(67,251,ls),
(54,251,o),
(54,264,qs),
(54,320,ls),
(54,333,o),
(67,333,qs),
(130,333,l),
(19,543,ls),
(13,556,o),
(27,556,qs),
(76,556,ls),
(112,556,o),
(158,528,o),
(175,495,qs),
(262,322,l),
(374,543,l),
(379,556,o),
(394,556,qs),
(490,556,ls),
(504,556,o),
(498,543,qs),
(387,333,l),
(448,333,ls),
(461,333,o),
(461,320,qs),
(461,264,ls),
(461,251,o),
(448,251,qs),
(344,251,l),
(317,202,l),
(448,202,ls),
(461,202,o),
(461,189,qs),
(461,133,ls),
(461,120,o),
(448,120,qs),
(316,120,l),
(316,13,ls),
(316,0,o),
(303,0,qs),
(212,0,ls),
(199,0,o),
(199,13,qs),
(199,120,l),
(67,120,ls)
);
}
);
userData = {
assembly = "NPUSHB[ ]	/* 59 values pushed */
29 1 3 4 1 76 7 1 4 8 1 3 2 4 3 104 9 1 2 11 10 2 1 0 2 1 103 6 1 5 5 39 77 0 0 0 40 0 78 0 0 0 52 0 51 48 45 35 34 53 50 35 33 35 34 50 12 9 31 
CALL[ ]	/* CallFunction */";
};
width = 509;
}
);
note = yen;
unicode = 165;
},
{
glyphname = brokenbar;
layers = (
{
layerId = m01;
shapes = (
{
closed = 1;
nodes = (
(50,566,o),
(63,566,qs),
(150,566,o),
(150,469,qs),
(150,264,ls),
(150,251,o),
(137,251,qs),
(63,251,ls),
(50,251,o),
(50,264,qs),
(50,554,ls)
);
},
{
closed = 1;
nodes = (
(50,166,o),
(63,166,qs),
(137,166,ls),
(150,166,o),
(150,153,qs),
(150,-136,ls),
(150,-149,o),
(137,-149,qs),
(63,-149,ls),
(50,-149,o),
(50,-136,qs),
(50,153,ls)
);
}
);
userData = {
assembly = "MPPEM[ ]	/* MeasurePixelPerEm */
PUSHB[ ]	/* 1 value pushed */
36 
LT[ ]	/* LessThan */
IF[ ]	/* If */
NPUSHB[ ]	/* 21 values pushed */
0 0 0 1 97 0 1 1 39 77 0 3 3 2 95 0 2 2 44 2 78 
ELSE[ ]	/* Else */
MPPEM[ ]	/* MeasurePixelPerEm */
PUSHB[ ]	/* 1 value pushed */
40 
LT[ ]	/* LessThan */
IF[ ]	/* If */
NPUSHB[ ]	/* 18 values pushed */
0 3 0 2 3 2 99 0 0 0 1 97 0 1 1 39 0 78 
ELSE[ ]	/* Else */
NPUSHB[ ]	/* 24 values pushed */
0 1 0 0 3 1 0 103 0 3 2 2 3 87 0 3 3 2 95 0 2 3 2 79 
EIF[ ]	/* EndIf */
EIF[ ]	/* EndIf */
PUSHB[ ]	/* 7 values pushed */
51 51 35 49 4 9 26 
CALL[ ]	/* CallFunction */";
};
width = 200;
}
);
note = brokenbar;
unicode = 166;
},
{
glyphname = section;
layers = (
{
layerId = m01;
shapes = (
{
closed = 1;
nodes = (
(390,40,qs),
(390,-17,o),
(354,-53,qs),
(309,-99,o),
(220,-99,qs),
(143,-99,o),
(93,-63,qs),
(43,-26,o),
(63,29,qs),
(68,43,ls),
(69,47,o),
(78,48,o),
(82,45,q),
(137,-16,o),
(208,-16,qs),
(271,-16,o),
(271,27,qs),
(271,45,o),
(238,75,o),
(193,97,qs),
(131,128,o),
(108,145,qs),
(51,187,o),
(51,245,qs),
(51,307,o),
(115,353,q),
(81,390,o),
(81,441,qs),
(81,495,o),
(121,529,qs),
(166,566,o),
(238,566,qs),
(295,566,o),
(333,548,qs),
(384,523,o),
(364,462,qs),
(362,456,ls),
(359,448,o),
(353,448,qs),
(350,448,o),
(345,452,qs),
(342,454,o),
(340,455,qs),
(299,484,o),
(253,484,qs),
(229,484,o),
(200,462,o),
(200,444,qs),
(200,427,o),
(232,398,o),
(275,378,qs),
(336,349,o),
(358,334,qs),
(413,295,o),
(413,240,qs),
(413,169,o),
(350,122,q),
(390,88,o)
);
},
{
closed = 1;
nodes = (
(299,225,qs),
(299,242,o),
(269,268,o),
(229,286,qs),
(194,301,o),
(184,306,q),
(161,285,o),
(161,259,qs),
(161,238,o),
(198,205,o),
(251,180,qs),
(267,172,o),
(274,169,q),
(299,192,o)
);
}
);
userData = {
assembly = "PUSHB[ ]	/* 7 values pushed */
65 31 2 3 1 1 76 
MPPEM[ ]	/* MeasurePixelPerEm */
PUSHB[ ]	/* 1 value pushed */
40 
LT[ ]	/* LessThan */
IF[ ]	/* If */
NPUSHB[ ]	/* 26 values pushed */
0 1 0 3 0 1 3 128 0 3 0 4 3 4 101 0 0 0 2 97 0 2 2 39 0 78 
ELSE[ ]	/* Else */
NPUSHB[ ]	/* 32 values pushed */
0 1 0 3 0 1 3 128 0 2 0 0 1 2 0 105 0 3 4 4 3 89 0 3 3 4 97 0 4 3 4 81 
EIF[ ]	/* EndIf */
PUSHB[ ]	/* 8 values pushed */
40 47 37 36 43 5 9 27 
CALL[ ]	/* CallFunction */";
};
width = 447;
}
);
note = section;
unicode = 167;
},
{
glyphname = dieresis;
layers = (
{
layerId = m01;
shapes = (
{
closed = 1;
nodes = (
(37,546,o),
(64,546,qs),
(90,546,o),
(125,509,o),
(125,481,qs),
(125,454,o),
(90,417,o),
(64,417,qs),
(36,417,o),
(0,454,o),
(0,481,qs),
(0,508,o)
);
},
{
closed = 1;
nodes = (
(213,546,o),
(240,546,qs),
(266,546,o),
(301,508,o),
(301,481,qs),
(301,454,o),
(266,417,o),
(240,417,qs),
(212,417,o),
(176,454,o),
(176,481,qs),
(176,508,o)
);
}
);
userData = {
assembly = "PUSHB[ ]	/* 2 values pushed */
6 100 
WCVTP[ ]	/* WriteCVTInPixels */
NPUSHB[ ]	/* 26 values pushed */
3 1 1 0 0 1 89 3 1 1 1 0 97 2 1 0 1 0 81 36 36 36 34 4 9 26 
CALL[ ]	/* CallFunction */
PUSHB[ ]	/* 2 values pushed */
6 0 
WCVTP[ ]	/* WriteCVTInPixels */";
};
width = 301;
}
);
note = dieresis;
unicode = 168;
},
{
glyphname = copyright;
layers = (
{
layerId = m01;
shapes = (
{
closed = 1;
nodes = (
(77,494,qs),
(139,563,o),
(247,563,qs),
(340,563,o),
(401,510,qs),
(470,448,o),
(470,340,qs),
(470,246,o),
(416,186,qs),
(354,117,o),
(247,117,qs),
(153,117,o),
(93,171,qs),
(24,232,o),
(24,340,qs),
(24,434,o)
);
},
{
closed = 1;
nodes = (
(363,211,qs),
(416,258,o),
(416,340,qs),
(416,411,o),
(375,457,qs),
(328,510,o),
(247,510,qs),
(176,510,o),
(131,469,qs),
(79,422,o),
(79,340,qs),
(79,268,o),
(119,223,qs),
(165,170,o),
(247,170,qs),
(318,170,o)
);
},
{
closed = 1;
nodes = (
(329,302,qs),
(336,302,o),
(336,291,qs),
(336,262,o),
(285,223,o),
(249,223,qs),
(203,223,o),
(173,251,qs),
(139,284,o),
(139,340,qs),
(139,390,o),
(171,424,qs),
(205,461,o),
(259,461,qs),
(285,461,o),
(311,451,qs),
(333,442,o),
(328,415,qs),
(325,400,ls),
(323,390,o),
(312,396,qs),
(286,409,o),
(261,409,qs),
(232,409,o),
(198,372,o),
(198,340,qs),
(198,310,o),
(233,274,o),
(263,274,qs),
(291,274,o),
(321,298,qs),
(325,302,o)
);
}
);
userData = {
assembly = "PUSHB[ ]	/* 2 values pushed */
6 100 
WCVTP[ ]	/* WriteCVTInPixels */
NPUSHB[ ]	/* 73 values pushed */
0 8 5 4 5 8 4 128 0 1 0 3 6 1 3 105 0 6 0 5 8 6 5 105 0 4 0 7 2 4 7 105 9 1 2 0 0 2 89 9 1 2 2 0 98 0 0 2 0 82 17 16 62 61 58 56 50 48 41 39 35 33 25 23 16 31 17 31 38 35 10 9 24 
CALL[ ]	/* CallFunction */
PUSHB[ ]	/* 2 values pushed */
6 0 
WCVTP[ ]	/* WriteCVTInPixels */";
};
width = 494;
}
);
note = copyright;
unicode = 169;
},
{
glyphname = ordfeminine;
layers = (
{
layerId = m01;
shapes = (
{
closed = 1;
nodes = (
(159,247,qs),
(95,247,o),
(56,289,qs),
(15,333,o),
(15,407,qs),
(15,471,o),
(49,514,qs),
(90,565,o),
(161,565,qs),
(226,565,o),
(263,526,q),
(281,556,o),
(335,556,qs),
(340,556,ls),
(350,556,o),
(350,546,qs),
(350,264,ls),
(350,254,o),
(341,254,qs),
(262,254,ls),
(254,254,o),
(254,264,qs),
(254,288,l),
(219,247,o)
);
},
{
closed = 1;
nodes = (
(254,372,o),
(254,406,qs),
(254,478,o),
(185,478,qs),
(114,478,o),
(114,406,qs),
(114,372,o),
(152,332,o),
(185,332,qs),
(217,332,o)
);
}
);
userData = {
assembly = "NPUSHB[ ]	/* 10 values pushed */
12 1 5 1 0 1 0 4 2 76 
MPPEM[ ]	/* MeasurePixelPerEm */
PUSHB[ ]	/* 1 value pushed */
40 
LT[ ]	/* LessThan */
IF[ ]	/* If */
NPUSHB[ ]	/* 32 values pushed */
0 0 4 3 4 0 3 128 6 1 4 0 3 4 3 101 0 1 1 55 77 0 5 5 2 97 0 2 2 55 5 78 
ELSE[ ]	/* Else */
NPUSHB[ ]	/* 35 values pushed */
0 1 2 5 2 1 5 128 0 0 4 3 4 0 3 128 6 1 4 0 3 4 3 101 0 5 5 2 97 0 2 2 55 5 78 
EIF[ ]	/* EndIf */
NPUSHB[ ]	/* 15 values pushed */
25 24 30 28 24 33 25 33 38 34 51 50 7 10 26 
CALL[ ]	/* CallFunction */";
};
width = 370;
}
);
note = ordfeminine;
unicode = 170;
},
{
glyphname = guillemotleft;
layers = (
{
layerId = m01;
shapes = (
{
closed = 1;
nodes = (
(239,45,o),
(235,37,o),
(230,37,qs),
(157,37,ls),
(138,37,o),
(129,50,qs),
(28,182,ls),
(21,191,o),
(21,196,qs),
(21,201,o),
(28,210,qs),
(129,342,ls),
(138,355,o),
(157,355,qs),
(230,355,ls),
(235,355,o),
(239,346,o),
(236,342,qs),
(125,196,l),
(236,50,l)
);
},
{
closed = 1;
nodes = (
(418,45,o),
(414,37,o),
(409,37,qs),
(336,37,ls),
(317,37,o),
(308,50,qs),
(207,182,ls),
(200,191,o),
(200,196,qs),
(200,201,o),
(207,210,qs),
(308,342,ls),
(317,355,o),
(336,355,qs),
(409,355,ls),
(414,355,o),
(418,346,o),
(415,342,qs),
(304,196,l),
(415,50,l)
);
}
);
userData = {
assembly = "NPUSHB[ ]	/* 26 values pushed */
2 1 0 1 1 0 87 2 1 0 0 1 95 3 1 1 0 1 79 40 55 40 51 4 9 26 
CALL[ ]	/* CallFunction */";
};
width = 436;
}
);
note = guillemotleft;
unicode = 171;
},
{
glyphname = uni00AD;
layers = (
{
layerId = m01;
shapes = (
{
closed = 1;
nodes = (
(30,162,qs),
(30,244,ls),
(30,257,o),
(43,257,qs),
(252,257,ls),
(265,257,o),
(265,244,qs),
(265,162,ls),
(265,149,o),
(252,149,qs),
(43,149,ls),
(30,149,o)
);
}
);
userData = {
assembly = "NPUSHB[ ]	/* 28 values pushed */
0 1 0 0 1 87 0 1 1 0 95 2 1 0 1 0 79 2 0 8 5 0 11 2 11 3 9 22 
CALL[ ]	/* CallFunction */";
};
width = 294;
}
);
note = uni00AD;
unicode = 173;
},
{
glyphname = registered;
layers = (
{
layerId = m01;
shapes = (
{
closed = 1;
nodes = (
(298,348,o),
(298,381,qs),
(298,411,o),
(260,411,qs),
(215,411,l),
(215,348,l),
(260,348,ls)
);
},
{
closed = 1;
nodes = (
(77,494,qs),
(139,563,o),
(247,563,qs),
(340,563,o),
(401,510,qs),
(470,448,o),
(470,340,qs),
(470,246,o),
(416,186,qs),
(354,117,o),
(247,117,qs),
(153,117,o),
(93,171,qs),
(24,232,o),
(24,340,qs),
(24,434,o)
);
},
{
closed = 1;
nodes = (
(363,211,qs),
(416,258,o),
(416,340,qs),
(416,411,o),
(375,457,qs),
(328,510,o),
(247,510,qs),
(176,510,o),
(131,469,qs),
(79,422,o),
(79,340,qs),
(79,268,o),
(119,223,qs),
(165,170,o),
(247,170,qs),
(318,170,o)
);
},
{
closed = 1;
nodes = (
(215,228,o),
(208,228,qs),
(169,228,ls),
(162,228,o),
(162,236,qs),
(162,448,ls),
(162,456,o),
(169,456,qs),
(255,456,ls),
(351,456,o),
(351,381,qs),
(351,328,o),
(301,309,q),
(350,236,ls),
(356,228,o),
(347,228,qs),
(303,228,ls),
(293,228,o),
(289,236,qs),
(250,303,l),
(215,303,l),
(215,236,ls)
);
}
);
userData = {
assembly = "PUSHB[ ]	/* 2 values pushed */
6 100 
WCVTP[ ]	/* WriteCVTInPixels */
NPUSHB[ ]	/* 88 values pushed */
47 1 6 1 1 76 9 1 7 6 4 6 7 4 128 0 3 0 5 8 3 5 105 0 8 0 0 1 8 0 105 10 1 1 0 6 7 1 6 103 11 1 4 2 2 4 89 11 1 4 4 2 97 0 2 4 2 81 24 23 0 0 59 56 53 50 45 42 40 39 32 30 23 38 24 38 20 18 12 10 0 6 0 5 33 12 9 23 
CALL[ ]	/* CallFunction */
PUSHB[ ]	/* 2 values pushed */
6 0 
WCVTP[ ]	/* WriteCVTInPixels */";
};
width = 494;
}
);
note = registered;
unicode = 174;
},
{
glyphname = macron;
layers = (
{
layerId = m01;
shapes = (
{
closed = 1;
nodes = (
(0,443,qs),
(0,500,ls),
(0,513,o),
(13,513,qs),
(263,513,ls),
(276,513,o),
(276,500,qs),
(276,443,ls),
(276,430,o),
(263,430,qs),
(13,430,ls),
(0,430,o)
);
}
);
userData = {
assembly = "PUSHB[ ]	/* 2 values pushed */
6 100 
WCVTP[ ]	/* WriteCVTInPixels */
NPUSHB[ ]	/* 28 values pushed */
0 1 0 0 1 87 0 1 1 0 95 2 1 0 1 0 79 2 0 8 5 0 11 2 11 3 9 22 
CALL[ ]	/* CallFunction */
PUSHB[ ]	/* 2 values pushed */
6 0 
WCVTP[ ]	/* WriteCVTInPixels */";
};
width = 276;
}
);
note = macron;
unicode = 175;
},
{
glyphname = degree;
layers = (
{
layerId = m01;
shapes = (
{
closed = 1;
nodes = (
(52,395,qs),
(19,426,o),
(19,475,qs),
(19,518,o),
(45,547,qs),
(75,581,o),
(125,581,qs),
(169,581,o),
(199,555,qs),
(232,525,o),
(232,475,qs),
(232,432,o),
(206,403,qs),
(176,369,o),
(125,369,qs),
(81,369,o)
);
},
{
closed = 1;
nodes = (
(167,454,o),
(167,475,qs),
(167,495,o),
(144,521,o),
(125,521,qs),
(107,521,o),
(84,495,o),
(84,475,qs),
(84,454,o),
(107,428,o),
(125,428,qs),
(144,428,o)
);
}
);
userData = {
assembly = "PUSHB[ ]	/* 2 values pushed */
6 100 
WCVTP[ ]	/* WriteCVTInPixels */
NPUSHB[ ]	/* 46 values pushed */
0 1 0 3 2 1 3 105 5 1 2 0 0 2 89 5 1 2 2 0 97 4 1 0 2 0 81 17 16 1 0 23 21 16 27 17 27 9 7 0 15 1 15 6 9 22 
CALL[ ]	/* CallFunction */
PUSHB[ ]	/* 2 values pushed */
6 0 
WCVTP[ ]	/* WriteCVTInPixels */";
};
width = 250;
}
);
note = degree;
unicode = 176;
},
{
glyphname = plusminus;
layers = (
{
layerId = m01;
shapes = (
{
closed = 1;
nodes = (
(30,299,o),
(30,312,qs),
(30,382,ls),
(30,395,o),
(43,395,qs),
(165,395,l),
(165,526,ls),
(165,539,o),
(178,539,qs),
(226,539,o),
(267,501,o),
(267,455,qs),
(267,395,l),
(389,395,ls),
(402,395,o),
(402,382,qs),
(402,312,ls),
(402,299,o),
(389,299,qs),
(267,299,l),
(267,168,ls),
(267,155,o),
(254,155,qs),
(178,155,ls),
(165,155,o),
(165,168,qs),
(165,299,l),
(43,299,ls)
);
},
{
closed = 1;
nodes = (
(30,95,o),
(43,95,qs),
(332,95,ls),
(402,95,o),
(402,29,qs),
(402,13,ls),
(402,0,o),
(389,0,qs),
(43,0,ls),
(30,0,o),
(30,13,qs),
(30,82,ls)
);
}
);
userData = {
assembly = "MPPEM[ ]	/* MeasurePixelPerEm */
PUSHB[ ]	/* 1 value pushed */
24 
LT[ ]	/* LessThan */
IF[ ]	/* If */
NPUSHB[ ]	/* 34 values pushed */
8 5 2 1 1 2 95 4 1 2 2 42 77 0 0 0 3 97 0 3 3 39 77 0 7 7 6 95 0 6 6 40 6 78 
ELSE[ ]	/* Else */
MPPEM[ ]	/* MeasurePixelPerEm */
PUSHB[ ]	/* 1 value pushed */
30 
LT[ ]	/* LessThan */
IF[ ]	/* If */
NPUSHB[ ]	/* 32 values pushed */
0 3 0 0 7 3 0 103 8 5 2 1 1 2 95 4 1 2 2 42 77 0 7 7 6 95 0 6 6 40 6 78 
ELSE[ ]	/* Else */
NPUSHB[ ]	/* 30 values pushed */
4 1 2 8 5 2 1 0 2 1 103 0 3 0 0 7 3 0 103 0 7 7 6 95 0 6 6 40 6 78 
EIF[ ]	/* EndIf */
EIF[ ]	/* EndIf */
NPUSHB[ ]	/* 18 values pushed */
0 0 38 35 32 29 0 27 0 26 34 35 35 34 50 9 9 27 
CALL[ ]	/* CallFunction */";
};
width = 431;
}
);
note = plusminus;
unicode = 177;
},
{
glyphname = twosuperior;
layers = (
{
layerId = m01;
shapes = (
{
closed = 1;
nodes = (
(293,297,o),
(293,258,qs),
(293,233,ls),
(293,223,o),
(283,223,qs),
(36,223,ls),
(27,223,o),
(27,233,qs),
(27,291,o),
(56,330,qs),
(76,357,o),
(118,383,qs),
(161,409,o),
(163,410,qs),
(192,431,o),
(192,456,qs),
(192,491,o),
(147,491,qs),
(115,491,o),
(68,467,qs),
(55,460,o),
(50,471,qs),
(39,498,ls),
(25,532,o),
(67,550,qs),
(106,566,o),
(153,566,qs),
(205,566,o),
(240,546,qs),
(286,520,o),
(286,470,qs),
(286,430,o),
(263,398,qs),
(244,372,o),
(199,344,qs),
(147,311,o),
(142,297,q),
(250,297,ls)
);
}
);
userData = {
assembly = "NPUSHB[ ]	/* 34 values pushed */
0 1 1 0 97 0 0 0 55 77 4 1 3 3 2 95 0 2 2 56 2 78 0 0 0 37 0 36 58 39 41 5 10 25 
CALL[ ]	/* CallFunction */";
};
width = 316;
}
);
note = twosuperior;
unicode = 178;
},
{
glyphname = threesuperior;
layers = (
{
layerId = m01;
shapes = (
{
closed = 1;
nodes = (
(289,318,qs),
(289,274,o),
(260,247,qs),
(225,216,o),
(159,216,qs),
(105,216,o),
(30,273,o),
(30,314,qs),
(30,329,o),
(41,329,qs),
(46,329,o),
(52,324,qs),
(92,289,o),
(146,289,qs),
(206,289,o),
(206,327,qs),
(206,356,o),
(156,356,qs),
(125,356,ls),
(85,356,o),
(85,390,qs),
(85,418,ls),
(85,430,o),
(95,430,qs),
(145,430,ls),
(194,430,o),
(194,465,qs),
(194,493,o),
(147,493,qs),
(111,493,o),
(70,472,qs),
(56,464,o),
(51,475,qs),
(41,499,ls),
(26,536,o),
(69,552,qs),
(107,566,o),
(152,566,qs),
(277,566,o),
(277,478,qs),
(277,429,o),
(228,400,q),
(289,378,o)
);
}
);
userData = {
assembly = "NPUSHB[ ]	/* 47 values pushed */
0 5 3 4 3 5 4 128 0 2 0 3 5 2 3 105 0 1 1 0 97 0 0 0 55 77 0 4 4 6 97 0 6 6 58 6 78 35 34 34 51 50 39 35 7 10 29 
CALL[ ]	/* CallFunction */";
};
width = 311;
}
);
note = threesuperior;
unicode = 179;
},
{
glyphname = acute;
layers = (
{
layerId = m01;
shapes = (
{
closed = 1;
nodes = (
(0,441,o),
(4,445,qs),
(95,528,ls),
(109,540,o),
(125,540,qs),
(217,540,ls),
(223,540,o),
(227,528,o),
(222,524,qs),
(124,442,ls),
(111,430,o),
(88,430,qs),
(10,430,ls),
(4,430,o)
);
}
);
userData = {
assembly = "PUSHB[ ]	/* 2 values pushed */
6 100 
WCVTP[ ]	/* WriteCVTInPixels */
NPUSHB[ ]	/* 21 values pushed */
0 1 0 1 133 2 1 0 0 118 2 0 9 6 0 13 2 13 3 9 22 
CALL[ ]	/* CallFunction */
PUSHB[ ]	/* 2 values pushed */
6 0 
WCVTP[ ]	/* WriteCVTInPixels */";
};
width = 225;
}
);
note = acute;
unicode = 180;
},
{
glyphname = paragraph;
layers = (
{
layerId = m01;
shapes = (
{
closed = 1;
nodes = (
(131,221,o),
(83,263,qs),
(29,310,o),
(29,391,qs),
(29,462,o),
(68,504,qs),
(116,556,o),
(220,556,qs),
(290,556,ls),
(341,556,o),
(387,509,o),
(387,458,qs),
(387,12,ls),
(387,0,o),
(375,0,qs),
(334,0,ls),
(322,0,o),
(322,12,qs),
(322,485,l),
(274,485,l),
(274,12,ls),
(274,0,o),
(263,0,qs),
(222,0,ls),
(210,0,o),
(210,12,qs),
(210,221,l),
(206,221,ls)
);
}
);
userData = {
assembly = "NPUSHB[ ]	/* 33 values pushed */
0 4 1 0 1 4 0 128 0 1 1 3 95 0 3 3 39 77 2 1 0 0 40 0 78 22 52 50 18 50 5 9 27 
CALL[ ]	/* CallFunction */";
};
width = 437;
}
);
note = paragraph;
unicode = 182;
},
{
glyphname = periodcentered;
layers = (
{
layerId = m01;
shapes = (
{
closed = 1;
nodes = (
(60,350,o),
(90,350,qs),
(119,350,o),
(157,310,o),
(157,279,qs),
(157,249,o),
(119,210,o),
(90,210,qs),
(60,210,o),
(20,249,o),
(20,279,qs),
(20,309,o)
);
}
);
userData = {
assembly = "NPUSHB[ ]	/* 21 values pushed */
0 1 0 0 1 89 0 1 1 0 97 0 0 1 0 81 36 34 2 9 24 
CALL[ ]	/* CallFunction */";
};
width = 177;
}
);
note = periodcentered;
unicode = 183;
},
{
glyphname = cedilla;
layers = (
{
layerId = m01;
shapes = (
{
closed = 1;
nodes = (
(9,-104,qs),
(72,-7,ls),
(79,5,o),
(101,5,qs),
(158,5,ls),
(170,5,o),
(165,-7,qs),
(119,-102,ls),
(111,-119,o),
(88,-119,qs),
(15,-119,ls),
(0,-119,o)
);
}
);
userData = {
assembly = "PUSHB[ ]	/* 2 values pushed */
6 100 
WCVTP[ ]	/* WriteCVTInPixels */
NPUSHB[ ]	/* 28 values pushed */
0 1 0 0 1 87 0 1 1 0 95 2 1 0 1 0 79 2 0 8 5 0 11 2 11 3 9 22 
CALL[ ]	/* CallFunction */
PUSHB[ ]	/* 2 values pushed */
6 0 
WCVTP[ ]	/* WriteCVTInPixels */";
};
width = 160;
}
);
note = cedilla;
unicode = 184;
},
{
glyphname = onesuperior;
layers = (
{
layerId = m01;
shapes = (
{
closed = 1;
nodes = (
(35,446,o),
(35,457,qs),
(35,520,ls),
(35,534,o),
(50,540,qs),
(80,550,ls),
(96,556,o),
(113,556,qs),
(148,556,ls),
(192,556,o),
(192,516,qs),
(192,234,ls),
(192,223,o),
(181,223,qs),
(111,223,ls),
(100,223,o),
(100,234,qs),
(100,467,l),
(48,449,l)
);
}
);
userData = {
assembly = "PUSHB[ ]	/* 6 values pushed */
0 1 0 1 1 76 
MPPEM[ ]	/* MeasurePixelPerEm */
PUSHB[ ]	/* 1 value pushed */
40 
LT[ ]	/* LessThan */
IF[ ]	/* If */
NPUSHB[ ]	/* 11 values pushed */
0 1 1 55 77 0 0 0 56 0 78 
ELSE[ ]	/* Else */
NPUSHB[ ]	/* 11 values pushed */
0 1 0 1 133 0 0 0 56 0 78 
EIF[ ]	/* EndIf */
PUSHB[ ]	/* 5 values pushed */
51 50 2 10 24 
CALL[ ]	/* CallFunction */";
};
width = 237;
}
);
note = onesuperior;
unicode = 185;
},
{
glyphname = ordmasculine;
layers = (
{
layerId = m01;
shapes = (
{
closed = 1;
nodes = (
(250,405,qs),
(250,441,o),
(214,480,o),
(182,480,qs),
(150,480,o),
(114,441,o),
(114,405,qs),
(114,333,o),
(181,333,qs),
(250,333,o)
);
},
{
closed = 1;
nodes = (
(54,516,qs),
(99,565,o),
(181,565,qs),
(253,565,o),
(298,527,qs),
(349,484,o),
(349,406,qs),
(349,339,o),
(310,297,qs),
(265,247,o),
(183,247,qs),
(112,247,o),
(67,286,qs),
(15,330,o),
(15,406,qs),
(15,474,o)
);
}
);
userData = {
assembly = "NPUSHB[ ]	/* 34 values pushed */
4 1 0 0 2 0 2 101 0 1 1 3 97 0 3 3 55 1 78 1 0 23 21 15 13 6 4 0 9 1 9 5 10 22 
CALL[ ]	/* CallFunction */";
};
width = 364;
}
);
note = ordmasculine;
unicode = 186;
},
{
glyphname = guillemotright;
layers = (
{
layerId = m01;
shapes = (
{
closed = 1;
nodes = (
(199,346,o),
(203,355,o),
(208,355,qs),
(280,355,ls),
(299,355,o),
(308,342,qs),
(410,210,ls),
(417,201,o),
(417,196,qs),
(417,191,o),
(410,182,qs),
(308,50,ls),
(299,37,o),
(280,37,qs),
(208,37,ls),
(203,37,o),
(199,45,o),
(202,50,qs),
(312,196,l),
(202,342,ls)
);
},
{
closed = 1;
nodes = (
(20,346,o),
(24,355,o),
(29,355,qs),
(101,355,ls),
(120,355,o),
(129,342,qs),
(231,210,ls),
(238,201,o),
(238,196,qs),
(238,191,o),
(231,182,qs),
(129,50,ls),
(120,37,o),
(101,37,qs),
(29,37,ls),
(24,37,o),
(20,45,o),
(23,50,qs),
(133,196,l),
(23,342,ls)
);
}
);
userData = {
assembly = "NPUSHB[ ]	/* 26 values pushed */
3 1 1 0 0 1 87 3 1 1 1 0 95 2 1 0 1 0 79 40 55 40 51 4 9 26 
CALL[ ]	/* CallFunction */";
};
width = 436;
}
);
note = guillemotright;
unicode = 187;
},
{
glyphname = onequarter;
layers = (
{
layerId = m01;
shapes = (
{
closed = 1;
nodes = (
(566,255,l),
(484,136,l),
(566,136,l)
);
},
{
closed = 1;
nodes = (
(35,446,o),
(35,457,qs),
(35,520,ls),
(35,534,o),
(50,540,qs),
(80,550,ls),
(96,556,o),
(113,556,qs),
(148,556,ls),
(192,556,o),
(192,516,qs),
(192,234,ls),
(192,223,o),
(181,223,qs),
(111,223,ls),
(100,223,o),
(100,234,qs),
(100,467,l),
(48,449,l)
);
},
{
closed = 1;
nodes = (
(398,66,o),
(398,77,qs),
(398,118,ls),
(398,128,o),
(404,137,qs),
(528,318,ls),
(539,333,o),
(556,333,qs),
(610,333,ls),
(654,333,o),
(654,293,qs),
(654,136,l),
(670,136,ls),
(714,136,o),
(714,96,qs),
(714,76,ls),
(714,66,o),
(704,66,qs),
(654,66,l),
(654,11,ls),
(654,0,o),
(643,0,qs),
(577,0,ls),
(566,0,o),
(566,11,qs),
(566,66,l),
(409,66,ls)
);
},
{
closed = 1;
nodes = (
(142,13,q),
(433,543,ls),
(440,556,o),
(453,556,qs),
(468,556,ls),
(501,556,o),
(523,513,o),
(506,483,qs),
(250,13,ls),
(242,0,o),
(230,0,qs),
(150,0,ls),
(136,0,o)
);
}
);
userData = {
assembly = "PUSHB[ ]	/* 2 values pushed */
6 100 
WCVTP[ ]	/* WriteCVTInPixels */
NPUSHB[ ]	/* 10 values pushed */
3 1 6 2 1 1 1 6 2 76 
MPPEM[ ]	/* MeasurePixelPerEm */
PUSHB[ ]	/* 1 value pushed */
15 
LT[ ]	/* LessThan */
IF[ ]	/* If */
NPUSHB[ ]	/* 47 values pushed */
0 6 2 1 2 6 1 128 12 8 2 3 4 4 3 113 9 1 2 0 1 0 2 1 103 5 10 2 0 4 4 0 89 5 10 2 0 0 4 98 11 7 2 4 0 4 82 
ELSE[ ]	/* Else */
NPUSHB[ ]	/* 46 values pushed */
0 6 2 1 2 6 1 128 12 8 2 3 4 3 134 9 1 2 0 1 0 2 1 103 5 10 2 0 4 4 0 89 5 10 2 0 0 4 98 11 7 2 4 0 4 82 
EIF[ ]	/* EndIf */
NPUSHB[ ]	/* 35 values pushed */
51 49 22 22 0 0 58 55 49 61 51 61 22 48 22 47 41 38 36 34 31 29 27 24 14 11 8 5 0 2 0 2 13 9 22 
CALL[ ]	/* CallFunction */
PUSHB[ ]	/* 2 values pushed */
6 0 
WCVTP[ ]	/* WriteCVTInPixels */";
};
width = 746;
}
);
note = onequarter;
unicode = 188;
},
{
glyphname = onehalf;
layers = (
{
layerId = m01;
shapes = (
{
closed = 1;
nodes = (
(35,446,o),
(35,457,qs),
(35,520,ls),
(35,534,o),
(50,540,qs),
(80,550,ls),
(96,556,o),
(113,556,qs),
(148,556,ls),
(192,556,o),
(192,516,qs),
(192,234,ls),
(192,223,o),
(181,223,qs),
(111,223,ls),
(100,223,o),
(100,234,qs),
(100,467,l),
(48,449,l)
);
},
{
closed = 1;
nodes = (
(727,75,o),
(727,36,qs),
(727,10,ls),
(727,0,o),
(717,0,qs),
(469,0,ls),
(460,0,o),
(460,10,qs),
(460,68,o),
(489,108,qs),
(509,135,o),
(551,160,qs),
(594,186,o),
(596,188,q),
(625,208,o),
(625,234,qs),
(625,268,o),
(581,268,qs),
(545,268,o),
(501,244,qs),
(488,237,o),
(483,248,qs),
(472,275,ls),
(459,309,o),
(500,327,qs),
(539,344,o),
(587,344,qs),
(638,344,o),
(674,323,qs),
(720,297,o),
(720,247,qs),
(720,207,o),
(697,176,qs),
(678,150,o),
(633,121,qs),
(581,89,o),
(576,75,q),
(683,75,ls)
);
},
{
closed = 1;
nodes = (
(142,13,q),
(433,543,ls),
(440,556,o),
(453,556,qs),
(468,556,ls),
(501,556,o),
(523,513,o),
(506,483,qs),
(250,13,ls),
(242,0,o),
(230,0,qs),
(150,0,ls),
(136,0,o)
);
}
);
userData = {
assembly = "PUSHB[ ]	/* 2 values pushed */
6 100 
WCVTP[ ]	/* WriteCVTInPixels */
NPUSHB[ ]	/* 68 values pushed */
0 1 2 1 1 76 0 2 0 3 0 2 3 105 7 1 1 0 0 5 1 0 103 8 1 5 4 4 5 87 8 1 5 5 4 96 9 6 2 4 5 4 80 59 57 19 19 66 63 57 69 59 69 19 56 19 55 52 49 39 37 30 28 51 50 10 9 24 
CALL[ ]	/* CallFunction */
PUSHB[ ]	/* 2 values pushed */
6 0 
WCVTP[ ]	/* WriteCVTInPixels */";
};
width = 778;
}
);
note = onehalf;
unicode = 189;
},
{
glyphname = threequarters;
layers = (
{
layerId = m01;
shapes = (
{
closed = 1;
nodes = (
(289,318,qs),
(289,274,o),
(260,247,qs),
(225,216,o),
(159,216,qs),
(105,216,o),
(30,273,o),
(30,314,qs),
(30,329,o),
(41,329,qs),
(46,329,o),
(52,324,qs),
(92,289,o),
(146,289,qs),
(206,289,o),
(206,327,qs),
(206,356,o),
(156,356,qs),
(125,356,ls),
(85,356,o),
(85,390,qs),
(85,418,ls),
(85,430,o),
(95,430,qs),
(145,430,ls),
(194,430,o),
(194,465,qs),
(194,493,o),
(147,493,qs),
(111,493,o),
(70,472,qs),
(56,464,o),
(51,475,qs),
(41,499,ls),
(26,536,o),
(69,552,qs),
(107,566,o),
(152,566,qs),
(277,566,o),
(277,478,qs),
(277,429,o),
(228,400,q),
(289,378,o)
);
},
{
closed = 1;
nodes = (
(627,255,l),
(546,136,l),
(627,136,l)
);
},
{
closed = 1;
nodes = (
(459,66,o),
(459,77,qs),
(459,118,ls),
(459,128,o),
(465,137,qs),
(590,318,ls),
(601,333,o),
(617,333,qs),
(672,333,ls),
(716,333,o),
(716,293,qs),
(716,136,l),
(732,136,ls),
(775,136,o),
(775,96,qs),
(775,76,ls),
(775,66,o),
(765,66,qs),
(716,66,l),
(716,11,ls),
(716,0,o),
(705,0,qs),
(638,0,ls),
(627,0,o),
(627,11,qs),
(627,66,l),
(470,66,ls)
);
},
{
closed = 1;
nodes = (
(203,13,qs),
(493,543,ls),
(500,556,o),
(514,556,qs),
(529,556,ls),
(562,556,o),
(584,513,o),
(567,483,qs),
(310,13,ls),
(303,0,o),
(290,0,qs),
(211,0,ls),
(196,0,o)
);
}
);
userData = {
assembly = "PUSHB[ ]	/* 2 values pushed */
6 100 
WCVTP[ ]	/* WriteCVTInPixels */
PUSHB[ ]	/* 6 values pushed */
44 1 6 4 1 76 
MPPEM[ ]	/* MeasurePixelPerEm */
PUSHB[ ]	/* 1 value pushed */
15 
LT[ ]	/* LessThan */
IF[ ]	/* If */
NPUSHB[ ]	/* 64 values pushed */
11 1 5 3 4 3 5 4 128 17 13 2 8 9 9 8 113 14 1 0 0 1 2 0 1 105 0 2 0 3 5 2 3 105 0 4 0 6 7 4 6 105 10 15 2 7 9 9 7 89 10 15 2 7 7 9 98 16 12 2 9 7 9 82 
ELSE[ ]	/* Else */
MPPEM[ ]	/* MeasurePixelPerEm */
PUSHB[ ]	/* 1 value pushed */
20 
LT[ ]	/* LessThan */
IF[ ]	/* If */
NPUSHB[ ]	/* 63 values pushed */
11 1 5 3 4 3 5 4 128 17 13 2 8 9 8 134 14 1 0 0 1 2 0 1 105 0 2 0 3 5 2 3 105 0 4 0 6 7 4 6 105 10 15 2 7 9 9 7 89 10 15 2 7 7 9 98 16 12 2 9 7 9 82 
ELSE[ ]	/* Else */
MPPEM[ ]	/* MeasurePixelPerEm */
PUSHB[ ]	/* 1 value pushed */
44 
LT[ ]	/* LessThan */
IF[ ]	/* If */
NPUSHB[ ]	/* 70 values pushed */
0 14 0 1 0 14 1 128 11 1 5 3 4 3 5 4 128 17 13 2 8 9 8 134 0 0 0 1 2 0 1 105 0 2 0 3 5 2 3 105 0 4 0 6 7 4 6 105 10 15 2 7 9 9 7 89 10 15 2 7 7 9 98 16 12 2 9 7 9 82 
ELSE[ ]	/* Else */
NPUSHB[ ]	/* 76 values pushed */
0 14 0 1 0 14 1 128 0 11 3 5 3 11 5 128 0 5 4 3 5 4 126 17 13 2 8 9 8 134 0 0 0 1 2 0 1 105 0 2 0 3 11 2 3 105 0 4 0 6 7 4 6 105 10 15 2 7 9 9 7 89 10 15 2 7 7 9 98 16 12 2 9 7 9 82 
EIF[ ]	/* EndIf */
EIF[ ]	/* EndIf */
EIF[ ]	/* EndIf */
NPUSHB[ ]	/* 38 values pushed */
75 73 46 46 43 43 82 79 73 85 75 85 46 72 46 71 65 62 60 58 55 53 51 48 43 45 43 45 35 34 34 51 50 39 35 18 9 29 
CALL[ ]	/* CallFunction */
PUSHB[ ]	/* 2 values pushed */
6 0 
WCVTP[ ]	/* WriteCVTInPixels */";
};
width = 804;
}
);
note = threequarters;
unicode = 190;
},
{
glyphname = questiondown;
layers = (
{
layerId = m01;
shapes = (
{
closed = 1;
nodes = (
(144,293,o),
(144,323,qs),
(144,353,o),
(182,393,o),
(212,393,qs),
(242,393,o),
(281,353,o),
(281,323,qs),
(281,293,o),
(241,252,o),
(212,252,qs),
(183,252,o)
);
},
{
closed = 1;
nodes = (
(42,64,qs),
(70,104,o),
(148,161,qs),
(166,174,o),
(166,193,qs),
(166,207,ls),
(166,220,o),
(179,220,qs),
(203,220,ls),
(227,220,o),
(261,189,o),
(261,167,qs),
(261,125,o),
(202,77,qs),
(157,40,o),
(130,5,o),
(130,-20,qs),
(130,-79,o),
(203,-79,qs),
(260,-79,o),
(333,-43,qs),
(340,-39,o),
(346,-39,qs),
(353,-39,o),
(356,-48,qs),
(377,-115,ls),
(382,-131,o),
(368,-139,qs),
(286,-184,o),
(200,-184,qs),
(121,-184,o),
(71,-152,qs),
(9,-114,o),
(9,-40,qs),
(9,18,o)
);
}
);
userData = {
assembly = "MPPEM[ ]	/* MeasurePixelPerEm */
PUSHB[ ]	/* 1 value pushed */
30 
LT[ ]	/* LessThan */
IF[ ]	/* If */
NPUSHB[ ]	/* 37 values pushed */
0 5 0 3 0 5 3 128 0 3 4 0 3 4 126 6 1 0 0 1 97 0 1 1 48 77 0 4 4 2 98 0 2 2 50 2 78 
ELSE[ ]	/* Else */
NPUSHB[ ]	/* 34 values pushed */
0 5 0 3 0 5 3 128 0 3 4 0 3 4 126 0 4 0 2 4 2 102 6 1 0 0 1 97 0 1 1 48 0 78 
EIF[ ]	/* EndIf */
NPUSHB[ ]	/* 19 values pushed */
1 0 39 36 28 26 23 22 17 15 7 5 0 11 1 11 7 9 22 
CALL[ ]	/* CallFunction */";
};
width = 350;
}
);
note = questiondown;
unicode = 191;
},
{
glyphname = Agrave;
kernLeft = A;
kernRight = A;
layers = (
{
layerId = m01;
shapes = (
{
closed = 1;
nodes = (
(264,415,l),
(202,228,l),
(327,228,l)
);
},
{
closed = 1;
nodes = (
(124,0,o),
(113,0,qs),
(19,0,ls),
(6,0,o),
(10,13,qs),
(196,545,ls),
(200,556,o),
(211,556,qs),
(255,556,ls),
(299,556,o),
(344,518,o),
(363,466,qs),
(525,13,ls),
(529,0,o),
(515,0,qs),
(419,0,ls),
(404,0,o),
(400,13,qs),
(361,128,l),
(167,128,l),
(128,13,ls)
);
},
{
closed = 1;
nodes = (
(143,699,o),
(150,699,qs),
(242,699,ls),
(258,699,o),
(271,687,qs),
(363,604,ls),
(367,600,o),
(363,589,o),
(357,589,qs),
(278,589,ls),
(256,589,o),
(243,601,qs),
(145,683,ls),
(140,687,o)
);
}
);
userData = {
assembly = "NPUSHB[ ]	/* 58 values pushed */
1 1 0 3 1 76 0 6 5 6 133 0 5 3 5 133 7 1 0 0 1 2 0 1 104 0 3 3 39 77 4 1 2 2 40 2 78 0 0 36 33 28 26 22 19 16 13 9 6 4 3 0 2 0 2 8 9 22 
CALL[ ]	/* CallFunction */";
};
width = 530;
}
);
note = Agrave;
unicode = 192;
},
{
glyphname = Aacute;
kernLeft = A;
kernRight = A;
layers = (
{
layerId = m01;
shapes = (
{
closed = 1;
nodes = (
(264,415,l),
(202,228,l),
(327,228,l)
);
},
{
closed = 1;
nodes = (
(124,0,o),
(113,0,qs),
(19,0,ls),
(6,0,o),
(10,13,qs),
(196,545,ls),
(200,556,o),
(211,556,qs),
(255,556,ls),
(299,556,o),
(344,518,o),
(363,466,qs),
(525,13,ls),
(529,0,o),
(515,0,qs),
(419,0,ls),
(404,0,o),
(400,13,qs),
(361,128,l),
(167,128,l),
(128,13,ls)
);
},
{
closed = 1;
nodes = (
(159,600,o),
(163,604,qs),
(254,687,ls),
(268,699,o),
(284,699,qs),
(376,699,ls),
(382,699,o),
(386,687,o),
(381,683,qs),
(283,601,ls),
(270,589,o),
(248,589,qs),
(169,589,ls),
(163,589,o)
);
}
);
userData = {
assembly = "NPUSHB[ ]	/* 63 values pushed */
1 1 0 3 1 76 0 6 5 6 133 8 1 5 3 5 133 7 1 0 0 1 2 0 1 104 0 3 3 39 77 4 1 2 2 40 2 78 26 24 0 0 33 30 24 37 26 37 22 19 16 13 9 6 4 3 0 2 0 2 9 9 22 
CALL[ ]	/* CallFunction */";
};
width = 530;
}
);
note = Aacute;
unicode = 193;
},
{
glyphname = Acircumflex;
kernLeft = A;
kernRight = A;
layers = (
{
layerId = m01;
shapes = (
{
closed = 1;
nodes = (
(264,415,l),
(202,228,l),
(327,228,l)
);
},
{
closed = 1;
nodes = (
(124,0,o),
(113,0,qs),
(19,0,ls),
(6,0,o),
(10,13,qs),
(196,545,ls),
(200,556,o),
(211,556,qs),
(255,556,ls),
(299,556,o),
(344,518,o),
(363,466,qs),
(525,13,ls),
(529,0,o),
(515,0,qs),
(419,0,ls),
(404,0,o),
(400,13,qs),
(361,128,l),
(167,128,l),
(128,13,ls)
);
},
{
closed = 1;
nodes = (
(212,589,o),
(189,589,qs),
(119,589,ls),
(113,589,o),
(109,600,o),
(113,604,qs),
(193,687,ls),
(204,699,o),
(223,699,qs),
(317,699,ls),
(335,699,o),
(347,687,qs),
(426,604,ls),
(430,600,o),
(426,589,o),
(420,589,qs),
(351,589,ls),
(328,589,o),
(317,603,qs),
(270,659,l),
(223,603,ls)
);
}
);
userData = {
assembly = "NPUSHB[ ]	/* 59 values pushed */
1 1 0 3 1 76 0 6 7 1 5 3 6 5 103 8 1 0 0 1 2 0 1 104 0 3 3 39 77 4 1 2 2 40 2 78 0 0 43 40 36 33 28 26 22 19 16 13 9 6 4 3 0 2 0 2 9 9 22 
CALL[ ]	/* CallFunction */";
};
width = 530;
}
);
note = Acircumflex;
unicode = 194;
},
{
glyphname = Atilde;
kernLeft = A;
kernRight = A;
layers = (
{
layerId = m01;
shapes = (
{
closed = 1;
nodes = (
(264,415,l),
(202,228,l),
(327,228,l)
);
},
{
closed = 1;
nodes = (
(124,0,o),
(113,0,qs),
(19,0,ls),
(6,0,o),
(10,13,qs),
(196,545,ls),
(200,556,o),
(211,556,qs),
(255,556,ls),
(299,556,o),
(344,518,o),
(363,466,qs),
(525,13,ls),
(529,0,o),
(515,0,qs),
(419,0,ls),
(404,0,o),
(400,13,qs),
(361,128,l),
(167,128,l),
(128,13,ls)
);
},
{
closed = 1;
nodes = (
(104,600,qs),
(111,701,o),
(183,701,qs),
(211,701,o),
(257,683,qs),
(294,668,o),
(310,668,qs),
(328,668,o),
(332,692,qs),
(333,704,o),
(345,704,qs),
(393,704,ls),
(405,704,o),
(404,691,qs),
(398,637,o),
(359,593,o),
(318,593,qs),
(295,593,o),
(250,610,qs),
(213,623,o),
(200,623,qs),
(180,623,o),
(176,599,qs),
(174,587,o),
(163,587,qs),
(115,587,ls),
(104,587,o)
);
}
);
userData = {
assembly = "PUSHB[ ]	/* 6 values pushed */
1 1 0 3 1 76 
MPPEM[ ]	/* MeasurePixelPerEm */
PUSHB[ ]	/* 1 value pushed */
28 
LT[ ]	/* LessThan */
IF[ ]	/* If */
NPUSHB[ ]	/* 45 values pushed */
0 6 9 5 5 6 114 10 1 8 9 5 8 90 0 9 7 12 2 5 3 9 5 106 11 1 0 0 1 2 0 1 104 0 3 3 39 77 4 1 2 2 40 2 78 
ELSE[ ]	/* Else */
MPPEM[ ]	/* MeasurePixelPerEm */
PUSHB[ ]	/* 1 value pushed */
32 
LT[ ]	/* LessThan */
IF[ ]	/* If */
NPUSHB[ ]	/* 46 values pushed */
0 6 9 5 9 6 5 128 10 1 8 9 5 8 90 0 9 7 12 2 5 3 9 5 106 11 1 0 0 1 2 0 1 104 0 3 3 39 77 4 1 2 2 40 2 78 
ELSE[ ]	/* Else */
NPUSHB[ ]	/* 47 values pushed */
0 6 9 7 9 6 7 128 0 9 0 7 5 9 7 106 10 1 8 12 1 5 3 8 5 105 11 1 0 0 1 2 0 1 104 0 3 3 39 77 4 1 2 2 40 2 78 
EIF[ ]	/* EndIf */
EIF[ ]	/* EndIf */
NPUSHB[ ]	/* 33 values pushed */
26 24 0 0 48 46 44 42 40 37 34 32 30 28 24 50 26 50 22 19 16 13 9 6 4 3 0 2 0 2 13 9 22 
CALL[ ]	/* CallFunction */";
};
width = 530;
}
);
note = Atilde;
unicode = 195;
},
{
glyphname = Adieresis;
kernLeft = A;
kernRight = A;
layers = (
{
layerId = m01;
shapes = (
{
closed = 1;
nodes = (
(264,415,l),
(202,228,l),
(327,228,l)
);
},
{
closed = 1;
nodes = (
(124,0,o),
(113,0,qs),
(19,0,ls),
(6,0,o),
(10,13,qs),
(196,545,ls),
(200,556,o),
(211,556,qs),
(255,556,ls),
(299,556,o),
(344,518,o),
(363,466,qs),
(525,13,ls),
(529,0,o),
(515,0,qs),
(419,0,ls),
(404,0,o),
(400,13,qs),
(361,128,l),
(167,128,l),
(128,13,ls)
);
},
{
closed = 1;
nodes = (
(147,705,o),
(174,705,qs),
(200,705,o),
(236,667,o),
(236,640,qs),
(236,613,o),
(200,576,o),
(174,576,qs),
(147,576,o),
(110,613,o),
(110,640,qs),
(110,667,o)
);
},
{
closed = 1;
nodes = (
(323,705,o),
(350,705,qs),
(376,705,o),
(411,668,o),
(411,640,qs),
(411,613,o),
(376,576,o),
(350,576,qs),
(323,576,o),
(286,613,o),
(286,640,qs),
(286,667,o)
);
}
);
userData = {
assembly = "NPUSHB[ ]	/* 62 values pushed */
1 1 0 3 1 76 8 1 6 7 1 5 3 6 5 105 9 1 0 0 1 2 0 1 104 0 3 3 39 77 4 1 2 2 40 2 78 0 0 46 44 40 38 34 32 28 26 22 19 16 13 9 6 4 3 0 2 0 2 10 9 22 
CALL[ ]	/* CallFunction */";
};
width = 530;
}
);
note = Adieresis;
unicode = 196;
},
{
glyphname = Aring;
kernLeft = A;
kernRight = A;
layers = (
{
layerId = m01;
shapes = (
{
closed = 1;
nodes = (
(264,415,l),
(202,228,l),
(327,228,l)
);
},
{
closed = 1;
nodes = (
(124,0,o),
(113,0,qs),
(19,0,ls),
(6,0,o),
(10,13,qs),
(196,545,ls),
(200,556,o),
(211,556,qs),
(255,556,ls),
(299,556,o),
(344,518,o),
(363,466,qs),
(525,13,ls),
(529,0,o),
(515,0,qs),
(419,0,ls),
(404,0,o),
(400,13,qs),
(361,128,l),
(167,128,l),
(128,13,ls)
);
},
{
closed = 1;
nodes = (
(225,737,o),
(258,737,qs),
(292,737,o),
(339,690,o),
(339,657,qs),
(339,623,o),
(292,576,o),
(258,576,qs),
(225,576,o),
(177,624,o),
(177,657,qs),
(177,690,o)
);
},
{
closed = 1;
nodes = (
(291,643,o),
(291,657,qs),
(291,671,o),
(272,691,o),
(258,691,qs),
(244,691,o),
(226,671,o),
(226,657,qs),
(226,643,o),
(244,623,o),
(258,623,qs),
(272,623,o)
);
}
);
userData = {
assembly = "NPUSHB[ ]	/* 73 values pushed */
1 1 0 3 1 76 0 6 0 8 7 6 8 105 10 1 7 0 5 3 7 5 105 9 1 0 0 1 2 0 1 104 0 3 3 39 77 4 1 2 2 40 2 78 37 36 0 0 43 41 36 47 37 47 34 32 28 26 22 19 16 13 9 6 4 3 0 2 0 2 11 9 22 
CALL[ ]	/* CallFunction */";
};
width = 530;
}
);
note = Aring;
unicode = 197;
},
{
glyphname = AE;
kernRight = E;
layers = (
{
layerId = m01;
shapes = (
{
closed = 1;
nodes = (
(360,447,l),
(246,228,l),
(360,228,l)
);
},
{
closed = 1;
nodes = (
(129,0,o),
(113,0,qs),
(17,0,ls),
(2,0,o),
(9,13,qs),
(294,543,ls),
(301,556,o),
(317,556,qs),
(632,556,ls),
(702,556,o),
(702,489,qs),
(702,464,ls),
(702,447,o),
(686,447,qs),
(477,447,l),
(477,334,l),
(612,334,ls),
(682,334,o),
(682,267,qs),
(682,242,ls),
(682,226,o),
(666,226,qs),
(477,226,l),
(477,108,l),
(640,108,ls),
(710,108,o),
(710,42,qs),
(710,17,ls),
(710,0,o),
(694,0,qs),
(373,0,ls),
(360,0,o),
(360,13,qs),
(360,128,l),
(195,128,l),
(135,13,ls)
);
}
);
userData = {
assembly = "NPUSHB[ ]	/* 69 values pushed */
1 1 6 1 75 0 5 0 4 1 5 4 103 9 1 0 0 1 3 0 1 103 0 6 6 7 95 0 7 7 39 77 0 3 3 2 95 8 1 2 2 40 2 78 0 0 37 34 31 28 25 23 22 20 17 15 14 12 9 6 4 3 0 2 0 2 10 9 22 
CALL[ ]	/* CallFunction */";
};
width = 727;
}
);
note = AE;
unicode = 198;
},
{
glyphname = Ccedilla;
kernLeft = C;
kernRight = C;
layers = (
{
layerId = m01;
shapes = (
{
closed = 1;
nodes = (
(304,-119,o),
(281,-119,qs),
(208,-119,ls),
(193,-119,o),
(202,-104,qs),
(264,-8,l),
(167,3,o),
(108,69,qs),
(39,146,o),
(39,275,qs),
(39,400,o),
(106,478,qs),
(180,566,o),
(307,566,qs),
(377,566,o),
(434,544,qs),
(465,531,o),
(484,492,o),
(476,457,qs),
(469,428,ls),
(466,415,o),
(456,415,qs),
(450,415,o),
(440,420,qs),
(399,440,o),
(347,454,o),
(311,454,qs),
(247,454,o),
(208,417,qs),
(160,370,o),
(160,275,qs),
(160,196,o),
(199,150,qs),
(241,101,o),
(316,101,qs),
(395,101,o),
(459,160,qs),
(468,169,o),
(477,169,qs),
(495,169,o),
(495,142,qs),
(495,105,o),
(469,67,qs),
(431,12,o),
(359,-4,q),
(312,-102,ls)
);
}
);
userData = {
assembly = "PUSHB[ ]	/* 6 values pushed */
39 1 5 1 1 76 
MPPEM[ ]	/* MeasurePixelPerEm */
PUSHB[ ]	/* 1 value pushed */
40 
LT[ ]	/* LessThan */
IF[ ]	/* If */
NPUSHB[ ]	/* 33 values pushed */
0 3 2 0 2 3 0 128 0 0 1 2 0 1 126 0 1 0 5 1 5 99 0 2 2 4 97 0 4 4 39 2 78 
ELSE[ ]	/* Else */
NPUSHB[ ]	/* 39 values pushed */
0 3 2 0 2 3 0 128 0 0 1 2 0 1 126 0 4 0 2 3 4 2 105 0 1 5 5 1 89 0 1 1 5 95 0 5 1 5 79 
EIF[ ]	/* EndIf */
NPUSHB[ ]	/* 9 values pushed */
57 38 35 38 34 37 6 9 28 
CALL[ ]	/* CallFunction */";
};
width = 520;
}
);
note = Ccedilla;
unicode = 199;
},
{
glyphname = Egrave;
kernRight = E;
layers = (
{
layerId = m01;
shapes = (
{
closed = 1;
nodes = (
(401,108,o),
(401,42,qs),
(401,17,ls),
(401,0,o),
(385,0,qs),
(64,0,ls),
(51,0,o),
(51,13,qs),
(51,543,ls),
(51,556,o),
(64,556,qs),
(323,556,ls),
(393,556,o),
(393,489,qs),
(393,464,ls),
(393,447,o),
(377,447,qs),
(168,447,l),
(168,334,l),
(303,334,ls),
(373,334,o),
(373,267,qs),
(373,242,ls),
(373,226,o),
(357,226,qs),
(168,226,l),
(168,108,l),
(331,108,ls)
);
},
{
closed = 1;
nodes = (
(82,699,o),
(89,699,qs),
(180,699,ls),
(197,699,o),
(210,687,qs),
(301,604,ls),
(306,600,o),
(301,589,o),
(295,589,qs),
(217,589,ls),
(194,589,o),
(181,601,qs),
(84,683,ls),
(79,687,o)
);
}
);
userData = {
assembly = "NPUSHB[ ]	/* 58 values pushed */
0 7 6 7 133 0 6 3 6 133 0 1 0 0 5 1 0 103 0 2 2 3 96 0 3 3 39 77 8 1 5 5 4 95 0 4 4 40 4 78 0 0 40 37 32 30 0 27 0 26 51 51 33 35 33 9 9 27 
CALL[ ]	/* CallFunction */";
};
width = 423;
}
);
note = Egrave;
unicode = 200;
},
{
glyphname = Eacute;
kernRight = E;
layers = (
{
layerId = m01;
shapes = (
{
closed = 1;
nodes = (
(401,108,o),
(401,42,qs),
(401,17,ls),
(401,0,o),
(385,0,qs),
(64,0,ls),
(51,0,o),
(51,13,qs),
(51,543,ls),
(51,556,o),
(64,556,qs),
(323,556,ls),
(393,556,o),
(393,489,qs),
(393,464,ls),
(393,447,o),
(377,447,qs),
(168,447,l),
(168,334,l),
(303,334,ls),
(373,334,o),
(373,267,qs),
(373,242,ls),
(373,226,o),
(357,226,qs),
(168,226,l),
(168,108,l),
(331,108,ls)
);
},
{
closed = 1;
nodes = (
(117,600,o),
(122,604,qs),
(213,687,ls),
(226,699,o),
(243,699,qs),
(334,699,ls),
(341,699,o),
(344,687,o),
(339,683,qs),
(242,601,ls),
(229,589,o),
(206,589,qs),
(128,589,ls),
(122,589,o)
);
}
);
userData = {
assembly = "NPUSHB[ ]	/* 63 values pushed */
0 7 6 7 133 9 1 6 3 6 133 0 1 0 0 5 1 0 103 0 2 2 3 96 0 3 3 39 77 8 1 5 5 4 95 0 4 4 40 4 78 30 28 0 0 37 34 28 41 30 41 0 27 0 26 51 51 33 35 33 10 9 27 
CALL[ ]	/* CallFunction */";
};
width = 423;
}
);
note = Eacute;
unicode = 201;
},
{
glyphname = Ecircumflex;
kernRight = E;
layers = (
{
layerId = m01;
shapes = (
{
closed = 1;
nodes = (
(401,108,o),
(401,42,qs),
(401,17,ls),
(401,0,o),
(385,0,qs),
(64,0,ls),
(51,0,o),
(51,13,qs),
(51,543,ls),
(51,556,o),
(64,556,qs),
(323,556,ls),
(393,556,o),
(393,489,qs),
(393,464,ls),
(393,447,o),
(377,447,qs),
(168,447,l),
(168,334,l),
(303,334,ls),
(373,334,o),
(373,267,qs),
(373,242,ls),
(373,226,o),
(357,226,qs),
(168,226,l),
(168,108,l),
(331,108,ls)
);
},
{
closed = 1;
nodes = (
(154,589,o),
(131,589,qs),
(62,589,ls),
(56,589,o),
(52,600,o),
(56,604,qs),
(135,687,ls),
(146,699,o),
(165,699,qs),
(260,699,ls),
(278,699,o),
(290,687,qs),
(369,604,ls),
(373,600,o),
(369,589,o),
(363,589,qs),
(293,589,ls),
(271,589,o),
(260,603,qs),
(213,659,l),
(165,603,ls)
);
}
);
userData = {
assembly = "NPUSHB[ ]	/* 59 values pushed */
0 7 8 1 6 3 7 6 103 0 1 0 0 5 1 0 103 0 2 2 3 95 0 3 3 39 77 9 1 5 5 4 95 0 4 4 40 4 78 0 0 47 44 40 37 32 30 0 27 0 26 51 51 33 35 33 10 9 27 
CALL[ ]	/* CallFunction */";
};
width = 423;
}
);
note = Ecircumflex;
unicode = 202;
},
{
glyphname = Edieresis;
kernRight = E;
layers = (
{
layerId = m01;
shapes = (
{
closed = 1;
nodes = (
(401,108,o),
(401,42,qs),
(401,17,ls),
(401,0,o),
(385,0,qs),
(64,0,ls),
(51,0,o),
(51,13,qs),
(51,543,ls),
(51,556,o),
(64,556,qs),
(323,556,ls),
(393,556,o),
(393,489,qs),
(393,464,ls),
(393,447,o),
(377,447,qs),
(168,447,l),
(168,334,l),
(303,334,ls),
(373,334,o),
(373,267,qs),
(373,242,ls),
(373,226,o),
(357,226,qs),
(168,226,l),
(168,108,l),
(331,108,ls)
);
},
{
closed = 1;
nodes = (
(104,705,o),
(131,705,qs),
(158,705,o),
(193,667,o),
(193,640,qs),
(193,613,o),
(158,576,o),
(131,576,qs),
(104,576,o),
(68,613,o),
(68,640,qs),
(68,667,o)
);
},
{
closed = 1;
nodes = (
(280,705,o),
(307,705,qs),
(334,705,o),
(369,668,o),
(369,640,qs),
(369,613,o),
(334,576,o),
(307,576,qs),
(280,576,o),
(244,613,o),
(244,640,qs),
(244,667,o)
);
}
);
userData = {
assembly = "NPUSHB[ ]	/* 62 values pushed */
9 1 7 8 1 6 3 7 6 105 0 1 0 0 5 1 0 103 0 2 2 3 95 0 3 3 39 77 10 1 5 5 4 95 0 4 4 40 4 78 0 0 50 48 44 42 38 36 32 30 0 27 0 26 51 51 33 35 33 11 9 27 
CALL[ ]	/* CallFunction */";
};
width = 423;
}
);
note = Edieresis;
unicode = 203;
},
{
glyphname = Igrave;
kernRight = I;
layers = (
{
layerId = m01;
shapes = (
{
closed = 1;
nodes = (
(50,556,o),
(63,556,qs),
(73,556,ls),
(122,556,o),
(167,508,o),
(167,455,qs),
(167,13,ls),
(167,0,o),
(154,0,qs),
(63,0,ls),
(50,0,o),
(50,13,qs),
(50,543,ls)
);
},
{
closed = 1;
nodes = (
(-2,699,o),
(5,699,qs),
(96,699,ls),
(113,699,o),
(126,687,qs),
(218,604,ls),
(222,600,o),
(218,589,o),
(212,589,qs),
(133,589,ls),
(111,589,o),
(97,601,qs),
(0,683,ls),
(-5,687,o)
);
}
);
userData = {
assembly = "NPUSHB[ ]	/* 28 values pushed */
0 3 2 3 133 0 2 1 2 133 0 1 1 39 77 0 0 0 40 0 78 53 36 52 49 4 9 26 
CALL[ ]	/* CallFunction */";
};
width = 219;
}
);
note = Igrave;
unicode = 204;
},
{
glyphname = Iacute;
kernRight = I;
layers = (
{
layerId = m01;
shapes = (
{
closed = 1;
nodes = (
(51,556,o),
(64,556,qs),
(74,556,ls),
(123,556,o),
(168,508,o),
(168,455,qs),
(168,13,ls),
(168,0,o),
(155,0,qs),
(64,0,ls),
(51,0,o),
(51,13,qs),
(51,543,ls)
);
},
{
closed = 1;
nodes = (
(-5,600,o),
(-1,604,qs),
(90,687,ls),
(104,699,o),
(120,699,qs),
(212,699,ls),
(218,699,o),
(222,687,o),
(217,683,qs),
(119,601,ls),
(106,589,o),
(83,589,qs),
(5,589,ls),
(-1,589,o)
);
}
);
userData = {
assembly = "NPUSHB[ ]	/* 35 values pushed */
0 3 2 3 133 4 1 2 1 2 133 0 1 1 39 77 0 0 0 40 0 78 15 13 22 19 13 26 15 26 52 49 5 9 24 
CALL[ ]	/* CallFunction */";
};
width = 219;
}
);
note = Iacute;
unicode = 205;
},
{
glyphname = Icircumflex;
kernRight = I;
layers = (
{
layerId = m01;
shapes = (
{
closed = 1;
nodes = (
(49,556,o),
(62,556,qs),
(72,556,ls),
(122,556,o),
(167,508,o),
(167,455,qs),
(167,13,ls),
(167,0,o),
(154,0,qs),
(62,0,ls),
(49,0,o),
(49,13,qs),
(49,543,ls)
);
},
{
closed = 1;
nodes = (
(50,589,o),
(27,589,qs),
(-42,589,ls),
(-48,589,o),
(-52,600,o),
(-48,604,qs),
(31,687,ls),
(42,699,o),
(61,699,qs),
(156,699,ls),
(174,699,o),
(186,687,qs),
(265,604,ls),
(269,600,o),
(265,589,o),
(259,589,qs),
(189,589,ls),
(167,589,o),
(156,603,qs),
(109,659,l),
(61,603,ls)
);
}
);
userData = {
assembly = "NPUSHB[ ]	/* 28 values pushed */
0 3 4 1 2 1 3 2 103 0 1 1 39 77 0 0 0 40 0 78 52 53 36 52 49 5 9 27 
CALL[ ]	/* CallFunction */";
};
width = 219;
}
);
note = Icircumflex;
unicode = 206;
},
{
glyphname = Idieresis;
kernRight = I;
layers = (
{
layerId = m01;
shapes = (
{
closed = 1;
nodes = (
(51,556,o),
(64,556,qs),
(74,556,ls),
(124,556,o),
(169,508,o),
(169,455,qs),
(169,13,ls),
(169,0,o),
(156,0,qs),
(64,0,ls),
(51,0,o),
(51,13,qs),
(51,543,ls)
);
},
{
closed = 1;
nodes = (
(-4,705,o),
(23,705,qs),
(49,705,o),
(84,668,o),
(84,640,qs),
(84,613,o),
(49,576,o),
(23,576,qs),
(-5,576,o),
(-41,613,o),
(-41,640,qs),
(-41,667,o)
);
},
{
closed = 1;
nodes = (
(172,705,o),
(199,705,qs),
(225,705,o),
(260,667,o),
(260,640,qs),
(260,613,o),
(225,576,o),
(199,576,qs),
(171,576,o),
(135,613,o),
(135,640,qs),
(135,667,o)
);
}
);
userData = {
assembly = "NPUSHB[ ]	/* 30 values pushed */
5 1 3 4 1 2 1 3 2 105 0 1 1 39 77 0 0 0 40 0 78 36 36 36 36 52 49 6 9 28 
CALL[ ]	/* CallFunction */";
};
width = 219;
}
);
note = Idieresis;
unicode = 207;
},
{
glyphname = Eth;
layers = (
{
layerId = m01;
shapes = (
{
closed = 1;
nodes = (
(0,226,o),
(0,239,qs),
(0,321,ls),
(0,334,o),
(13,334,qs),
(60,334,l),
(60,543,ls),
(60,556,o),
(73,556,qs),
(240,556,ls),
(354,556,o),
(427,508,qs),
(530,441,o),
(530,286,qs),
(530,0,o),
(232,0,qs),
(73,0,ls),
(60,0,o),
(60,13,qs),
(60,226,l),
(13,226,ls)
);
},
{
closed = 1;
nodes = (
(316,108,o),
(358,146,qs),
(407,191,o),
(407,282,qs),
(407,447,o),
(240,447,qs),
(177,447,l),
(177,334,l),
(241,334,ls),
(311,334,o),
(311,267,qs),
(311,242,ls),
(311,226,o),
(295,226,qs),
(177,226,l),
(177,108,l),
(243,108,ls)
);
}
);
userData = {
assembly = "NPUSHB[ ]	/* 57 values pushed */
5 1 2 4 8 2 3 7 2 3 105 0 6 6 1 95 0 1 1 39 77 9 1 7 7 0 95 0 0 0 40 0 78 21 21 0 0 21 37 21 36 32 30 29 27 24 22 0 20 0 19 34 52 50 10 9 25 
CALL[ ]	/* CallFunction */";
};
width = 558;
}
);
note = Eth;
unicode = 208;
},
{
glyphname = Ntilde;
kernRight = N;
layers = (
{
layerId = m01;
shapes = (
{
closed = 1;
nodes = (
(168,0,o),
(155,0,qs),
(64,0,ls),
(51,0,o),
(51,13,qs),
(51,543,ls),
(51,556,o),
(64,556,qs),
(104,556,ls),
(137,556,o),
(177,533,o),
(195,504,qs),
(371,218,l),
(371,543,ls),
(371,556,o),
(384,556,qs),
(394,556,ls),
(444,556,o),
(488,508,o),
(488,455,qs),
(488,13,ls),
(488,0,o),
(475,0,qs),
(389,0,ls),
(375,0,o),
(367,13,qs),
(168,336,l),
(168,13,ls)
);
},
{
closed = 1;
nodes = (
(121,600,qs),
(127,701,o),
(199,701,qs),
(227,701,o),
(273,683,qs),
(311,668,o),
(326,668,qs),
(344,668,o),
(348,692,qs),
(350,704,o),
(361,704,qs),
(409,704,ls),
(421,704,o),
(420,691,qs),
(414,637,o),
(376,593,o),
(334,593,qs),
(311,593,o),
(266,610,qs),
(229,623,o),
(216,623,qs),
(196,623,o),
(192,599,qs),
(191,587,o),
(179,587,qs),
(131,587,ls),
(121,587,o)
);
}
);
userData = {
assembly = "PUSHB[ ]	/* 7 values pushed */
14 0 2 0 1 1 76 
MPPEM[ ]	/* MeasurePixelPerEm */
PUSHB[ ]	/* 1 value pushed */
28 
LT[ ]	/* LessThan */
IF[ ]	/* If */
NPUSHB[ ]	/* 37 values pushed */
0 5 8 4 4 5 114 9 1 7 8 4 7 90 0 8 6 10 2 4 1 8 4 106 2 1 1 1 39 77 3 1 0 0 40 0 78 
ELSE[ ]	/* Else */
MPPEM[ ]	/* MeasurePixelPerEm */
PUSHB[ ]	/* 1 value pushed */
32 
LT[ ]	/* LessThan */
IF[ ]	/* If */
NPUSHB[ ]	/* 38 values pushed */
0 5 8 4 8 5 4 128 9 1 7 8 4 7 90 0 8 6 10 2 4 1 8 4 106 2 1 1 1 39 77 3 1 0 0 40 0 78 
ELSE[ ]	/* Else */
NPUSHB[ ]	/* 39 values pushed */
0 5 8 6 8 5 6 128 0 8 0 6 4 8 6 106 9 1 7 10 1 4 1 7 4 105 2 1 1 1 39 77 3 1 0 0 40 0 78 
EIF[ ]	/* EndIf */
EIF[ ]	/* EndIf */
NPUSHB[ ]	/* 23 values pushed */
30 28 52 50 48 46 44 41 38 36 34 32 28 54 30 54 51 53 52 50 11 9 26 
CALL[ ]	/* CallFunction */";
};
width = 539;
}
);
note = Ntilde;
unicode = 209;
},
{
glyphname = Ograve;
kernLeft = O;
kernRight = O;
layers = (
{
layerId = m01;
shapes = (
{
closed = 1;
nodes = (
(452,277,qs),
(452,454,o),
(306,454,qs),
(160,454,o),
(160,277,qs),
(160,102,o),
(306,102,qs),
(452,102,o)
);
},
{
closed = 1;
nodes = (
(118,58,qs),
(39,134,o),
(39,277,qs),
(39,401,o),
(101,477,qs),
(173,566,o),
(306,566,qs),
(423,566,o),
(494,498,qs),
(574,420,o),
(574,277,qs),
(574,153,o),
(513,78,qs),
(441,-10,o),
(306,-10,qs),
(188,-10,o)
);
},
{
closed = 1;
nodes = (
(186,699,o),
(193,699,qs),
(284,699,ls),
(301,699,o),
(314,687,qs),
(406,604,ls),
(410,600,o),
(406,589,o),
(400,589,qs),
(321,589,ls),
(299,589,o),
(285,601,qs),
(188,683,ls),
(183,687,o)
);
}
);
userData = {
assembly = "MPPEM[ ]	/* MeasurePixelPerEm */
PUSHB[ ]	/* 1 value pushed */
40 
LT[ ]	/* LessThan */
IF[ ]	/* If */
NPUSHB[ ]	/* 33 values pushed */
0 5 4 5 133 0 4 3 4 133 0 1 1 3 97 0 3 3 39 77 6 1 0 0 2 97 7 1 2 2 46 2 78 
ELSE[ ]	/* Else */
NPUSHB[ ]	/* 31 values pushed */
0 5 4 5 133 0 4 3 4 133 0 3 0 1 0 3 1 106 6 1 0 0 2 97 7 1 2 2 46 2 78 
EIF[ ]	/* EndIf */
NPUSHB[ ]	/* 23 values pushed */
9 8 1 0 36 33 28 26 17 15 8 23 9 23 5 3 0 7 1 7 8 9 22 
CALL[ ]	/* CallFunction */";
};
width = 612;
}
);
note = Ograve;
unicode = 210;
},
{
glyphname = Oacute;
kernLeft = O;
kernRight = O;
layers = (
{
layerId = m01;
shapes = (
{
closed = 1;
nodes = (
(452,277,qs),
(452,454,o),
(306,454,qs),
(160,454,o),
(160,277,qs),
(160,102,o),
(306,102,qs),
(452,102,o)
);
},
{
closed = 1;
nodes = (
(118,58,qs),
(39,134,o),
(39,277,qs),
(39,401,o),
(101,477,qs),
(173,566,o),
(306,566,qs),
(423,566,o),
(494,498,qs),
(574,420,o),
(574,277,qs),
(574,153,o),
(513,78,qs),
(441,-10,o),
(306,-10,qs),
(188,-10,o)
);
},
{
closed = 1;
nodes = (
(202,600,o),
(206,604,qs),
(297,687,ls),
(311,699,o),
(327,699,qs),
(419,699,ls),
(425,699,o),
(429,687,o),
(424,683,qs),
(326,601,ls),
(313,589,o),
(290,589,qs),
(212,589,ls),
(206,589,o)
);
}
);
userData = {
assembly = "MPPEM[ ]	/* MeasurePixelPerEm */
PUSHB[ ]	/* 1 value pushed */
40 
LT[ ]	/* LessThan */
IF[ ]	/* If */
NPUSHB[ ]	/* 34 values pushed */
0 5 4 5 133 8 1 4 3 4 133 0 1 1 3 97 0 3 3 39 77 6 1 0 0 2 97 7 1 2 2 46 2 78 
ELSE[ ]	/* Else */
NPUSHB[ ]	/* 32 values pushed */
0 5 4 5 133 8 1 4 3 4 133 0 3 0 1 0 3 1 106 6 1 0 0 2 97 7 1 2 2 46 2 78 
EIF[ ]	/* EndIf */
NPUSHB[ ]	/* 27 values pushed */
26 24 9 8 1 0 33 30 24 37 26 37 17 15 8 23 9 23 5 3 0 7 1 7 9 9 22 
CALL[ ]	/* CallFunction */";
};
width = 612;
}
);
note = Oacute;
unicode = 211;
},
{
glyphname = Ocircumflex;
kernLeft = O;
kernRight = O;
layers = (
{
layerId = m01;
shapes = (
{
closed = 1;
nodes = (
(452,277,qs),
(452,454,o),
(306,454,qs),
(160,454,o),
(160,277,qs),
(160,102,o),
(306,102,qs),
(452,102,o)
);
},
{
closed = 1;
nodes = (
(118,58,qs),
(39,134,o),
(39,277,qs),
(39,401,o),
(101,477,qs),
(173,566,o),
(306,566,qs),
(423,566,o),
(494,498,qs),
(574,420,o),
(574,277,qs),
(574,153,o),
(513,78,qs),
(441,-10,o),
(306,-10,qs),
(188,-10,o)
);
},
{
closed = 1;
nodes = (
(249,589,o),
(226,589,qs),
(156,589,ls),
(150,589,o),
(146,600,o),
(150,604,qs),
(230,687,ls),
(241,699,o),
(260,699,qs),
(354,699,ls),
(372,699,o),
(384,687,qs),
(463,604,ls),
(467,600,o),
(463,589,o),
(457,589,qs),
(388,589,ls),
(365,589,o),
(354,603,qs),
(307,659,l),
(260,603,ls)
);
}
);
userData = {
assembly = "MPPEM[ ]	/* MeasurePixelPerEm */
PUSHB[ ]	/* 1 value pushed */
40 
LT[ ]	/* LessThan */
IF[ ]	/* If */
NPUSHB[ ]	/* 32 values pushed */
0 5 6 1 4 3 5 4 103 0 1 1 3 97 0 3 3 39 77 7 1 0 0 2 97 8 1 2 2 46 2 78 
ELSE[ ]	/* Else */
NPUSHB[ ]	/* 30 values pushed */
0 5 6 1 4 3 5 4 103 0 3 0 1 0 3 1 105 7 1 0 0 2 97 8 1 2 2 46 2 78 
EIF[ ]	/* EndIf */
NPUSHB[ ]	/* 25 values pushed */
9 8 1 0 43 40 36 33 28 26 17 15 8 23 9 23 5 3 0 7 1 7 9 9 22 
CALL[ ]	/* CallFunction */";
};
width = 612;
}
);
note = Ocircumflex;
unicode = 212;
},
{
glyphname = Otilde;
kernLeft = O;
kernRight = O;
layers = (
{
layerId = m01;
shapes = (
{
closed = 1;
nodes = (
(452,277,qs),
(452,454,o),
(306,454,qs),
(160,454,o),
(160,277,qs),
(160,102,o),
(306,102,qs),
(452,102,o)
);
},
{
closed = 1;
nodes = (
(118,58,qs),
(39,134,o),
(39,277,qs),
(39,401,o),
(101,477,qs),
(173,566,o),
(306,566,qs),
(423,566,o),
(494,498,qs),
(574,420,o),
(574,277,qs),
(574,153,o),
(513,78,qs),
(441,-10,o),
(306,-10,qs),
(188,-10,o)
);
},
{
closed = 1;
nodes = (
(151,600,qs),
(157,701,o),
(230,701,qs),
(257,701,o),
(304,683,qs),
(341,668,o),
(357,668,qs),
(375,668,o),
(379,692,qs),
(380,704,o),
(392,704,qs),
(440,704,ls),
(452,704,o),
(450,691,qs),
(445,637,o),
(406,593,o),
(365,593,qs),
(342,593,o),
(297,610,qs),
(260,623,o),
(247,623,qs),
(227,623,o),
(223,599,qs),
(221,587,o),
(210,587,qs),
(162,587,ls),
(151,587,o)
);
}
);
userData = {
assembly = "MPPEM[ ]	/* MeasurePixelPerEm */
PUSHB[ ]	/* 1 value pushed */
28 
LT[ ]	/* LessThan */
IF[ ]	/* If */
NPUSHB[ ]	/* 47 values pushed */
0 5 8 4 4 5 114 9 1 7 8 4 7 90 0 8 6 12 2 4 3 8 4 106 0 1 1 3 97 0 3 3 39 77 10 1 0 0 2 97 11 1 2 2 46 2 78 
ELSE[ ]	/* Else */
MPPEM[ ]	/* MeasurePixelPerEm */
PUSHB[ ]	/* 1 value pushed */
32 
LT[ ]	/* LessThan */
IF[ ]	/* If */
NPUSHB[ ]	/* 48 values pushed */
0 5 8 4 8 5 4 128 9 1 7 8 4 7 90 0 8 6 12 2 4 3 8 4 106 0 1 1 3 97 0 3 3 39 77 10 1 0 0 2 97 11 1 2 2 46 2 78 
ELSE[ ]	/* Else */
MPPEM[ ]	/* MeasurePixelPerEm */
PUSHB[ ]	/* 1 value pushed */
40 
LT[ ]	/* LessThan */
IF[ ]	/* If */
NPUSHB[ ]	/* 49 values pushed */
0 5 8 6 8 5 6 128 0 8 0 6 4 8 6 106 9 1 7 12 1 4 3 7 4 105 0 1 1 3 97 0 3 3 39 77 10 1 0 0 2 97 11 1 2 2 46 2 78 
ELSE[ ]	/* Else */
NPUSHB[ ]	/* 47 values pushed */
0 5 8 6 8 5 6 128 0 8 0 6 4 8 6 106 9 1 7 12 1 4 3 7 4 105 0 3 0 1 0 3 1 105 10 1 0 0 2 97 11 1 2 2 46 2 78 
EIF[ ]	/* EndIf */
EIF[ ]	/* EndIf */
EIF[ ]	/* EndIf */
NPUSHB[ ]	/* 35 values pushed */
26 24 9 8 1 0 48 46 44 42 40 37 34 32 30 28 24 50 26 50 17 15 8 23 9 23 5 3 0 7 1 7 13 9 22 
CALL[ ]	/* CallFunction */";
};
width = 612;
}
);
note = Otilde;
unicode = 213;
},
{
glyphname = Odieresis;
kernLeft = O;
kernRight = O;
layers = (
{
layerId = m01;
shapes = (
{
closed = 1;
nodes = (
(452,277,qs),
(452,454,o),
(306,454,qs),
(160,454,o),
(160,277,qs),
(160,102,o),
(306,102,qs),
(452,102,o)
);
},
{
closed = 1;
nodes = (
(118,58,qs),
(39,134,o),
(39,277,qs),
(39,401,o),
(101,477,qs),
(173,566,o),
(306,566,qs),
(423,566,o),
(494,498,qs),
(574,420,o),
(574,277,qs),
(574,153,o),
(513,78,qs),
(441,-10,o),
(306,-10,qs),
(188,-10,o)
);
},
{
closed = 1;
nodes = (
(193,705,o),
(220,705,qs),
(246,705,o),
(281,668,o),
(281,640,qs),
(281,613,o),
(246,576,o),
(220,576,qs),
(193,576,o),
(156,613,o),
(156,640,qs),
(156,667,o)
);
},
{
closed = 1;
nodes = (
(369,705,o),
(396,705,qs),
(422,705,o),
(457,667,o),
(457,640,qs),
(457,613,o),
(422,576,o),
(396,576,qs),
(369,576,o),
(332,613,o),
(332,640,qs),
(332,667,o)
);
}
);
userData = {
assembly = "MPPEM[ ]	/* MeasurePixelPerEm */
PUSHB[ ]	/* 1 value pushed */
40 
LT[ ]	/* LessThan */
IF[ ]	/* If */
NPUSHB[ ]	/* 33 values pushed */
7 1 5 6 1 4 3 5 4 105 0 1 1 3 97 0 3 3 39 77 8 1 0 0 2 97 9 1 2 2 46 2 78 
ELSE[ ]	/* Else */
NPUSHB[ ]	/* 31 values pushed */
7 1 5 6 1 4 3 5 4 105 0 3 0 1 0 3 1 105 8 1 0 0 2 97 9 1 2 2 46 2 78 
EIF[ ]	/* EndIf */
NPUSHB[ ]	/* 27 values pushed */
9 8 1 0 46 44 40 38 34 32 28 26 17 15 8 23 9 23 5 3 0 7 1 7 10 9 22 
CALL[ ]	/* CallFunction */";
};
width = 612;
}
);
note = Odieresis;
unicode = 214;
},
{
glyphname = multiply;
layers = (
{
layerId = m01;
shapes = (
{
closed = 1;
nodes = (
(38,392,o),
(47,401,qs),
(79,433,o),
(127,431,o),
(161,397,qs),
(220,338,l),
(318,436,ls),
(327,445,o),
(336,436,qs),
(382,392,ls),
(392,383,o),
(382,373,qs),
(283,274,l),
(392,166,ls),
(401,157,o),
(392,147,qs),
(360,115,o),
(313,117,o),
(279,151,qs),
(219,211,l),
(121,112,ls),
(112,103,o),
(103,112,qs),
(58,157,ls),
(49,166,o),
(58,175,qs),
(156,273,l),
(47,383,ls)
);
}
);
userData = {
assembly = "NPUSHB[ ]	/* 22 values pushed */
21 14 7 3 0 1 1 76 0 1 0 1 133 0 0 0 118 29 25 2 9 24 
CALL[ ]	/* CallFunction */";
};
width = 431;
}
);
note = multiply;
unicode = 215;
},
{
glyphname = Oslash;
kernLeft = O;
kernRight = O;
layers = (
{
layerId = m01;
shapes = (
{
closed = 1;
nodes = (
(335,454,o),
(306,454,qs),
(160,454,o),
(160,277,qs),
(160,210,o),
(181,171,q),
(357,447,l)
);
},
{
closed = 1;
nodes = (
(281,102,o),
(306,102,qs),
(452,102,o),
(452,277,qs),
(452,342,o),
(433,382,q),
(259,108,l)
);
},
{
closed = 1;
nodes = (
(118,58,qs),
(39,134,o),
(39,277,qs),
(39,401,o),
(101,477,qs),
(173,566,o),
(306,566,qs),
(423,566,o),
(494,498,qs),
(574,420,o),
(574,277,qs),
(574,153,o),
(513,78,qs),
(441,-10,o),
(306,-10,qs),
(188,-10,o)
);
}
);
userData = {
assembly = "PUSHB[ ]	/* 7 values pushed */
13 6 2 1 0 1 76 
MPPEM[ ]	/* MeasurePixelPerEm */
PUSHB[ ]	/* 1 value pushed */
40 
LT[ ]	/* LessThan */
IF[ ]	/* If */
NPUSHB[ ]	/* 22 values pushed */
0 0 0 3 97 0 3 3 39 77 0 1 1 2 97 4 1 2 2 46 2 78 
ELSE[ ]	/* Else */
NPUSHB[ ]	/* 20 values pushed */
0 3 0 0 1 3 0 105 0 1 1 2 97 4 1 2 2 46 2 78 
EIF[ ]	/* EndIf */
NPUSHB[ ]	/* 13 values pushed */
15 14 23 21 14 29 15 29 37 35 5 9 24 
CALL[ ]	/* CallFunction */";
};
width = 612;
}
);
note = Oslash;
unicode = 216;
},
{
glyphname = Ugrave;
kernLeft = U;
kernRight = U;
layers = (
{
layerId = m01;
shapes = (
{
closed = 1;
nodes = (
(91,63,qs),
(48,119,o),
(48,207,qs),
(48,543,ls),
(48,556,o),
(61,556,qs),
(71,556,ls),
(121,556,o),
(165,508,o),
(165,455,qs),
(165,231,ls),
(165,100,o),
(264,100,qs),
(365,100,o),
(365,230,qs),
(365,543,ls),
(365,556,o),
(378,556,qs),
(388,556,ls),
(438,556,o),
(482,508,o),
(482,455,qs),
(482,207,ls),
(482,134,o),
(451,81,qs),
(397,-10,o),
(264,-10,qs),
(146,-10,o)
);
},
{
closed = 1;
nodes = (
(136,699,o),
(142,699,qs),
(234,699,ls),
(250,699,o),
(264,687,qs),
(355,604,ls),
(359,600,o),
(355,589,o),
(349,589,qs),
(271,589,ls),
(248,589,o),
(235,601,qs),
(137,683,ls),
(132,687,o)
);
}
);
userData = {
assembly = "NPUSHB[ ]	/* 47 values pushed */
0 5 4 5 133 0 4 1 4 133 3 1 1 1 39 77 0 2 2 0 98 6 1 0 0 46 0 78 1 0 39 37 32 30 22 19 15 13 10 7 0 27 1 27 7 9 22 
CALL[ ]	/* CallFunction */";
};
width = 530;
}
);
note = Ugrave;
unicode = 217;
},
{
glyphname = Uacute;
kernLeft = U;
kernRight = U;
layers = (
{
layerId = m01;
shapes = (
{
closed = 1;
nodes = (
(91,63,qs),
(48,119,o),
(48,207,qs),
(48,543,ls),
(48,556,o),
(61,556,qs),
(71,556,ls),
(121,556,o),
(165,508,o),
(165,455,qs),
(165,231,ls),
(165,100,o),
(264,100,qs),
(365,100,o),
(365,230,qs),
(365,543,ls),
(365,556,o),
(378,556,qs),
(388,556,ls),
(438,556,o),
(482,508,o),
(482,455,qs),
(482,207,ls),
(482,134,o),
(451,81,qs),
(397,-10,o),
(264,-10,qs),
(146,-10,o)
);
},
{
closed = 1;
nodes = (
(151,600,o),
(155,604,qs),
(247,687,ls),
(260,699,o),
(277,699,qs),
(368,699,ls),
(375,699,o),
(378,687,o),
(373,683,qs),
(276,601,ls),
(262,589,o),
(240,589,qs),
(161,589,ls),
(155,589,o)
);
}
);
userData = {
assembly = "NPUSHB[ ]	/* 52 values pushed */
0 5 4 5 133 7 1 4 1 4 133 3 1 1 1 39 77 0 2 2 0 98 6 1 0 0 46 0 78 30 28 1 0 37 34 28 41 30 41 22 19 15 13 10 7 0 27 1 27 8 9 22 
CALL[ ]	/* CallFunction */";
};
width = 530;
}
);
note = Uacute;
unicode = 218;
},
{
glyphname = Ucircumflex;
kernLeft = U;
kernRight = U;
layers = (
{
layerId = m01;
shapes = (
{
closed = 1;
nodes = (
(91,63,qs),
(48,119,o),
(48,207,qs),
(48,543,ls),
(48,556,o),
(61,556,qs),
(71,556,ls),
(121,556,o),
(165,508,o),
(165,455,qs),
(165,231,ls),
(165,100,o),
(264,100,qs),
(365,100,o),
(365,230,qs),
(365,543,ls),
(365,556,o),
(378,556,qs),
(388,556,ls),
(438,556,o),
(482,508,o),
(482,455,qs),
(482,207,ls),
(482,134,o),
(451,81,qs),
(397,-10,o),
(264,-10,qs),
(146,-10,o)
);
},
{
closed = 1;
nodes = (
(207,589,o),
(184,589,qs),
(115,589,ls),
(109,589,o),
(104,600,o),
(109,604,q),
(188,687,ls),
(199,699,o),
(218,699,qs),
(312,699,ls),
(330,699,o),
(342,687,qs),
(422,604,l),
(425,600,o),
(421,589,o),
(416,589,qs),
(346,589,ls),
(323,589,o),
(312,603,qs),
(266,659,l),
(218,603,ls)
);
}
);
userData = {
assembly = "NPUSHB[ ]	/* 48 values pushed */
0 5 6 1 4 1 5 4 103 3 1 1 1 39 77 0 2 2 0 98 7 1 0 0 46 0 78 1 0 47 44 40 37 32 30 22 19 15 13 10 7 0 27 1 27 8 9 22 
CALL[ ]	/* CallFunction */";
};
width = 530;
}
);
note = Ucircumflex;
unicode = 219;
},
{
glyphname = Udieresis;
kernLeft = U;
kernRight = U;
layers = (
{
layerId = m01;
shapes = (
{
closed = 1;
nodes = (
(91,63,qs),
(48,119,o),
(48,207,qs),
(48,543,ls),
(48,556,o),
(61,556,qs),
(71,556,ls),
(121,556,o),
(165,508,o),
(165,455,qs),
(165,231,ls),
(165,100,o),
(264,100,qs),
(365,100,o),
(365,230,qs),
(365,543,ls),
(365,556,o),
(378,556,qs),
(388,556,ls),
(438,556,o),
(482,508,o),
(482,455,qs),
(482,207,ls),
(482,134,o),
(451,81,qs),
(397,-10,o),
(264,-10,qs),
(146,-10,o)
);
},
{
closed = 1;
nodes = (
(146,705,o),
(173,705,qs),
(199,705,o),
(235,667,o),
(235,640,qs),
(235,613,o),
(200,576,o),
(173,576,qs),
(146,576,o),
(110,613,o),
(110,640,qs),
(110,667,o)
);
},
{
closed = 1;
nodes = (
(322,705,o),
(349,705,qs),
(375,705,o),
(411,668,o),
(411,640,qs),
(411,613,o),
(376,576,o),
(349,576,qs),
(322,576,o),
(286,613,o),
(286,640,qs),
(286,667,o)
);
}
);
userData = {
assembly = "NPUSHB[ ]	/* 51 values pushed */
7 1 5 6 1 4 1 5 4 105 3 1 1 1 39 77 0 2 2 0 98 8 1 0 0 46 0 78 1 0 50 48 44 42 38 36 32 30 22 19 15 13 10 7 0 27 1 27 9 9 22 
CALL[ ]	/* CallFunction */";
};
width = 530;
}
);
note = Udieresis;
unicode = 220;
},
{
glyphname = Yacute;
kernLeft = Y;
kernRight = Y;
layers = (
{
layerId = m01;
shapes = (
{
closed = 1;
nodes = (
(1,556,o),
(15,556,qs),
(64,556,ls),
(100,556,o),
(146,528,o),
(163,495,qs),
(250,322,l),
(362,543,l),
(367,556,o),
(382,556,qs),
(478,556,ls),
(492,556,o),
(486,543,qs),
(304,200,l),
(304,13,ls),
(304,0,o),
(291,0,qs),
(200,0,ls),
(187,0,o),
(187,13,qs),
(187,203,l),
(7,543,ls)
);
},
{
closed = 1;
nodes = (
(148,600,o),
(152,604,qs),
(244,687,ls),
(257,699,o),
(273,699,qs),
(365,699,ls),
(371,699,o),
(375,687,o),
(370,683,qs),
(272,601,ls),
(259,589,o),
(237,589,qs),
(158,589,ls),
(152,589,o)
);
}
);
userData = {
assembly = "NPUSHB[ ]	/* 48 values pushed */
14 7 0 3 0 1 1 76 5 1 3 4 1 4 3 1 128 2 1 1 1 39 77 0 4 4 0 95 0 0 0 40 0 78 24 22 31 28 22 35 24 35 53 52 50 6 9 25 
CALL[ ]	/* CallFunction */";
};
width = 485;
}
);
note = Yacute;
unicode = 221;
},
{
glyphname = Thorn;
layers = (
{
layerId = m01;
shapes = (
{
closed = 1;
nodes = (
(352,202,o),
(352,281,qs),
(352,317,o),
(308,357,o),
(268,357,qs),
(168,357,l),
(168,202,l),
(268,202,ls)
);
},
{
closed = 1;
nodes = (
(168,0,o),
(155,0,qs),
(64,0,ls),
(51,0,o),
(51,13,qs),
(51,543,ls),
(51,556,o),
(64,556,qs),
(74,556,ls),
(121,556,o),
(166,512,o),
(168,465,q),
(258,465,ls),
(359,465,o),
(413,421,qs),
(469,374,o),
(469,282,qs),
(469,205,o),
(424,154,qs),
(369,93,o),
(274,93,qs),
(168,93,l),
(168,13,ls)
);
}
);
userData = {
assembly = "NPUSHB[ ]	/* 46 values pushed */
0 3 0 0 1 3 0 103 6 1 1 0 2 5 1 2 103 0 4 4 39 77 0 5 5 40 5 78 0 0 29 26 23 20 18 16 10 8 0 7 0 6 33 7 9 23 
CALL[ ]	/* CallFunction */";
};
width = 494;
}
);
note = Thorn;
unicode = 222;
},
{
glyphname = germandbls;
layers = (
{
layerId = m01;
shapes = (
{
closed = 1;
nodes = (
(295,79,qs),
(342,79,o),
(342,112,qs),
(342,141,o),
(296,172,qs),
(242,208,o),
(210,251,o),
(210,285,qs),
(210,313,o),
(238,356,qs),
(272,408,o),
(272,427,qs),
(272,446,o),
(239,470,o),
(214,470,qs),
(155,470,o),
(155,398,qs),
(155,13,ls),
(155,0,o),
(142,0,qs),
(54,0,ls),
(41,0,o),
(41,13,qs),
(41,400,ls),
(41,472,o),
(84,517,qs),
(132,566,o),
(215,566,qs),
(300,566,o),
(347,530,qs),
(388,497,o),
(388,451,qs),
(388,418,o),
(351,362,qs),
(321,316,o),
(321,303,qs),
(321,284,o),
(357,261,qs),
(407,229,o),
(422,213,qs),
(457,175,o),
(457,119,qs),
(457,65,o),
(422,30,qs),
(382,-10,o),
(314,-10,qs),
(259,-10,o),
(221,19,qs),
(179,50,o),
(179,94,qs),
(179,115,o),
(192,115,qs),
(194,115,o),
(199,113,q),
(200,112,o),
(200,112,q),
(251,79,o)
);
}
);
userData = {
assembly = "MPPEM[ ]	/* MeasurePixelPerEm */
PUSHB[ ]	/* 1 value pushed */
20 
LT[ ]	/* LessThan */
IF[ ]	/* If */
NPUSHB[ ]	/* 30 values pushed */
0 0 4 5 4 0 5 128 0 4 4 2 97 0 2 2 39 77 0 5 5 1 97 3 1 1 1 46 1 78 
ELSE[ ]	/* Else */
MPPEM[ ]	/* MeasurePixelPerEm */
PUSHB[ ]	/* 1 value pushed */
40 
LT[ ]	/* LessThan */
IF[ ]	/* If */
NPUSHB[ ]	/* 34 values pushed */
0 0 4 5 4 0 5 128 0 4 4 2 97 0 2 2 39 77 0 3 3 40 77 0 5 5 1 97 0 1 1 46 1 78 
ELSE[ ]	/* Else */
NPUSHB[ ]	/* 32 values pushed */
0 0 4 5 4 0 5 128 0 2 0 4 0 2 4 105 0 3 3 40 77 0 5 5 1 97 0 1 1 46 1 78 
EIF[ ]	/* EndIf */
EIF[ ]	/* EndIf */
NPUSHB[ ]	/* 13 values pushed */
56 54 42 40 37 34 29 27 36 35 6 9 24 
CALL[ ]	/* CallFunction */";
};
width = 477;
}
);
note = germandbls;
unicode = 223;
},
{
glyphname = agrave;
kernLeft = a;
kernRight = a;
layers = (
{
layerId = m01;
shapes = (
{
closed = 1;
nodes = (
(279,113,qs),
(313,136,o),
(313,193,qs),
(313,283,o),
(232,283,qs),
(147,283,o),
(147,193,qs),
(147,149,o),
(193,98,o),
(232,98,qs),
(258,98,o)
);
},
{
closed = 1;
nodes = (
(201,-9,qs),
(124,-9,o),
(78,44,qs),
(29,99,o),
(29,194,qs),
(29,274,o),
(70,328,qs),
(118,394,o),
(203,394,qs),
(279,394,o),
(325,343,q),
(345,382,o),
(410,382,qs),
(415,382,ls),
(428,382,o),
(428,369,qs),
(428,13,ls),
(428,0,o),
(415,0,qs),
(326,0,ls),
(313,0,o),
(313,13,qs),
(313,43,l),
(271,-9,o)
);
},
{
closed = 1;
nodes = (
(110,540,o),
(116,540,qs),
(208,540,ls),
(224,540,o),
(238,528,qs),
(329,445,ls),
(333,441,o),
(329,430,o),
(323,430,qs),
(245,430,ls),
(222,430,o),
(209,442,qs),
(111,524,ls),
(106,528,o)
);
}
);
userData = {
assembly = "NPUSHB[ ]	/* 10 values pushed */
23 1 1 3 11 1 2 0 2 76 
MPPEM[ ]	/* MeasurePixelPerEm */
PUSHB[ ]	/* 1 value pushed */
15 
LT[ ]	/* LessThan */
IF[ ]	/* If */
NPUSHB[ ]	/* 37 values pushed */
0 6 7 3 7 6 3 128 0 7 7 39 77 0 1 1 3 97 4 1 3 3 42 77 8 1 0 0 2 97 5 1 2 2 40 2 78 
ELSE[ ]	/* Else */
MPPEM[ ]	/* MeasurePixelPerEm */
PUSHB[ ]	/* 1 value pushed */
22 
LT[ ]	/* LessThan */
IF[ ]	/* If */
NPUSHB[ ]	/* 41 values pushed */
0 6 7 4 7 6 4 128 0 7 7 39 77 0 3 3 42 77 0 1 1 4 97 0 4 4 48 77 8 1 0 0 2 97 5 1 2 2 40 2 78 
ELSE[ ]	/* Else */
MPPEM[ ]	/* MeasurePixelPerEm */
PUSHB[ ]	/* 1 value pushed */
26 
LT[ ]	/* LessThan */
IF[ ]	/* If */
NPUSHB[ ]	/* 45 values pushed */
0 6 7 4 7 6 4 128 0 7 7 39 77 0 3 3 42 77 0 1 1 4 97 0 4 4 48 77 0 2 2 40 77 8 1 0 0 5 97 0 5 5 46 5 78 
ELSE[ ]	/* Else */
NPUSHB[ ]	/* 42 values pushed */
0 7 6 7 133 0 6 4 6 133 0 3 3 42 77 0 1 1 4 97 0 4 4 48 77 0 2 2 40 77 8 1 0 0 5 97 0 5 5 46 5 78 
EIF[ ]	/* EndIf */
EIF[ ]	/* EndIf */
EIF[ ]	/* EndIf */
NPUSHB[ ]	/* 23 values pushed */
1 0 46 44 39 37 34 32 26 24 22 19 16 13 6 4 0 10 1 10 9 9 22 
CALL[ ]	/* CallFunction */";
};
width = 468;
}
);
note = agrave;
unicode = 224;
},
{
glyphname = aacute;
kernLeft = a;
kernRight = a;
layers = (
{
layerId = m01;
shapes = (
{
closed = 1;
nodes = (
(279,113,qs),
(313,136,o),
(313,193,qs),
(313,283,o),
(232,283,qs),
(147,283,o),
(147,193,qs),
(147,149,o),
(193,98,o),
(232,98,qs),
(258,98,o)
);
},
{
closed = 1;
nodes = (
(201,-9,qs),
(124,-9,o),
(78,44,qs),
(29,99,o),
(29,194,qs),
(29,274,o),
(70,328,qs),
(118,394,o),
(203,394,qs),
(279,394,o),
(325,343,q),
(345,382,o),
(410,382,qs),
(415,382,ls),
(428,382,o),
(428,369,qs),
(428,13,ls),
(428,0,o),
(415,0,qs),
(326,0,ls),
(313,0,o),
(313,13,qs),
(313,43,l),
(271,-9,o)
);
},
{
closed = 1;
nodes = (
(136,441,o),
(140,445,qs),
(232,528,ls),
(245,540,o),
(262,540,qs),
(353,540,ls),
(360,540,o),
(363,528,o),
(358,524,qs),
(261,442,ls),
(247,430,o),
(225,430,qs),
(146,430,ls),
(140,430,o)
);
}
);
userData = {
assembly = "NPUSHB[ ]	/* 10 values pushed */
23 1 1 3 11 1 2 0 2 76 
MPPEM[ ]	/* MeasurePixelPerEm */
PUSHB[ ]	/* 1 value pushed */
15 
LT[ ]	/* LessThan */
IF[ ]	/* If */
NPUSHB[ ]	/* 38 values pushed */
9 1 6 7 3 7 6 3 128 0 7 7 39 77 0 1 1 3 97 4 1 3 3 42 77 8 1 0 0 2 97 5 1 2 2 40 2 78 
ELSE[ ]	/* Else */
MPPEM[ ]	/* MeasurePixelPerEm */
PUSHB[ ]	/* 1 value pushed */
22 
LT[ ]	/* LessThan */
IF[ ]	/* If */
NPUSHB[ ]	/* 42 values pushed */
9 1 6 7 4 7 6 4 128 0 7 7 39 77 0 3 3 42 77 0 1 1 4 97 0 4 4 48 77 8 1 0 0 2 97 5 1 2 2 40 2 78 
ELSE[ ]	/* Else */
MPPEM[ ]	/* MeasurePixelPerEm */
PUSHB[ ]	/* 1 value pushed */
26 
LT[ ]	/* LessThan */
IF[ ]	/* If */
NPUSHB[ ]	/* 46 values pushed */
9 1 6 7 4 7 6 4 128 0 7 7 39 77 0 3 3 42 77 0 1 1 4 97 0 4 4 48 77 0 2 2 40 77 8 1 0 0 5 97 0 5 5 46 5 78 
ELSE[ ]	/* Else */
NPUSHB[ ]	/* 43 values pushed */
0 7 6 7 133 9 1 6 4 6 133 0 3 3 42 77 0 1 1 4 97 0 4 4 48 77 0 2 2 40 77 8 1 0 0 5 97 0 5 5 46 5 78 
EIF[ ]	/* EndIf */
EIF[ ]	/* EndIf */
EIF[ ]	/* EndIf */
NPUSHB[ ]	/* 27 values pushed */
37 35 1 0 44 41 35 48 37 48 34 32 26 24 22 19 16 13 6 4 0 10 1 10 10 9 22 
CALL[ ]	/* CallFunction */";
};
width = 468;
}
);
note = aacute;
unicode = 225;
},
{
glyphname = acircumflex;
kernLeft = a;
kernRight = a;
layers = (
{
layerId = m01;
shapes = (
{
closed = 1;
nodes = (
(279,113,qs),
(313,136,o),
(313,193,qs),
(313,283,o),
(232,283,qs),
(147,283,o),
(147,193,qs),
(147,149,o),
(193,98,o),
(232,98,qs),
(258,98,o)
);
},
{
closed = 1;
nodes = (
(201,-9,qs),
(124,-9,o),
(78,44,qs),
(29,99,o),
(29,194,qs),
(29,274,o),
(70,328,qs),
(118,394,o),
(203,394,qs),
(279,394,o),
(325,343,q),
(345,382,o),
(410,382,qs),
(415,382,ls),
(428,382,o),
(428,369,qs),
(428,13,ls),
(428,0,o),
(415,0,qs),
(326,0,ls),
(313,0,o),
(313,13,qs),
(313,43,l),
(271,-9,o)
);
},
{
closed = 1;
nodes = (
(178,430,o),
(155,430,qs),
(86,430,ls),
(80,430,o),
(75,441,o),
(80,445,q),
(159,528,ls),
(170,540,o),
(189,540,qs),
(283,540,ls),
(301,540,o),
(313,528,qs),
(393,445,ls),
(397,441,o),
(392,430,o),
(387,430,qs),
(317,430,ls),
(294,430,o),
(283,444,qs),
(237,500,l),
(189,444,ls)
);
}
);
userData = {
assembly = "NPUSHB[ ]	/* 10 values pushed */
23 1 1 3 11 1 2 0 2 76 
MPPEM[ ]	/* MeasurePixelPerEm */
PUSHB[ ]	/* 1 value pushed */
15 
LT[ ]	/* LessThan */
IF[ ]	/* If */
NPUSHB[ ]	/* 35 values pushed */
8 1 6 6 7 95 0 7 7 39 77 0 1 1 3 97 4 1 3 3 42 77 9 1 0 0 2 97 5 1 2 2 40 2 78 
ELSE[ ]	/* Else */
MPPEM[ ]	/* MeasurePixelPerEm */
PUSHB[ ]	/* 1 value pushed */
22 
LT[ ]	/* LessThan */
IF[ ]	/* If */
NPUSHB[ ]	/* 39 values pushed */
8 1 6 6 7 95 0 7 7 39 77 0 3 3 42 77 0 1 1 4 97 0 4 4 48 77 9 1 0 0 2 97 5 1 2 2 40 2 78 
ELSE[ ]	/* Else */
MPPEM[ ]	/* MeasurePixelPerEm */
PUSHB[ ]	/* 1 value pushed */
26 
LT[ ]	/* LessThan */
IF[ ]	/* If */
NPUSHB[ ]	/* 43 values pushed */
8 1 6 6 7 95 0 7 7 39 77 0 3 3 42 77 0 1 1 4 97 0 4 4 48 77 0 2 2 40 77 9 1 0 0 5 97 0 5 5 46 5 78 
ELSE[ ]	/* Else */
NPUSHB[ ]	/* 41 values pushed */
0 7 8 1 6 4 7 6 103 0 3 3 42 77 0 1 1 4 97 0 4 4 48 77 0 2 2 40 77 9 1 0 0 5 97 0 5 5 46 5 78 
EIF[ ]	/* EndIf */
EIF[ ]	/* EndIf */
EIF[ ]	/* EndIf */
NPUSHB[ ]	/* 25 values pushed */
1 0 54 51 47 44 39 37 34 32 26 24 22 19 16 13 6 4 0 10 1 10 10 9 22 
CALL[ ]	/* CallFunction */";
};
width = 468;
}
);
note = acircumflex;
unicode = 226;
},
{
glyphname = atilde;
kernLeft = a;
kernRight = a;
layers = (
{
layerId = m01;
shapes = (
{
closed = 1;
nodes = (
(279,113,qs),
(313,136,o),
(313,193,qs),
(313,283,o),
(232,283,qs),
(147,283,o),
(147,193,qs),
(147,149,o),
(193,98,o),
(232,98,qs),
(258,98,o)
);
},
{
closed = 1;
nodes = (
(201,-9,qs),
(124,-9,o),
(78,44,qs),
(29,99,o),
(29,194,qs),
(29,274,o),
(70,328,qs),
(118,394,o),
(203,394,qs),
(279,394,o),
(325,343,q),
(345,382,o),
(410,382,qs),
(415,382,ls),
(428,382,o),
(428,369,qs),
(428,13,ls),
(428,0,o),
(415,0,qs),
(326,0,ls),
(313,0,o),
(313,13,qs),
(313,43,l),
(271,-9,o)
);
},
{
closed = 1;
nodes = (
(89,441,qs),
(95,542,o),
(167,542,qs),
(195,542,o),
(241,524,qs),
(279,509,o),
(294,509,qs),
(312,509,o),
(316,533,qs),
(318,545,o),
(329,545,qs),
(377,545,ls),
(389,545,o),
(388,532,qs),
(382,478,o),
(344,434,o),
(302,434,qs),
(280,434,o),
(234,451,qs),
(197,464,o),
(184,464,qs),
(164,464,o),
(160,440,qs),
(159,428,o),
(147,428,qs),
(100,428,ls),
(89,428,o)
);
}
);
userData = {
assembly = "NPUSHB[ ]	/* 10 values pushed */
23 1 1 3 11 1 2 0 2 76 
MPPEM[ ]	/* MeasurePixelPerEm */
PUSHB[ ]	/* 1 value pushed */
15 
LT[ ]	/* LessThan */
IF[ ]	/* If */
NPUSHB[ ]	/* 50 values pushed */
0 7 10 6 6 7 114 0 10 7 6 10 90 8 13 2 6 6 9 98 11 1 9 9 39 77 0 1 1 3 97 4 1 3 3 42 77 12 1 0 0 2 97 5 1 2 2 40 2 78 
ELSE[ ]	/* Else */
MPPEM[ ]	/* MeasurePixelPerEm */
PUSHB[ ]	/* 1 value pushed */
22 
LT[ ]	/* LessThan */
IF[ ]	/* If */
NPUSHB[ ]	/* 54 values pushed */
0 7 10 6 6 7 114 0 10 7 6 10 90 8 13 2 6 6 9 98 11 1 9 9 39 77 0 3 3 42 77 0 1 1 4 97 0 4 4 48 77 12 1 0 0 2 97 5 1 2 2 40 2 78 
ELSE[ ]	/* Else */
MPPEM[ ]	/* MeasurePixelPerEm */
PUSHB[ ]	/* 1 value pushed */
28 
LT[ ]	/* LessThan */
IF[ ]	/* If */
NPUSHB[ ]	/* 58 values pushed */
0 7 10 6 6 7 114 0 10 7 6 10 90 8 13 2 6 6 9 98 11 1 9 9 39 77 0 3 3 42 77 0 1 1 4 97 0 4 4 48 77 0 2 2 40 77 12 1 0 0 5 97 0 5 5 46 5 78 
ELSE[ ]	/* Else */
MPPEM[ ]	/* MeasurePixelPerEm */
PUSHB[ ]	/* 1 value pushed */
32 
LT[ ]	/* LessThan */
IF[ ]	/* If */
NPUSHB[ ]	/* 59 values pushed */
0 7 10 6 10 7 6 128 0 10 7 6 10 90 8 13 2 6 6 9 98 11 1 9 9 39 77 0 3 3 42 77 0 1 1 4 97 0 4 4 48 77 0 2 2 40 77 12 1 0 0 5 97 0 5 5 46 5 78 
ELSE[ ]	/* Else */
MPPEM[ ]	/* MeasurePixelPerEm */
PUSHB[ ]	/* 1 value pushed */
36 
LT[ ]	/* LessThan */
IF[ ]	/* If */
NPUSHB[ ]	/* 60 values pushed */
0 7 10 8 10 7 8 128 0 10 0 8 6 10 8 106 13 1 6 6 9 98 11 1 9 9 39 77 0 3 3 42 77 0 1 1 4 97 0 4 4 48 77 0 2 2 40 77 12 1 0 0 5 97 0 5 5 46 5 78 
ELSE[ ]	/* Else */
NPUSHB[ ]	/* 58 values pushed */
0 7 10 8 10 7 8 128 0 10 0 8 6 10 8 106 11 1 9 13 1 6 4 9 6 105 0 3 3 42 77 0 1 1 4 97 0 4 4 48 77 0 2 2 40 77 12 1 0 0 5 97 0 5 5 46 5 78 
EIF[ ]	/* EndIf */
EIF[ ]	/* EndIf */
EIF[ ]	/* EndIf */
EIF[ ]	/* EndIf */
EIF[ ]	/* EndIf */
NPUSHB[ ]	/* 35 values pushed */
37 35 1 0 59 57 55 53 51 48 45 43 41 39 35 61 37 61 34 32 26 24 22 19 16 13 6 4 0 10 1 10 14 9 22 
CALL[ ]	/* CallFunction */";
};
width = 468;
}
);
note = atilde;
unicode = 227;
},
{
glyphname = adieresis;
kernLeft = a;
kernRight = a;
layers = (
{
layerId = m01;
shapes = (
{
closed = 1;
nodes = (
(279,113,qs),
(313,136,o),
(313,193,qs),
(313,283,o),
(232,283,qs),
(147,283,o),
(147,193,qs),
(147,149,o),
(193,98,o),
(232,98,qs),
(258,98,o)
);
},
{
closed = 1;
nodes = (
(201,-9,qs),
(124,-9,o),
(78,44,qs),
(29,99,o),
(29,194,qs),
(29,274,o),
(70,328,qs),
(118,394,o),
(203,394,qs),
(279,394,o),
(325,343,q),
(345,382,o),
(410,382,qs),
(415,382,ls),
(428,382,o),
(428,369,qs),
(428,13,ls),
(428,0,o),
(415,0,qs),
(326,0,ls),
(313,0,o),
(313,13,qs),
(313,43,l),
(271,-9,o)
);
},
{
closed = 1;
nodes = (
(116,546,o),
(143,546,qs),
(170,546,o),
(205,508,o),
(205,481,qs),
(205,454,o),
(170,417,o),
(143,417,qs),
(116,417,o),
(80,454,o),
(80,481,qs),
(80,508,o)
);
},
{
closed = 1;
nodes = (
(292,546,o),
(319,546,qs),
(345,546,o),
(381,509,o),
(381,481,qs),
(381,454,o),
(346,417,o),
(319,417,qs),
(292,417,o),
(256,454,o),
(256,481,qs),
(256,508,o)
);
}
);
userData = {
assembly = "NPUSHB[ ]	/* 10 values pushed */
23 1 1 3 11 1 2 0 2 76 
MPPEM[ ]	/* MeasurePixelPerEm */
PUSHB[ ]	/* 1 value pushed */
15 
LT[ ]	/* LessThan */
IF[ ]	/* If */
NPUSHB[ ]	/* 36 values pushed */
8 1 6 6 7 97 9 1 7 7 39 77 0 1 1 3 97 4 1 3 3 42 77 10 1 0 0 2 97 5 1 2 2 40 2 78 
ELSE[ ]	/* Else */
MPPEM[ ]	/* MeasurePixelPerEm */
PUSHB[ ]	/* 1 value pushed */
22 
LT[ ]	/* LessThan */
IF[ ]	/* If */
NPUSHB[ ]	/* 40 values pushed */
8 1 6 6 7 97 9 1 7 7 39 77 0 3 3 42 77 0 1 1 4 97 0 4 4 48 77 10 1 0 0 2 97 5 1 2 2 40 2 78 
ELSE[ ]	/* Else */
MPPEM[ ]	/* MeasurePixelPerEm */
PUSHB[ ]	/* 1 value pushed */
40 
LT[ ]	/* LessThan */
IF[ ]	/* If */
NPUSHB[ ]	/* 44 values pushed */
8 1 6 6 7 97 9 1 7 7 39 77 0 3 3 42 77 0 1 1 4 97 0 4 4 48 77 0 2 2 40 77 10 1 0 0 5 97 0 5 5 46 5 78 
ELSE[ ]	/* Else */
NPUSHB[ ]	/* 42 values pushed */
9 1 7 8 1 6 4 7 6 105 0 3 3 42 77 0 1 1 4 97 0 4 4 48 77 0 2 2 40 77 10 1 0 0 5 97 0 5 5 46 5 78 
EIF[ ]	/* EndIf */
EIF[ ]	/* EndIf */
EIF[ ]	/* EndIf */
NPUSHB[ ]	/* 27 values pushed */
1 0 57 55 51 49 45 43 39 37 34 32 26 24 22 19 16 13 6 4 0 10 1 10 11 9 22 
CALL[ ]	/* CallFunction */";
};
width = 468;
}
);
note = adieresis;
unicode = 228;
},
{
glyphname = aring;
kernLeft = a;
kernRight = a;
layers = (
{
layerId = m01;
shapes = (
{
closed = 1;
nodes = (
(279,113,qs),
(313,136,o),
(313,193,qs),
(313,283,o),
(232,283,qs),
(147,283,o),
(147,193,qs),
(147,149,o),
(193,98,o),
(232,98,qs),
(258,98,o)
);
},
{
closed = 1;
nodes = (
(201,-9,qs),
(124,-9,o),
(78,44,qs),
(29,99,o),
(29,194,qs),
(29,274,o),
(70,328,qs),
(118,394,o),
(203,394,qs),
(279,394,o),
(325,343,q),
(345,382,o),
(410,382,qs),
(415,382,ls),
(428,382,o),
(428,369,qs),
(428,13,ls),
(428,0,o),
(415,0,qs),
(326,0,ls),
(313,0,o),
(313,13,qs),
(313,43,l),
(271,-9,o)
);
},
{
closed = 1;
nodes = (
(195,578,o),
(229,578,qs),
(262,578,o),
(309,531,o),
(309,498,qs),
(309,464,o),
(262,417,o),
(229,417,qs),
(195,417,o),
(147,465,o),
(147,498,qs),
(147,531,o)
);
},
{
closed = 1;
nodes = (
(262,483,o),
(262,498,qs),
(262,512,o),
(243,532,o),
(229,532,qs),
(215,532,o),
(196,512,o),
(196,498,qs),
(196,484,o),
(215,464,o),
(229,464,qs),
(243,464,o)
);
}
);
userData = {
assembly = "NPUSHB[ ]	/* 10 values pushed */
23 1 1 3 11 1 2 0 2 76 
MPPEM[ ]	/* MeasurePixelPerEm */
PUSHB[ ]	/* 1 value pushed */
15 
LT[ ]	/* LessThan */
IF[ ]	/* If */
NPUSHB[ ]	/* 41 values pushed */
0 7 0 9 8 7 9 105 11 1 8 0 6 3 8 6 105 0 1 1 3 97 4 1 3 3 42 77 10 1 0 0 2 97 5 1 2 2 40 2 78 
ELSE[ ]	/* Else */
MPPEM[ ]	/* MeasurePixelPerEm */
PUSHB[ ]	/* 1 value pushed */
22 
LT[ ]	/* LessThan */
IF[ ]	/* If */
NPUSHB[ ]	/* 45 values pushed */
0 7 0 9 8 7 9 105 11 1 8 0 6 4 8 6 105 0 3 3 42 77 0 1 1 4 97 0 4 4 48 77 10 1 0 0 2 97 5 1 2 2 40 2 78 
ELSE[ ]	/* Else */
NPUSHB[ ]	/* 49 values pushed */
0 7 0 9 8 7 9 105 11 1 8 0 6 4 8 6 105 0 3 3 42 77 0 1 1 4 97 0 4 4 48 77 0 2 2 40 77 10 1 0 0 5 97 0 5 5 46 5 78 
EIF[ ]	/* EndIf */
EIF[ ]	/* EndIf */
NPUSHB[ ]	/* 31 values pushed */
48 47 1 0 54 52 47 58 48 58 45 43 39 37 34 32 26 24 22 19 16 13 6 4 0 10 1 10 12 9 22 
CALL[ ]	/* CallFunction */";
};
width = 468;
}
);
note = aring;
unicode = 229;
},
{
glyphname = ae;
kernLeft = a;
kernRight = e;
layers = (
{
layerId = m01;
shapes = (
{
closed = 1;
nodes = (
(424,0,o),
(411,0,qs),
(329,0,ls),
(316,0,o),
(316,13,qs),
(316,43,l),
(274,-9,o),
(201,-9,qs),
(124,-9,o),
(78,44,qs),
(29,99,o),
(29,194,qs),
(29,274,o),
(70,328,qs),
(118,394,o),
(203,394,qs),
(280,394,o),
(326,341,q),
(346,382,o),
(410,382,qs),
(411,382,ls),
(424,382,o),
(424,369,qs),
(424,341,l),
(475,394,o),
(559,394,qs),
(639,394,o),
(686,346,qs),
(734,298,o),
(734,221,qs),
(734,191,o),
(732,167,qs),
(730,152,o),
(713,152,qs),
(485,152,l),
(497,87,o),
(584,87,qs),
(642,87,o),
(697,111,qs),
(709,116,o),
(714,116,qs),
(726,116,o),
(726,101,qs),
(726,65,o),
(697,35,qs),
(654,-9,o),
(568,-9,qs),
(476,-9,o),
(424,45,q),
(424,13,ls)
);
},
{
closed = 1;
nodes = (
(279,113,qs),
(313,136,o),
(313,193,qs),
(313,283,o),
(232,283,qs),
(147,283,o),
(147,193,qs),
(147,149,o),
(193,98,o),
(232,98,qs),
(258,98,o)
);
},
{
closed = 1;
nodes = (
(625,259,o),
(589,296,o),
(559,296,qs),
(489,296,o),
(486,232,q),
(620,232,l)
);
}
);
userData = {
assembly = "MPPEM[ ]	/* MeasurePixelPerEm */
PUSHB[ ]	/* 1 value pushed */
15 
LT[ ]	/* LessThan */
IF[ ]	/* If */
NPUSHB[ ]	/* 12 values pushed */
31 25 2 10 4 43 0 2 0 2 2 76 
ELSE[ ]	/* Else */
MPPEM[ ]	/* MeasurePixelPerEm */
PUSHB[ ]	/* 1 value pushed */
22 
LT[ ]	/* LessThan */
IF[ ]	/* If */
NPUSHB[ ]	/* 12 values pushed */
31 25 2 11 5 43 0 2 0 2 2 76 
ELSE[ ]	/* Else */
NPUSHB[ ]	/* 12 values pushed */
31 25 2 11 5 43 0 2 8 2 2 76 
EIF[ ]	/* EndIf */
EIF[ ]	/* EndIf */
MPPEM[ ]	/* MeasurePixelPerEm */
PUSHB[ ]	/* 1 value pushed */
15 
LT[ ]	/* LessThan */
IF[ ]	/* If */
NPUSHB[ ]	/* 45 values pushed */
0 1 3 2 3 1 2 128 14 1 12 0 3 1 12 3 103 11 1 10 10 4 97 6 5 2 4 4 48 77 13 9 2 2 2 0 97 8 7 2 0 0 46 0 78 
ELSE[ ]	/* Else */
MPPEM[ ]	/* MeasurePixelPerEm */
PUSHB[ ]	/* 1 value pushed */
18 
LT[ ]	/* LessThan */
IF[ ]	/* If */
NPUSHB[ ]	/* 59 values pushed */
0 1 3 2 3 1 2 128 14 1 12 0 3 1 12 3 103 0 5 5 42 77 0 11 11 4 97 6 1 4 4 48 77 0 10 10 4 97 6 1 4 4 48 77 13 9 2 2 2 0 97 8 7 2 0 0 46 0 78 
ELSE[ ]	/* Else */
MPPEM[ ]	/* MeasurePixelPerEm */
PUSHB[ ]	/* 1 value pushed */
22 
LT[ ]	/* LessThan */
IF[ ]	/* If */
NPUSHB[ ]	/* 70 values pushed */
0 1 3 9 3 1 9 128 14 1 12 0 3 1 12 3 103 0 5 5 42 77 0 11 11 4 97 6 1 4 4 48 77 0 10 10 4 97 6 1 4 4 48 77 13 1 9 9 0 97 8 7 2 0 0 46 77 0 2 2 0 97 8 7 2 0 0 46 0 78 
ELSE[ ]	/* Else */
NPUSHB[ ]	/* 73 values pushed */
0 1 3 9 3 1 9 128 14 1 12 0 3 1 12 3 103 0 5 5 42 77 0 11 11 4 97 6 1 4 4 48 77 0 10 10 4 97 6 1 4 4 48 77 13 1 9 9 0 97 7 1 0 0 46 77 0 8 8 40 77 0 2 2 0 97 7 1 0 0 46 0 78 
EIF[ ]	/* EndIf */
EIF[ ]	/* EndIf */
EIF[ ]	/* EndIf */
NPUSHB[ ]	/* 28 values pushed */
61 61 51 50 61 66 61 66 64 62 56 54 50 60 51 60 51 38 34 51 38 33 35 20 33 15 9 31 
CALL[ ]	/* CallFunction */";
};
width = 760;
}
);
note = ae;
unicode = 230;
},
{
glyphname = ccedilla;
kernLeft = c;
kernRight = c;
layers = (
{
layerId = m01;
shapes = (
{
closed = 1;
nodes = (
(204,-119,o),
(181,-119,qs),
(108,-119,ls),
(93,-119,o),
(102,-104,qs),
(165,-5,l),
(106,8,o),
(71,53,qs),
(29,106,o),
(29,192,qs),
(29,280,o),
(76,333,qs),
(129,393,o),
(225,393,qs),
(265,393,o),
(299,381,qs),
(328,370,o),
(346,331,o),
(338,296,qs),
(332,271,ls),
(329,261,o),
(323,261,qs),
(318,261,o),
(312,264,qs),
(269,285,o),
(232,285,qs),
(193,285,o),
(147,233,o),
(147,189,qs),
(147,88,o),
(245,88,qs),
(284,88,o),
(327,114,qs),
(336,120,o),
(341,120,qs),
(352,120,o),
(352,104,qs),
(352,65,o),
(301,5,o),
(259,-5,q),
(212,-102,ls)
);
}
);
userData = {
assembly = "NPUSHB[ ]	/* 48 values pushed */
34 1 5 1 1 76 0 3 2 0 2 3 0 128 0 0 1 2 0 1 126 0 1 0 5 1 5 99 0 2 2 4 97 0 4 4 48 2 78 57 38 34 35 35 20 6 9 28 
CALL[ ]	/* CallFunction */";
};
width = 368;
}
);
note = ccedilla;
unicode = 231;
},
{
glyphname = egrave;
kernLeft = e;
kernRight = e;
layers = (
{
layerId = m01;
shapes = (
{
closed = 1;
nodes = (
(287,258,o),
(251,295,o),
(221,295,qs),
(152,295,o),
(148,231,q),
(282,231,l)
);
},
{
closed = 1;
nodes = (
(246,86,qs),
(304,86,o),
(359,110,qs),
(371,115,o),
(376,115,qs),
(388,115,o),
(388,100,qs),
(388,64,o),
(359,34,qs),
(316,-10,o),
(230,-10,qs),
(145,-10,o),
(91,38,qs),
(29,93,o),
(29,193,qs),
(29,275,o),
(73,329,qs),
(126,393,o),
(221,393,qs),
(301,393,o),
(348,345,qs),
(396,297,o),
(396,220,qs),
(396,190,o),
(394,166,qs),
(392,151,o),
(375,151,qs),
(147,151,l),
(159,86,o)
);
},
{
closed = 1;
nodes = (
(81,540,o),
(88,540,qs),
(179,540,ls),
(196,540,o),
(209,528,qs),
(300,445,ls),
(305,441,o),
(300,430,o),
(294,430,qs),
(216,430,ls),
(193,430,o),
(180,442,qs),
(83,524,l),
(77,528,o)
);
}
);
userData = {
assembly = "MPPEM[ ]	/* MeasurePixelPerEm */
PUSHB[ ]	/* 1 value pushed */
26 
LT[ ]	/* LessThan */
IF[ ]	/* If */
NPUSHB[ ]	/* 51 values pushed */
0 7 8 3 8 7 3 128 0 5 2 6 2 5 6 128 9 1 1 0 2 5 1 2 103 0 8 8 39 77 0 0 0 3 98 0 3 3 48 77 0 6 6 4 97 0 4 4 46 4 78 
ELSE[ ]	/* Else */
NPUSHB[ ]	/* 48 values pushed */
0 8 7 8 133 0 7 3 7 133 0 5 2 6 2 5 6 128 9 1 1 0 2 5 1 2 103 0 0 0 3 98 0 3 3 48 77 0 6 6 4 97 0 4 4 46 4 78 
EIF[ ]	/* EndIf */
NPUSHB[ ]	/* 24 values pushed */
0 0 47 44 39 37 34 32 29 28 24 22 16 14 8 6 0 5 0 5 33 10 9 23 
CALL[ ]	/* CallFunction */";
};
width = 422;
}
);
note = egrave;
unicode = 232;
},
{
glyphname = eacute;
kernLeft = e;
kernRight = e;
layers = (
{
layerId = m01;
shapes = (
{
closed = 1;
nodes = (
(287,258,o),
(251,295,o),
(221,295,qs),
(152,295,o),
(148,231,q),
(282,231,l)
);
},
{
closed = 1;
nodes = (
(246,86,qs),
(304,86,o),
(359,110,qs),
(371,115,o),
(376,115,qs),
(388,115,o),
(388,100,qs),
(388,64,o),
(359,34,qs),
(316,-10,o),
(230,-10,qs),
(145,-10,o),
(91,38,qs),
(29,93,o),
(29,193,qs),
(29,275,o),
(73,329,qs),
(126,393,o),
(221,393,qs),
(301,393,o),
(348,345,qs),
(396,297,o),
(396,220,qs),
(396,190,o),
(394,166,qs),
(392,151,o),
(375,151,qs),
(147,151,l),
(159,86,o)
);
},
{
closed = 1;
nodes = (
(106,441,o),
(110,445,qs),
(202,528,ls),
(215,540,o),
(232,540,qs),
(323,540,ls),
(330,540,o),
(333,528,o),
(328,524,qs),
(231,442,ls),
(218,430,o),
(195,430,qs),
(116,430,ls),
(110,430,o)
);
}
);
userData = {
assembly = "MPPEM[ ]	/* MeasurePixelPerEm */
PUSHB[ ]	/* 1 value pushed */
26 
LT[ ]	/* LessThan */
IF[ ]	/* If */
NPUSHB[ ]	/* 52 values pushed */
10 1 7 8 3 8 7 3 128 0 5 2 6 2 5 6 128 9 1 1 0 2 5 1 2 103 0 8 8 39 77 0 0 0 3 98 0 3 3 48 77 0 6 6 4 97 0 4 4 46 4 78 
ELSE[ ]	/* Else */
NPUSHB[ ]	/* 49 values pushed */
0 8 7 8 133 10 1 7 3 7 133 0 5 2 6 2 5 6 128 9 1 1 0 2 5 1 2 103 0 0 0 3 98 0 3 3 48 77 0 6 6 4 97 0 4 4 46 4 78 
EIF[ ]	/* EndIf */
NPUSHB[ ]	/* 28 values pushed */
37 35 0 0 44 41 35 48 37 48 34 32 29 28 24 22 16 14 8 6 0 5 0 5 33 11 9 23 
CALL[ ]	/* CallFunction */";
};
width = 422;
}
);
note = eacute;
unicode = 233;
},
{
glyphname = ecircumflex;
kernLeft = e;
kernRight = e;
layers = (
{
layerId = m01;
shapes = (
{
closed = 1;
nodes = (
(287,258,o),
(251,295,o),
(221,295,qs),
(152,295,o),
(148,231,q),
(282,231,l)
);
},
{
closed = 1;
nodes = (
(246,86,qs),
(304,86,o),
(359,110,qs),
(371,115,o),
(376,115,qs),
(388,115,o),
(388,100,qs),
(388,64,o),
(359,34,qs),
(316,-10,o),
(230,-10,qs),
(145,-10,o),
(91,38,qs),
(29,93,o),
(29,193,qs),
(29,275,o),
(73,329,qs),
(126,393,o),
(221,393,qs),
(301,393,o),
(348,345,qs),
(396,297,o),
(396,220,qs),
(396,190,o),
(394,166,qs),
(392,151,o),
(375,151,qs),
(147,151,l),
(159,86,o)
);
},
{
closed = 1;
nodes = (
(160,430,o),
(137,430,qs),
(68,430,ls),
(62,430,o),
(57,441,o),
(62,445,q),
(141,528,ls),
(152,540,o),
(171,540,qs),
(266,540,ls),
(283,540,o),
(295,528,qs),
(375,445,ls),
(379,441,o),
(374,430,o),
(369,430,qs),
(299,430,ls),
(277,430,o),
(266,444,qs),
(219,500,l),
(171,444,ls)
);
}
);
userData = {
assembly = "MPPEM[ ]	/* MeasurePixelPerEm */
PUSHB[ ]	/* 1 value pushed */
26 
LT[ ]	/* LessThan */
IF[ ]	/* If */
NPUSHB[ ]	/* 49 values pushed */
0 5 2 6 2 5 6 128 10 1 1 0 2 5 1 2 103 9 1 7 7 8 95 0 8 8 39 77 0 0 0 3 97 0 3 3 48 77 0 6 6 4 97 0 4 4 46 4 78 
ELSE[ ]	/* Else */
NPUSHB[ ]	/* 47 values pushed */
0 5 2 6 2 5 6 128 0 8 9 1 7 3 8 7 103 10 1 1 0 2 5 1 2 103 0 0 0 3 97 0 3 3 48 77 0 6 6 4 97 0 4 4 46 4 78 
EIF[ ]	/* EndIf */
NPUSHB[ ]	/* 26 values pushed */
0 0 54 51 47 44 39 37 34 32 29 28 24 22 16 14 8 6 0 5 0 5 33 11 9 23 
CALL[ ]	/* CallFunction */";
};
width = 422;
}
);
note = ecircumflex;
unicode = 234;
},
{
glyphname = edieresis;
kernLeft = e;
kernRight = e;
layers = (
{
layerId = m01;
shapes = (
{
closed = 1;
nodes = (
(287,258,o),
(251,295,o),
(221,295,qs),
(152,295,o),
(148,231,q),
(282,231,l)
);
},
{
closed = 1;
nodes = (
(246,86,qs),
(304,86,o),
(359,110,qs),
(371,115,o),
(376,115,qs),
(388,115,o),
(388,100,qs),
(388,64,o),
(359,34,qs),
(316,-10,o),
(230,-10,qs),
(145,-10,o),
(91,38,qs),
(29,93,o),
(29,193,qs),
(29,275,o),
(73,329,qs),
(126,393,o),
(221,393,qs),
(301,393,o),
(348,345,qs),
(396,297,o),
(396,220,qs),
(396,190,o),
(394,166,qs),
(392,151,o),
(375,151,qs),
(147,151,l),
(159,86,o)
);
},
{
closed = 1;
nodes = (
(105,546,o),
(132,546,qs),
(159,546,o),
(194,508,o),
(194,481,qs),
(194,454,o),
(159,417,o),
(132,417,qs),
(105,417,o),
(69,454,o),
(69,481,qs),
(69,508,o)
);
},
{
closed = 1;
nodes = (
(281,546,o),
(308,546,qs),
(334,546,o),
(370,509,o),
(370,481,qs),
(370,454,o),
(335,417,o),
(308,417,qs),
(281,417,o),
(245,454,o),
(245,481,qs),
(245,508,o)
);
}
);
userData = {
assembly = "MPPEM[ ]	/* MeasurePixelPerEm */
PUSHB[ ]	/* 1 value pushed */
40 
LT[ ]	/* LessThan */
IF[ ]	/* If */
NPUSHB[ ]	/* 50 values pushed */
0 5 2 6 2 5 6 128 11 1 1 0 2 5 1 2 103 9 1 7 7 8 97 10 1 8 8 39 77 0 0 0 3 97 0 3 3 48 77 0 6 6 4 97 0 4 4 46 4 78 
ELSE[ ]	/* Else */
NPUSHB[ ]	/* 48 values pushed */
0 5 2 6 2 5 6 128 10 1 8 9 1 7 3 8 7 105 11 1 1 0 2 5 1 2 103 0 0 0 3 97 0 3 3 48 77 0 6 6 4 97 0 4 4 46 4 78 
EIF[ ]	/* EndIf */
NPUSHB[ ]	/* 28 values pushed */
0 0 57 55 51 49 45 43 39 37 34 32 29 28 24 22 16 14 8 6 0 5 0 5 33 12 9 23 
CALL[ ]	/* CallFunction */";
};
width = 422;
}
);
note = edieresis;
unicode = 235;
},
{
glyphname = igrave;
kernLeft = i;
kernRight = i;
layers = (
{
layerId = m01;
shapes = (
{
closed = 1;
nodes = (
(40,382,o),
(53,382,qs),
(58,382,ls),
(108,382,o),
(154,335,o),
(154,284,qs),
(154,13,ls),
(154,0,o),
(141,0,qs),
(53,0,ls),
(40,0,o),
(40,13,qs),
(40,369,ls)
);
},
{
closed = 1;
nodes = (
(-14,540,o),
(-7,540,qs),
(84,540,ls),
(101,540,o),
(114,528,qs),
(206,445,ls),
(210,441,o),
(206,430,o),
(200,430,qs),
(121,430,ls),
(99,430,o),
(85,442,qs),
(-12,524,ls),
(-17,528,o)
);
}
);
userData = {
assembly = "MPPEM[ ]	/* MeasurePixelPerEm */
PUSHB[ ]	/* 1 value pushed */
26 
LT[ ]	/* LessThan */
IF[ ]	/* If */
NPUSHB[ ]	/* 24 values pushed */
0 2 3 1 3 2 1 128 0 3 3 39 77 0 1 1 42 77 0 0 0 40 0 78 
ELSE[ ]	/* Else */
NPUSHB[ ]	/* 21 values pushed */
0 3 2 3 133 0 2 1 2 133 0 1 1 42 77 0 0 0 40 0 78 
EIF[ ]	/* EndIf */
PUSHB[ ]	/* 7 values pushed */
53 36 52 49 4 9 26 
CALL[ ]	/* CallFunction */";
};
width = 196;
}
);
note = igrave;
unicode = 236;
},
{
glyphname = iacute;
kernLeft = i;
kernRight = i;
layers = (
{
layerId = m01;
shapes = (
{
closed = 1;
nodes = (
(41,382,o),
(54,382,qs),
(59,382,ls),
(109,382,o),
(155,335,o),
(155,284,qs),
(155,13,ls),
(155,0,o),
(142,0,qs),
(54,0,ls),
(41,0,o),
(41,13,qs),
(41,369,ls)
);
},
{
closed = 1;
nodes = (
(-17,441,o),
(-13,445,qs),
(78,528,ls),
(92,540,o),
(108,540,qs),
(200,540,ls),
(206,540,o),
(210,528,o),
(205,524,qs),
(107,442,ls),
(94,430,o),
(71,430,qs),
(-7,430,ls),
(-13,430,o)
);
}
);
userData = {
assembly = "MPPEM[ ]	/* MeasurePixelPerEm */
PUSHB[ ]	/* 1 value pushed */
26 
LT[ ]	/* LessThan */
IF[ ]	/* If */
NPUSHB[ ]	/* 25 values pushed */
4 1 2 3 1 3 2 1 128 0 3 3 39 77 0 1 1 42 77 0 0 0 40 0 78 
ELSE[ ]	/* Else */
NPUSHB[ ]	/* 22 values pushed */
0 3 2 3 133 4 1 2 1 2 133 0 1 1 42 77 0 0 0 40 0 78 
EIF[ ]	/* EndIf */
NPUSHB[ ]	/* 13 values pushed */
15 13 22 19 13 26 15 26 52 49 5 9 24 
CALL[ ]	/* CallFunction */";
};
width = 196;
}
);
note = iacute;
unicode = 237;
},
{
glyphname = icircumflex;
kernLeft = i;
kernRight = i;
layers = (
{
layerId = m01;
shapes = (
{
closed = 1;
nodes = (
(40,382,o),
(53,382,qs),
(58,382,ls),
(109,382,o),
(155,335,o),
(155,284,qs),
(155,13,ls),
(155,0,o),
(142,0,qs),
(53,0,ls),
(40,0,o),
(40,13,qs),
(40,369,ls)
);
},
{
closed = 1;
nodes = (
(39,430,o),
(16,430,qs),
(-53,430,ls),
(-59,430,o),
(-63,441,o),
(-59,445,qs),
(20,528,ls),
(31,540,o),
(50,540,qs),
(145,540,ls),
(163,540,o),
(175,528,qs),
(254,445,ls),
(258,441,o),
(254,430,o),
(248,430,qs),
(178,430,ls),
(156,430,o),
(145,444,qs),
(98,500,l),
(50,444,ls)
);
}
);
userData = {
assembly = "MPPEM[ ]	/* MeasurePixelPerEm */
PUSHB[ ]	/* 1 value pushed */
26 
LT[ ]	/* LessThan */
IF[ ]	/* If */
NPUSHB[ ]	/* 22 values pushed */
4 1 2 2 3 95 0 3 3 39 77 0 1 1 42 77 0 0 0 40 0 78 
ELSE[ ]	/* Else */
NPUSHB[ ]	/* 20 values pushed */
0 3 4 1 2 1 3 2 103 0 1 1 42 77 0 0 0 40 0 78 
EIF[ ]	/* EndIf */
PUSHB[ ]	/* 8 values pushed */
52 53 36 52 49 5 9 27 
CALL[ ]	/* CallFunction */";
};
width = 196;
}
);
note = icircumflex;
unicode = 238;
},
{
glyphname = idieresis;
kernLeft = i;
kernRight = i;
layers = (
{
layerId = m01;
shapes = (
{
closed = 1;
nodes = (
(40,382,o),
(53,382,qs),
(58,382,ls),
(109,382,o),
(155,335,o),
(155,284,qs),
(155,13,ls),
(155,0,o),
(142,0,qs),
(53,0,ls),
(40,0,o),
(40,13,qs),
(40,369,ls)
);
},
{
closed = 1;
nodes = (
(-16,546,o),
(11,546,qs),
(37,546,o),
(72,509,o),
(72,481,qs),
(72,454,o),
(37,417,o),
(11,417,qs),
(-17,417,o),
(-53,454,o),
(-53,481,qs),
(-53,508,o)
);
},
{
closed = 1;
nodes = (
(160,546,o),
(187,546,qs),
(213,546,o),
(248,508,o),
(248,481,qs),
(248,454,o),
(213,417,o),
(187,417,qs),
(159,417,o),
(123,454,o),
(123,481,qs),
(123,508,o)
);
}
);
userData = {
assembly = "MPPEM[ ]	/* MeasurePixelPerEm */
PUSHB[ ]	/* 1 value pushed */
40 
LT[ ]	/* LessThan */
IF[ ]	/* If */
NPUSHB[ ]	/* 23 values pushed */
4 1 2 2 3 97 5 1 3 3 39 77 0 1 1 42 77 0 0 0 40 0 78 
ELSE[ ]	/* Else */
NPUSHB[ ]	/* 21 values pushed */
5 1 3 4 1 2 1 3 2 105 0 1 1 42 77 0 0 0 40 0 78 
EIF[ ]	/* EndIf */
NPUSHB[ ]	/* 9 values pushed */
36 36 36 36 52 49 6 9 28 
CALL[ ]	/* CallFunction */";
};
width = 196;
}
);
note = idieresis;
unicode = 239;
},
{
glyphname = eth;
layers = (
{
layerId = m01;
shapes = (
{
closed = 1;
nodes = (
(134,401,ls),
(124,395,o),
(117,405,qs),
(102,429,ls),
(95,438,o),
(106,444,qs),
(159,472,l),
(111,543,ls),
(108,547,o),
(112,556,o),
(117,556,qs),
(150,556,ls),
(193,556,o),
(231,542,o),
(250,519,q),
(298,544,ls),
(308,549,o),
(315,539,qs),
(331,515,ls),
(338,504,o),
(328,500,qs),
(280,476,l),
(377,335,ls),
(420,273,o),
(420,196,qs),
(420,108,o),
(376,54,qs),
(323,-10,o),
(225,-10,qs),
(142,-10,o),
(89,37,qs),
(29,92,o),
(29,187,qs),
(29,270,o),
(75,322,qs),
(127,382,o),
(222,382,q),
(189,428,l)
);
},
{
closed = 1;
nodes = (
(303,185,qs),
(303,228,o),
(262,276,o),
(224,276,qs),
(187,276,o),
(145,228,o),
(145,185,qs),
(145,95,o),
(223,95,qs),
(303,95,o)
);
}
);
userData = {
assembly = "NPUSHB[ ]	/* 50 values pushed */
37 30 22 15 4 0 2 1 76 0 2 2 39 77 0 4 4 0 97 0 0 0 42 77 5 1 3 3 1 97 0 1 1 46 1 78 39 38 44 42 38 47 39 47 47 38 16 6 9 25 
CALL[ ]	/* CallFunction */";
};
width = 448;
}
);
note = eth;
unicode = 240;
},
{
glyphname = ntilde;
kernLeft = n;
kernRight = n;
layers = (
{
layerId = m01;
shapes = (
{
closed = 1;
nodes = (
(256,391,qs),
(409,391,o),
(409,217,qs),
(409,13,ls),
(409,0,o),
(396,0,qs),
(307,0,ls),
(294,0,o),
(294,13,qs),
(294,205,ls),
(294,285,o),
(224,285,qs),
(155,285,o),
(155,206,qs),
(155,13,ls),
(155,0,o),
(142,0,qs),
(54,0,ls),
(41,0,o),
(41,13,qs),
(41,369,ls),
(41,382,o),
(54,382,qs),
(59,382,ls),
(129,382,o),
(147,335,q),
(189,391,o)
);
},
{
closed = 1;
nodes = (
(75,441,qs),
(81,542,o),
(153,542,qs),
(181,542,o),
(227,524,qs),
(265,509,o),
(281,509,qs),
(298,509,o),
(302,533,qs),
(304,545,o),
(315,545,qs),
(363,545,ls),
(376,545,o),
(374,532,qs),
(368,478,o),
(330,434,o),
(288,434,qs),
(266,434,o),
(220,451,qs),
(183,464,o),
(170,464,qs),
(150,464,o),
(146,440,qs),
(145,428,o),
(133,428,qs),
(86,428,ls),
(75,428,o)
);
}
);
userData = {
assembly = "MPPEM[ ]	/* MeasurePixelPerEm */
PUSHB[ ]	/* 1 value pushed */
22 
LT[ ]	/* LessThan */
IF[ ]	/* If */
NPUSHB[ ]	/* 44 values pushed */
0 6 9 5 5 6 114 0 9 6 5 9 90 7 11 2 5 5 8 98 10 1 8 8 39 77 0 2 2 0 97 4 1 0 0 42 77 3 1 1 1 40 1 78 
ELSE[ ]	/* Else */
MPPEM[ ]	/* MeasurePixelPerEm */
PUSHB[ ]	/* 1 value pushed */
28 
LT[ ]	/* LessThan */
IF[ ]	/* If */
NPUSHB[ ]	/* 48 values pushed */
0 6 9 5 5 6 114 0 9 6 5 9 90 7 11 2 5 5 8 98 10 1 8 8 39 77 0 0 0 42 77 0 2 2 4 97 0 4 4 48 77 3 1 1 1 40 1 78 
ELSE[ ]	/* Else */
MPPEM[ ]	/* MeasurePixelPerEm */
PUSHB[ ]	/* 1 value pushed */
32 
LT[ ]	/* LessThan */
IF[ ]	/* If */
NPUSHB[ ]	/* 49 values pushed */
0 6 9 5 9 6 5 128 0 9 6 5 9 90 7 11 2 5 5 8 98 10 1 8 8 39 77 0 0 0 42 77 0 2 2 4 97 0 4 4 48 77 3 1 1 1 40 1 78 
ELSE[ ]	/* Else */
MPPEM[ ]	/* MeasurePixelPerEm */
PUSHB[ ]	/* 1 value pushed */
36 
LT[ ]	/* LessThan */
IF[ ]	/* If */
NPUSHB[ ]	/* 50 values pushed */
0 6 9 7 9 6 7 128 0 9 0 7 5 9 7 106 11 1 5 5 8 98 10 1 8 8 39 77 0 0 0 42 77 0 2 2 4 97 0 4 4 48 77 3 1 1 1 40 1 78 
ELSE[ ]	/* Else */
NPUSHB[ ]	/* 48 values pushed */
0 6 9 7 9 6 7 128 0 9 0 7 5 9 7 106 10 1 8 11 1 5 4 8 5 105 0 0 0 42 77 0 2 2 4 97 0 4 4 48 77 3 1 1 1 40 1 78 
EIF[ ]	/* EndIf */
EIF[ ]	/* EndIf */
EIF[ ]	/* EndIf */
EIF[ ]	/* EndIf */
NPUSHB[ ]	/* 24 values pushed */
29 27 51 49 47 45 43 40 37 35 33 31 27 53 29 53 35 51 35 51 49 12 9 27 
CALL[ ]	/* CallFunction */";
};
width = 447;
}
);
note = ntilde;
unicode = 241;
},
{
glyphname = ograve;
kernLeft = o;
kernRight = o;
layers = (
{
layerId = m01;
shapes = (
{
closed = 1;
nodes = (
(308,190,qs),
(308,235,o),
(266,284,o),
(228,284,qs),
(190,284,o),
(147,235,o),
(147,190,qs),
(147,98,o),
(227,98,qs),
(308,98,o)
);
},
{
closed = 1;
nodes = (
(90,39,qs),
(29,94,o),
(29,192,qs),
(29,277,o),
(75,330,qs),
(129,393,o),
(227,393,qs),
(312,393,o),
(365,344,qs),
(427,289,o),
(427,192,qs),
(427,107,o),
(380,53,qs),
(326,-10,o),
(229,-10,qs),
(144,-10,o)
);
},
{
closed = 1;
nodes = (
(107,540,o),
(113,540,qs),
(205,540,ls),
(221,540,o),
(235,528,qs),
(326,445,ls),
(330,441,o),
(326,430,o),
(320,430,qs),
(242,430,ls),
(219,430,o),
(206,442,qs),
(109,524,l),
(103,528,o)
);
}
);
userData = {
assembly = "MPPEM[ ]	/* MeasurePixelPerEm */
PUSHB[ ]	/* 1 value pushed */
26 
LT[ ]	/* LessThan */
IF[ ]	/* If */
NPUSHB[ ]	/* 36 values pushed */
0 4 5 3 5 4 3 128 0 5 5 39 77 0 1 1 3 97 0 3 3 48 77 6 1 0 0 2 97 7 1 2 2 46 2 78 
ELSE[ ]	/* Else */
NPUSHB[ ]	/* 33 values pushed */
0 5 4 5 133 0 4 3 4 133 0 1 1 3 97 0 3 3 48 77 6 1 0 0 2 97 7 1 2 2 46 2 78 
EIF[ ]	/* EndIf */
NPUSHB[ ]	/* 23 values pushed */
11 10 1 0 37 35 30 28 19 17 10 25 11 25 6 4 0 9 1 9 8 9 22 
CALL[ ]	/* CallFunction */";
};
width = 455;
}
);
note = ograve;
unicode = 242;
},
{
glyphname = oacute;
kernLeft = o;
kernRight = o;
layers = (
{
layerId = m01;
shapes = (
{
closed = 1;
nodes = (
(308,190,qs),
(308,235,o),
(266,284,o),
(228,284,qs),
(190,284,o),
(147,235,o),
(147,190,qs),
(147,98,o),
(227,98,qs),
(308,98,o)
);
},
{
closed = 1;
nodes = (
(90,39,qs),
(29,94,o),
(29,192,qs),
(29,277,o),
(75,330,qs),
(129,393,o),
(227,393,qs),
(312,393,o),
(365,344,qs),
(427,289,o),
(427,192,qs),
(427,107,o),
(380,53,qs),
(326,-10,o),
(229,-10,qs),
(144,-10,o)
);
},
{
closed = 1;
nodes = (
(123,441,o),
(127,445,qs),
(219,528,ls),
(232,540,o),
(249,540,qs),
(340,540,ls),
(347,540,o),
(350,528,o),
(345,524,qs),
(248,442,ls),
(234,430,o),
(212,430,qs),
(133,430,ls),
(127,430,o)
);
}
);
userData = {
assembly = "MPPEM[ ]	/* MeasurePixelPerEm */
PUSHB[ ]	/* 1 value pushed */
26 
LT[ ]	/* LessThan */
IF[ ]	/* If */
NPUSHB[ ]	/* 37 values pushed */
8 1 4 5 3 5 4 3 128 0 5 5 39 77 0 1 1 3 97 0 3 3 48 77 6 1 0 0 2 97 7 1 2 2 46 2 78 
ELSE[ ]	/* Else */
NPUSHB[ ]	/* 34 values pushed */
0 5 4 5 133 8 1 4 3 4 133 0 1 1 3 97 0 3 3 48 77 6 1 0 0 2 97 7 1 2 2 46 2 78 
EIF[ ]	/* EndIf */
NPUSHB[ ]	/* 27 values pushed */
28 26 11 10 1 0 35 32 26 39 28 39 19 17 10 25 11 25 6 4 0 9 1 9 9 9 22 
CALL[ ]	/* CallFunction */";
};
width = 455;
}
);
note = oacute;
unicode = 243;
},
{
glyphname = ocircumflex;
kernLeft = o;
kernRight = o;
layers = (
{
layerId = m01;
shapes = (
{
closed = 1;
nodes = (
(308,190,qs),
(308,235,o),
(266,284,o),
(228,284,qs),
(190,284,o),
(147,235,o),
(147,190,qs),
(147,98,o),
(227,98,qs),
(308,98,o)
);
},
{
closed = 1;
nodes = (
(90,39,qs),
(29,94,o),
(29,192,qs),
(29,277,o),
(75,330,qs),
(129,393,o),
(227,393,qs),
(312,393,o),
(365,344,qs),
(427,289,o),
(427,192,qs),
(427,107,o),
(380,53,qs),
(326,-10,o),
(229,-10,qs),
(144,-10,o)
);
},
{
closed = 1;
nodes = (
(170,430,o),
(147,430,qs),
(78,430,ls),
(72,430,o),
(67,441,o),
(72,445,q),
(151,528,ls),
(162,540,o),
(181,540,qs),
(275,540,ls),
(293,540,o),
(305,528,qs),
(385,445,ls),
(389,441,o),
(384,430,o),
(379,430,qs),
(309,430,ls),
(287,430,o),
(275,444,qs),
(229,500,l),
(181,444,ls)
);
}
);
userData = {
assembly = "MPPEM[ ]	/* MeasurePixelPerEm */
PUSHB[ ]	/* 1 value pushed */
26 
LT[ ]	/* LessThan */
IF[ ]	/* If */
NPUSHB[ ]	/* 34 values pushed */
6 1 4 4 5 95 0 5 5 39 77 0 1 1 3 97 0 3 3 48 77 7 1 0 0 2 97 8 1 2 2 46 2 78 
ELSE[ ]	/* Else */
NPUSHB[ ]	/* 32 values pushed */
0 5 6 1 4 3 5 4 103 0 1 1 3 97 0 3 3 48 77 7 1 0 0 2 97 8 1 2 2 46 2 78 
EIF[ ]	/* EndIf */
NPUSHB[ ]	/* 25 values pushed */
11 10 1 0 45 42 38 35 30 28 19 17 10 25 11 25 6 4 0 9 1 9 9 9 22 
CALL[ ]	/* CallFunction */";
};
width = 455;
}
);
note = ocircumflex;
unicode = 244;
},
{
glyphname = otilde;
kernLeft = o;
kernRight = o;
layers = (
{
layerId = m01;
shapes = (
{
closed = 1;
nodes = (
(308,190,qs),
(308,235,o),
(266,284,o),
(228,284,qs),
(190,284,o),
(147,235,o),
(147,190,qs),
(147,98,o),
(227,98,qs),
(308,98,o)
);
},
{
closed = 1;
nodes = (
(90,39,qs),
(29,94,o),
(29,192,qs),
(29,277,o),
(75,330,qs),
(129,393,o),
(227,393,qs),
(312,393,o),
(365,344,qs),
(427,289,o),
(427,192,qs),
(427,107,o),
(380,53,qs),
(326,-10,o),
(229,-10,qs),
(144,-10,o)
);
},
{
closed = 1;
nodes = (
(72,441,qs),
(78,542,o),
(150,542,qs),
(178,542,o),
(224,524,qs),
(262,509,o),
(277,509,qs),
(295,509,o),
(299,533,qs),
(301,545,o),
(312,545,qs),
(360,545,ls),
(372,545,o),
(371,532,qs),
(365,478,o),
(327,434,o),
(285,434,qs),
(263,434,o),
(217,451,qs),
(180,464,o),
(167,464,qs),
(147,464,o),
(143,440,qs),
(142,428,o),
(130,428,qs),
(83,428,ls),
(72,428,o)
);
}
);
userData = {
assembly = "MPPEM[ ]	/* MeasurePixelPerEm */
PUSHB[ ]	/* 1 value pushed */
28 
LT[ ]	/* LessThan */
IF[ ]	/* If */
NPUSHB[ ]	/* 49 values pushed */
0 5 8 4 4 5 114 0 8 5 4 8 90 6 12 2 4 4 7 98 9 1 7 7 39 77 0 1 1 3 97 0 3 3 48 77 10 1 0 0 2 97 11 1 2 2 46 2 78 
ELSE[ ]	/* Else */
MPPEM[ ]	/* MeasurePixelPerEm */
PUSHB[ ]	/* 1 value pushed */
32 
LT[ ]	/* LessThan */
IF[ ]	/* If */
NPUSHB[ ]	/* 50 values pushed */
0 5 8 4 8 5 4 128 0 8 5 4 8 90 6 12 2 4 4 7 98 9 1 7 7 39 77 0 1 1 3 97 0 3 3 48 77 10 1 0 0 2 97 11 1 2 2 46 2 78 
ELSE[ ]	/* Else */
MPPEM[ ]	/* MeasurePixelPerEm */
PUSHB[ ]	/* 1 value pushed */
36 
LT[ ]	/* LessThan */
IF[ ]	/* If */
NPUSHB[ ]	/* 51 values pushed */
0 5 8 6 8 5 6 128 0 8 0 6 4 8 6 106 12 1 4 4 7 98 9 1 7 7 39 77 0 1 1 3 97 0 3 3 48 77 10 1 0 0 2 97 11 1 2 2 46 2 78 
ELSE[ ]	/* Else */
NPUSHB[ ]	/* 49 values pushed */
0 5 8 6 8 5 6 128 0 8 0 6 4 8 6 106 9 1 7 12 1 4 3 7 4 105 0 1 1 3 97 0 3 3 48 77 10 1 0 0 2 97 11 1 2 2 46 2 78 
EIF[ ]	/* EndIf */
EIF[ ]	/* EndIf */
EIF[ ]	/* EndIf */
NPUSHB[ ]	/* 35 values pushed */
28 26 11 10 1 0 50 48 46 44 42 39 36 34 32 30 26 52 28 52 19 17 10 25 11 25 6 4 0 9 1 9 13 9 22 
CALL[ ]	/* CallFunction */";
};
width = 455;
}
);
note = otilde;
unicode = 245;
},
{
glyphname = odieresis;
kernLeft = o;
kernRight = o;
layers = (
{
layerId = m01;
shapes = (
{
closed = 1;
nodes = (
(308,190,qs),
(308,235,o),
(266,284,o),
(228,284,qs),
(190,284,o),
(147,235,o),
(147,190,qs),
(147,98,o),
(227,98,qs),
(308,98,o)
);
},
{
closed = 1;
nodes = (
(90,39,qs),
(29,94,o),
(29,192,qs),
(29,277,o),
(75,330,qs),
(129,393,o),
(227,393,qs),
(312,393,o),
(365,344,qs),
(427,289,o),
(427,192,qs),
(427,107,o),
(380,53,qs),
(326,-10,o),
(229,-10,qs),
(144,-10,o)
);
},
{
closed = 1;
nodes = (
(114,546,o),
(141,546,qs),
(168,546,o),
(203,508,o),
(203,481,qs),
(203,454,o),
(168,417,o),
(141,417,qs),
(114,417,o),
(78,454,o),
(78,481,qs),
(78,508,o)
);
},
{
closed = 1;
nodes = (
(290,546,o),
(317,546,qs),
(343,546,o),
(379,509,o),
(379,481,qs),
(379,454,o),
(344,417,o),
(317,417,qs),
(290,417,o),
(254,454,o),
(254,481,qs),
(254,508,o)
);
}
);
userData = {
assembly = "MPPEM[ ]	/* MeasurePixelPerEm */
PUSHB[ ]	/* 1 value pushed */
40 
LT[ ]	/* LessThan */
IF[ ]	/* If */
NPUSHB[ ]	/* 35 values pushed */
6 1 4 4 5 97 7 1 5 5 39 77 0 1 1 3 97 0 3 3 48 77 8 1 0 0 2 97 9 1 2 2 46 2 78 
ELSE[ ]	/* Else */
NPUSHB[ ]	/* 33 values pushed */
7 1 5 6 1 4 3 5 4 105 0 1 1 3 97 0 3 3 48 77 8 1 0 0 2 97 9 1 2 2 46 2 78 
EIF[ ]	/* EndIf */
NPUSHB[ ]	/* 27 values pushed */
11 10 1 0 48 46 42 40 36 34 30 28 19 17 10 25 11 25 6 4 0 9 1 9 10 9 22 
CALL[ ]	/* CallFunction */";
};
width = 455;
}
);
note = odieresis;
unicode = 246;
},
{
glyphname = divide;
layers = (
{
layerId = m01;
shapes = (
{
closed = 1;
nodes = (
(189,486,o),
(216,486,qs),
(242,486,o),
(277,449,o),
(277,421,qs),
(277,394,o),
(242,358,o),
(216,358,qs),
(189,358,o),
(152,394,o),
(152,421,qs),
(152,449,o)
);
},
{
closed = 1;
nodes = (
(189,183,o),
(216,183,qs),
(242,183,o),
(277,146,o),
(277,118,qs),
(277,91,o),
(242,55,o),
(216,55,qs),
(189,55,o),
(152,91,o),
(152,118,qs),
(152,146,o)
);
},
{
closed = 1;
nodes = (
(30,318,o),
(43,318,qs),
(332,318,ls),
(402,318,o),
(402,251,qs),
(402,236,ls),
(402,223,o),
(389,223,qs),
(43,223,ls),
(30,223,o),
(30,236,qs),
(30,305,ls)
);
}
);
userData = {
assembly = "NPUSHB[ ]	/* 41 values pushed */
0 1 0 0 5 1 0 105 0 5 0 4 3 5 4 103 0 3 2 2 3 89 0 3 3 2 97 0 2 3 2 81 51 51 36 36 36 34 6 9 28 
CALL[ ]	/* CallFunction */";
};
width = 431;
}
);
note = divide;
unicode = 247;
},
{
glyphname = oslash;
kernLeft = o;
kernRight = o;
layers = (
{
layerId = m01;
shapes = (
{
closed = 1;
nodes = (
(233,284,o),
(228,284,qs),
(190,284,o),
(147,235,o),
(147,190,qs),
(147,162,o),
(155,141,q),
(246,282,l)
);
},
{
closed = 1;
nodes = (
(217,98,o),
(227,98,qs),
(308,98,o),
(308,190,qs),
(308,217,o),
(300,238,q),
(212,99,l)
);
},
{
closed = 1;
nodes = (
(90,39,qs),
(29,94,o),
(29,192,qs),
(29,277,o),
(75,330,qs),
(129,393,o),
(227,393,qs),
(312,393,o),
(365,344,qs),
(427,289,o),
(427,192,qs),
(427,107,o),
(380,53,qs),
(326,-10,o),
(229,-10,qs),
(144,-10,o)
);
}
);
userData = {
assembly = "NPUSHB[ ]	/* 41 values pushed */
7 1 1 0 1 76 0 0 0 3 97 0 3 3 48 77 0 1 1 2 97 4 1 2 2 46 2 78 16 15 24 22 15 30 16 30 38 20 5 9 24 
CALL[ ]	/* CallFunction */";
};
width = 455;
}
);
note = oslash;
unicode = 248;
},
{
glyphname = ugrave;
kernLeft = u;
kernRight = u;
layers = (
{
layerId = m01;
shapes = (
{
closed = 1;
nodes = (
(40,192,qs),
(40,369,ls),
(40,382,o),
(53,382,qs),
(58,382,ls),
(108,382,o),
(154,335,o),
(154,284,qs),
(154,176,ls),
(154,96,o),
(223,96,qs),
(293,96,o),
(293,175,qs),
(293,369,ls),
(293,382,o),
(306,382,qs),
(311,382,ls),
(362,382,o),
(408,335,o),
(408,284,qs),
(408,185,ls),
(408,-10,o),
(223,-10,qs),
(40,-10,o)
);
},
{
closed = 1;
nodes = (
(92,540,o),
(99,540,qs),
(190,540,ls),
(207,540,o),
(220,528,qs),
(311,445,ls),
(316,441,o),
(311,430,o),
(305,430,qs),
(227,430,ls),
(204,430,o),
(191,442,qs),
(94,524,l),
(88,528,o)
);
}
);
userData = {
assembly = "MPPEM[ ]	/* MeasurePixelPerEm */
PUSHB[ ]	/* 1 value pushed */
26 
LT[ ]	/* LessThan */
IF[ ]	/* If */
NPUSHB[ ]	/* 28 values pushed */
0 4 4 5 95 0 5 5 39 77 3 1 1 1 42 77 0 2 2 0 98 6 1 0 0 46 0 78 
ELSE[ ]	/* Else */
NPUSHB[ ]	/* 26 values pushed */
0 5 0 4 1 5 4 103 3 1 1 1 42 77 0 2 2 0 98 6 1 0 0 46 0 78 
EIF[ ]	/* EndIf */
NPUSHB[ ]	/* 19 values pushed */
1 0 36 33 28 26 20 17 13 11 8 5 0 23 1 23 7 9 22 
CALL[ ]	/* CallFunction */";
};
width = 447;
}
);
note = ugrave;
unicode = 249;
},
{
glyphname = uacute;
kernLeft = u;
kernRight = u;
layers = (
{
layerId = m01;
shapes = (
{
closed = 1;
nodes = (
(40,192,qs),
(40,369,ls),
(40,382,o),
(53,382,qs),
(58,382,ls),
(108,382,o),
(154,335,o),
(154,284,qs),
(154,176,ls),
(154,96,o),
(223,96,qs),
(293,96,o),
(293,175,qs),
(293,369,ls),
(293,382,o),
(306,382,qs),
(311,382,ls),
(362,382,o),
(408,335,o),
(408,284,qs),
(408,185,ls),
(408,-10,o),
(223,-10,qs),
(40,-10,o)
);
},
{
closed = 1;
nodes = (
(109,441,o),
(114,445,qs),
(205,528,ls),
(218,540,o),
(235,540,qs),
(326,540,ls),
(333,540,o),
(336,528,o),
(331,524,qs),
(234,442,ls),
(221,430,o),
(198,430,qs),
(120,430,ls),
(114,430,o)
);
}
);
userData = {
assembly = "MPPEM[ ]	/* MeasurePixelPerEm */
PUSHB[ ]	/* 1 value pushed */
26 
LT[ ]	/* LessThan */
IF[ ]	/* If */
NPUSHB[ ]	/* 29 values pushed */
7 1 4 4 5 95 0 5 5 39 77 3 1 1 1 42 77 0 2 2 0 98 6 1 0 0 46 0 78 
ELSE[ ]	/* Else */
NPUSHB[ ]	/* 27 values pushed */
0 5 7 1 4 1 5 4 103 3 1 1 1 42 77 0 2 2 0 98 6 1 0 0 46 0 78 
EIF[ ]	/* EndIf */
NPUSHB[ ]	/* 23 values pushed */
26 24 1 0 33 30 24 37 26 37 20 17 13 11 8 5 0 23 1 23 8 9 22 
CALL[ ]	/* CallFunction */";
};
width = 447;
}
);
note = uacute;
unicode = 250;
},
{
glyphname = ucircumflex;
kernLeft = u;
kernRight = u;
layers = (
{
layerId = m01;
shapes = (
{
closed = 1;
nodes = (
(40,192,qs),
(40,369,ls),
(40,382,o),
(53,382,qs),
(58,382,ls),
(108,382,o),
(154,335,o),
(154,284,qs),
(154,176,ls),
(154,96,o),
(223,96,qs),
(293,96,o),
(293,175,qs),
(293,369,ls),
(293,382,o),
(306,382,qs),
(311,382,ls),
(362,382,o),
(408,335,o),
(408,284,qs),
(408,185,ls),
(408,-10,o),
(223,-10,qs),
(40,-10,o)
);
},
{
closed = 1;
nodes = (
(162,430,o),
(139,430,qs),
(70,430,ls),
(64,430,o),
(60,441,o),
(64,445,qs),
(143,528,ls),
(154,540,o),
(173,540,qs),
(268,540,ls),
(285,540,o),
(297,528,qs),
(377,445,ls),
(381,441,o),
(377,430,o),
(371,430,qs),
(301,430,ls),
(279,430,o),
(268,444,qs),
(221,500,l),
(173,444,ls)
);
}
);
userData = {
assembly = "MPPEM[ ]	/* MeasurePixelPerEm */
PUSHB[ ]	/* 1 value pushed */
26 
LT[ ]	/* LessThan */
IF[ ]	/* If */
NPUSHB[ ]	/* 29 values pushed */
6 1 4 4 5 95 0 5 5 39 77 3 1 1 1 42 77 0 2 2 0 98 7 1 0 0 46 0 78 
ELSE[ ]	/* Else */
NPUSHB[ ]	/* 27 values pushed */
0 5 6 1 4 1 5 4 103 3 1 1 1 42 77 0 2 2 0 98 7 1 0 0 46 0 78 
EIF[ ]	/* EndIf */
NPUSHB[ ]	/* 21 values pushed */
1 0 43 40 36 33 28 26 20 17 13 11 8 5 0 23 1 23 8 9 22 
CALL[ ]	/* CallFunction */";
};
width = 447;
}
);
note = ucircumflex;
unicode = 251;
},
{
glyphname = udieresis;
kernLeft = u;
kernRight = u;
layers = (
{
layerId = m01;
shapes = (
{
closed = 1;
nodes = (
(40,192,qs),
(40,369,ls),
(40,382,o),
(53,382,qs),
(58,382,ls),
(108,382,o),
(154,335,o),
(154,284,qs),
(154,176,ls),
(154,96,o),
(223,96,qs),
(293,96,o),
(293,175,qs),
(293,369,ls),
(293,382,o),
(306,382,qs),
(311,382,ls),
(362,382,o),
(408,335,o),
(408,284,qs),
(408,185,ls),
(408,-10,o),
(223,-10,qs),
(40,-10,o)
);
},
{
closed = 1;
nodes = (
(110,546,o),
(137,546,qs),
(164,546,o),
(199,509,o),
(199,481,qs),
(199,454,o),
(164,417,o),
(137,417,qs),
(110,417,o),
(74,454,o),
(74,481,qs),
(74,508,o)
);
},
{
closed = 1;
nodes = (
(286,546,o),
(313,546,qs),
(340,546,o),
(375,508,o),
(375,481,qs),
(375,454,o),
(340,417,o),
(313,417,qs),
(286,417,o),
(250,454,o),
(250,481,qs),
(250,508,o)
);
}
);
userData = {
assembly = "MPPEM[ ]	/* MeasurePixelPerEm */
PUSHB[ ]	/* 1 value pushed */
40 
LT[ ]	/* LessThan */
IF[ ]	/* If */
NPUSHB[ ]	/* 30 values pushed */
6 1 4 4 5 97 7 1 5 5 39 77 3 1 1 1 42 77 0 2 2 0 98 8 1 0 0 46 0 78 
ELSE[ ]	/* Else */
NPUSHB[ ]	/* 28 values pushed */
7 1 5 6 1 4 1 5 4 105 3 1 1 1 42 77 0 2 2 0 98 8 1 0 0 46 0 78 
EIF[ ]	/* EndIf */
NPUSHB[ ]	/* 23 values pushed */
1 0 46 44 40 38 34 32 28 26 20 17 13 11 8 5 0 23 1 23 9 9 22 
CALL[ ]	/* CallFunction */";
};
width = 447;
}
);
note = udieresis;
unicode = 252;
},
{
glyphname = yacute;
kernLeft = y;
kernRight = y;
layers = (
{
layerId = m01;
shapes = (
{
closed = 1;
nodes = (
(3,382,o),
(16,382,qs),
(40,382,ls),
(90,382,o),
(136,344,o),
(157,284,qs),
(211,128,l),
(292,369,ls),
(296,382,o),
(308,382,qs),
(398,382,ls),
(410,382,o),
(404,369,q),
(276,7,ls),
(242,-91,o),
(166,-171,o),
(106,-171,qs),
(60,-171,o),
(-2,-115,o),
(-2,-73,qs),
(-2,-52,o),
(11,-52,qs),
(15,-52,o),
(20,-55,qs),
(49,-74,o),
(76,-74,qs),
(124,-74,o),
(148,-10,q),
(9,369,l)
);
},
{
closed = 1;
nodes = (
(101,441,o),
(105,445,qs),
(197,528,ls),
(210,540,o),
(227,540,qs),
(318,540,ls),
(325,540,o),
(328,528,o),
(323,524,qs),
(226,442,ls),
(212,430,o),
(190,430,qs),
(111,430,ls),
(105,430,o)
);
}
);
userData = {
assembly = "PUSHB[ ]	/* 6 values pushed */
21 1 1 3 1 76 
MPPEM[ ]	/* MeasurePixelPerEm */
PUSHB[ ]	/* 1 value pushed */
26 
LT[ ]	/* LessThan */
IF[ ]	/* If */
NPUSHB[ ]	/* 39 values pushed */
7 1 5 6 3 6 5 3 128 0 1 3 0 3 1 0 128 0 6 6 39 77 4 1 3 3 42 77 0 0 0 2 98 0 2 2 50 2 78 
ELSE[ ]	/* Else */
NPUSHB[ ]	/* 36 values pushed */
0 6 5 6 133 7 1 5 3 5 133 0 1 3 0 3 1 0 128 4 1 3 3 42 77 0 0 0 2 98 0 2 2 50 2 78 
EIF[ ]	/* EndIf */
NPUSHB[ ]	/* 16 values pushed */
31 29 38 35 29 42 31 42 53 52 35 34 33 8 9 27 
CALL[ ]	/* CallFunction */";
};
width = 412;
}
);
note = yacute;
unicode = 253;
},
